<svg width="16" height="16" viewBox="0 0 16 16" fill="none" xmlns="http://www.w3.org/2000/svg">
<g opacity="0.5" clip-path="url(#clip0_44_958)">
<path d="M14.4632 15.5999C14.1576 15.5999 13.872 15.4823 13.6592 15.2695L7.99922 9.60954L2.33922 15.2687C2.12642 15.4823 1.84002 15.5991 1.53522 15.5991C1.23042 15.5991 0.944025 15.4815 0.731224 15.2687C0.516024 15.0535 0.400024 14.7727 0.404024 14.4767V14.4519C0.400024 14.1559 0.516024 13.8751 0.731224 13.6599L6.39122 7.99994L0.730424 2.34074C0.516824 2.12714 0.400024 1.84154 0.400024 1.53674C0.400024 1.23194 0.517624 0.945544 0.730424 0.732744C0.941624 0.521544 1.21762 0.405544 1.50722 0.405544H1.56162C1.85202 0.405544 2.12802 0.521544 2.33922 0.732744L7.99922 6.39274L13.6592 0.732744C13.872 0.519144 14.1584 0.402344 14.4632 0.402344C14.768 0.402344 15.0544 0.519944 15.2672 0.732744C15.4808 0.946344 15.5976 1.23194 15.5976 1.53674C15.5976 1.84154 15.48 2.12794 15.2672 2.34074L9.60722 8.00074L15.2672 13.6607C15.7104 14.1039 15.7104 14.8255 15.2672 15.2695C15.0544 15.4831 14.768 15.5999 14.4632 15.5999Z" fill="white"/>
</g>
<defs>
<clipPath id="clip0_44_958">
<rect width="16" height="16" fill="white"/>
</clipPath>
</defs>
</svg>
