<?xml version="1.0" encoding="UTF-8"?>
<svg id="icons" xmlns="http://www.w3.org/2000/svg" viewBox="0 0 200 200">
  <defs>
    <style>
      .cls-1 {
        fill: #ffffff;
      }
    </style>
  </defs>
  <path class="cls-1" d="M195,49.24c0,5.04-1.97,9.78-5.53,13.35l-101.52,101.52c-3.57,3.56-8.3,5.53-13.34,5.53s-9.78-1.97-13.35-5.53L10.52,113.34c-3.56-3.56-5.52-8.29-5.52-13.34s1.96-9.78,5.52-13.34c3.55-3.56,8.29-5.52,13.34-5.52s9.78,1.96,13.34,5.52l37.42,37.42,88.18-88.19c3.55-3.56,8.29-5.53,13.34-5.53s9.76,1.97,13.33,5.53c1.78,1.78,3.17,3.85,4.11,6.13.94,2.26,1.43,4.7,1.43,7.21Z"/>
</svg>