<svg xmlns="http://www.w3.org/2000/svg" width="16" height="16" viewBox="0 0 16 16" fill="none">
<path d="M15.5999 3.93911C15.5999 4.34231 15.4423 4.72151 15.1575 5.00711L7.0359 13.1287C6.7503 13.4135 6.3719 13.5711 5.9687 13.5711C5.5655 13.5711 5.1863 13.4135 4.9007 13.1287L0.841502 9.06711C0.556702 8.78231 0.399902 8.40391 0.399902 7.99991C0.399902 7.59591 0.556702 7.21751 0.841502 6.93271C1.1255 6.64791 1.5047 6.49111 1.9087 6.49111C2.3127 6.49111 2.6911 6.64791 2.9759 6.93271L5.9695 9.92631L13.0239 2.87111C13.3079 2.58631 13.6871 2.42871 14.0911 2.42871C14.4951 2.42871 14.8719 2.58631 15.1575 2.87111C15.2999 3.01351 15.4111 3.17911 15.4863 3.36151C15.5615 3.54231 15.6007 3.73751 15.6007 3.93831L15.5999 3.93911Z" fill="#2563EB"/>
</svg>