<?xml version="1.0" encoding="UTF-8"?>
<svg id="_레이어_1" data-name="레이어_1" xmlns="http://www.w3.org/2000/svg" version="1.1" viewBox="0 0 400 400">
  <!-- Generator: Adobe Illustrator 30.0.0, SVG Export Plug-In . SVG Version: 2.1.1 Build 123)  -->
  <defs>
    <style>
      .st0 {
        fill: #fff;
      }

      .st1 {
        fill: #2563eb;
      }
    </style>
  </defs>
  <path class="st1" d="M323.1199879,10H76.1066183c-9.2028363,0-16.6630063,7.4601699-16.6630063,16.6630063v34.6973574c0,9.2027399,7.4601699,16.6631027,16.6630063,16.6631027h247.0133696c9.2027399,0,16.6630063-7.4603627,16.6630063-16.6631027V26.6630063c0-9.2028363-7.4602663-16.6630063-16.6630063-16.6630063ZM91.6515148,55.6065184c-6.4035616,0-11.594737-5.1910791-11.594737-11.594737,0-6.4039471,5.1911755-11.5950262,11.594737-11.5950262,6.4037543,0,11.5951226,5.1910791,11.5951226,11.5950262,0,6.403658-5.1913683,11.594737-11.5951226,11.594737ZM124.632715,55.6065184c-6.403658,0-11.5949298-5.1910791-11.5949298-11.594737,0-6.4039471,5.1912719-11.5950262,11.5949298-11.5950262,6.4038507,0,11.5949298,5.1910791,11.5949298,11.5950262,0,6.403658-5.1910791,11.594737-11.5949298,11.594737ZM308.8627636,52.7725407h-152.0220493c-4.8387478,0-8.7607593-3.9225899-8.7607593-8.7607593s3.9220116-8.7608557,8.7607593-8.7608557h152.0220493c4.8386514,0,8.7609521,3.9226863,8.7609521,8.7608557s-3.9223007,8.7607593-8.7609521,8.7607593Z"/>
  <path class="st1" d="M323.1199879,98.6367285H76.1066183c-9.2028363,0-16.6630063,7.4601699-16.6630063,16.6630063v34.6975502c0,9.2026435,7.4601699,16.6629099,16.6630063,16.6629099h247.0133696c9.2027399,0,16.6630063-7.4602663,16.6630063-16.6629099v-34.6975502c0-9.2028363-7.4602663-16.6630063-16.6630063-16.6630063ZM91.6515148,144.2432469c-6.4035616,0-11.594737-5.1910791-11.594737-11.594737,0-6.4037543,5.1911755-11.5951226,11.594737-11.5951226,6.4037543,0,11.5951226,5.1913683,11.5951226,11.5951226,0,6.403658-5.1913683,11.594737-11.5951226,11.594737ZM124.632715,144.2432469c-6.403658,0-11.5949298-5.1910791-11.5949298-11.594737,0-6.4037543,5.1912719-11.5951226,11.5949298-11.5951226,6.4038507,0,11.5949298,5.1913683,11.5949298,11.5951226,0,6.403658-5.1910791,11.594737-11.5949298,11.594737ZM308.8627636,141.4094619h-152.0220493c-4.8387478,0-8.7607593-3.9225899-8.7607593-8.7608557,0-4.838073,3.9220116-8.7607593,8.7607593-8.7607593h152.0220493c4.8386514,0,8.7609521,3.9226863,8.7609521,8.7607593,0,4.8382658-3.9223007,8.7608557-8.7609521,8.7608557Z"/>
  <path class="st1" d="M323.8932853,178.5124084H76.8798193c-9.2027399,0-16.6629099,7.4604591-16.6629099,16.6630063v34.6976466c0,9.2028363,7.4601699,16.6630063,16.6629099,16.6630063h247.013466c9.2026435,0,16.6631027-7.4601699,16.6631027-16.6630063v-34.6976466c0-9.2025471-7.4604591-16.6630063-16.6631027-16.6630063ZM91.6515148,232.8801681c-6.4035616,0-11.594737-5.1913683-11.594737-11.5949298,0-6.4037543,5.1911755-11.5949298,11.594737-11.5949298,6.4037543,0,11.5951226,5.1911755,11.5951226,11.5949298,0,6.4035616-5.1913683,11.5949298-11.5951226,11.5949298ZM124.632715,232.8801681c-6.403658,0-11.5949298-5.1913683-11.5949298-11.5949298,0-6.4037543,5.1912719-11.5949298,11.5949298-11.5949298,6.4038507,0,11.5949298,5.1911755,11.5949298,11.5949298,0,6.4035616-5.1910791,11.5949298-11.5949298,11.5949298ZM308.8627636,230.0459976h-152.0220493c-4.8387478,0-8.7607593-3.9228791-8.7607593-8.7609521s3.9220116-8.7607593,8.7607593-8.7607593h152.0220493c4.8386514,0,8.7609521,3.9226863,8.7609521,8.7607593s-3.9223007,8.7609521-8.7609521,8.7609521Z"/>
  <path class="st0" d="M208.8906961,353.6405395v-75.1607845c0-4.6957821-3.8073866-8.5038005-8.5039584-8.5038005-4.6967297,0-8.5038005,3.8080184-8.5038005,8.5038005v75.1607845c-6.3225329,3.1371021-10.6796982,9.6404729-10.6796982,17.1758039,0,10.5934646,8.5900341,19.1836566,19.1834987,19.1836566,10.5933067,0,19.1834987-8.590192,19.1834987-19.1836566,0-7.535331-4.3573232-14.0385438-10.6795403-17.1758039Z"/>
  <path class="st0" d="M143.5633834,269.9759545c-4.6967297,0-8.5039584,3.8080184-8.5039584,8.5038005v45.4819001h-60.5538256v29.6788844c-6.3222171,3.1371021-10.6800141,9.6404729-10.6800141,17.1758039,0,10.5934646,8.59035,19.1836566,19.1836566,19.1836566,10.5934646,0,19.1833407-8.590192,19.1833407-19.1836566,0-7.535331-4.3570073-14.0382279-10.6792244-17.1756459v-12.6714414h60.5536676v-62.4895011c0-4.6957821-3.8072287-8.5038005-8.5036426-8.5038005Z"/>
  <path class="st0" d="M326.2678758,353.6405395v-29.6788844h-60.5538256v-45.4819001c0-4.6957821-3.8072287-8.5038005-8.5038005-8.5038005s-8.5039584,3.8080184-8.5039584,8.5038005v62.4895011h60.5538256v12.6712834c-6.322375,3.1372601-10.6796982,9.6404729-10.6796982,17.1758039,0,10.5934646,8.59035,19.1836566,19.1836566,19.1836566,10.5929908,0,19.1833407-8.590192,19.1833407-19.1836566,0-7.535331-4.3573232-14.0385438-10.6795403-17.1758039Z"/>
</svg>