<?xml version="1.0" encoding="UTF-8"?>
<svg xmlns="http://www.w3.org/2000/svg" version="1.1" viewBox="0 0 600 600">
  <!-- Generator: Adobe Illustrator 30.0.0, SVG Export Plug-In . SVG Version: 2.1.1 Build 123)  -->
  <defs>
    <style>
      .st0 {
        fill: #135ea1;
      }

      .st1 {
        fill: #48d8f5;
      }

      .st2 {
        fill: #fff;
      }

      .st3 {
        isolation: isolate;
      }

      .st4 {
        opacity: .4;
      }

      .st4, .st5, .st6 {
        fill: #438be3;
        mix-blend-mode: multiply;
      }

      .st5 {
        opacity: .2;
      }

      .st6 {
        opacity: .3;
      }
    </style>
  </defs>
  <g class="st3">
    <g id="_레이어_3" data-name="레이어_3">
      <g>
        <g>
          <polygon class="st2" points="299.9960096 338.4526953 127.2990792 438.1622697 127.2990792 480.2904256 299.9960096 580 472.7009208 481.9517487 472.7009208 438.1622697 299.9960096 338.4526953"/>
          <polygon class="st6" points="127.2990792 480.2904256 299.9960096 580 299.9960096 537.8707222 127.2990792 438.1622697 127.2990792 480.2904256"/>
          <polygon class="st0" points="187.9040226 479.6600611 294.3630127 541.125447 294.3630127 570.2427607 187.9040226 508.76942 187.9040226 479.6600611"/>
          <polygon class="st0" points="180.5310728 475.4074206 180.5310728 504.5147399 132.9350336 477.0327433 132.9350336 447.919407 180.5310728 475.4074206"/>
          <polygon class="st4" points="464.0910041 433.1874789 299.9960096 527.9312371 135.912973 433.1874789 299.9960096 338.4526953 464.0910041 433.1874789"/>
          <polygon class="st5" points="472.7009208 481.9517487 299.9960096 580 299.9960096 537.8707222 472.7009208 438.1622697 472.7009208 481.9517487"/>
          <polygon class="st1" points="169.3396296 480.7087649 174.0902589 483.4495911 174.0902589 477.9769133 169.3396296 475.2421042 169.3396296 480.7087649"/>
          <polygon class="st1" points="161.6759228 476.2877485 166.4225747 479.0197021 166.4225747 473.5519195 161.6759228 470.8160906 161.6759228 476.2877485"/>
          <polygon class="st1" points="154.0201708 471.8638765 158.7558084 474.6026631 158.7558084 469.1239682 154.0201708 466.3941563 154.0201708 471.8638765"/>
          <polygon class="st1" points="146.3423901 467.4408205 151.0900619 470.1757316 151.0900619 464.7020339 146.3423901 461.9691625 146.3423901 467.4408205"/>
          <polygon class="st1" points="138.6916353 463.0149088 143.4263551 465.7467604 143.4263551 460.2800997 138.6916353 457.5412112 138.6916353 463.0149088"/>
          <polygon class="st1" points="169.3396296 490.5655408 174.0902589 493.2954547 174.0902589 487.828794 169.3396296 485.0938829 169.3396296 490.5655408"/>
          <polygon class="st1" points="161.6759228 486.1386093 166.4225747 488.8735204 166.4225747 483.3998228 161.6759228 480.6719486 161.6759228 486.1386093"/>
          <polygon class="st1" points="154.0201708 481.7166751 158.7558084 484.4455691 158.7558084 478.9738092 154.0201708 476.2439973 154.0201708 481.7166751"/>
          <polygon class="st1" points="146.3423901 477.2887237 151.0900619 480.0235329 151.0900619 474.5518749 146.3423901 471.8170658 146.3423901 477.2887237"/>
          <polygon class="st1" points="138.6916353 472.8597526 143.4263551 475.5986411 143.4263551 470.127901 138.6916353 467.3950295 138.6916353 472.8597526"/>
          <polygon class="st1" points="283.2791628 553.6364645 288.0128628 556.368316 288.0128628 550.9016553 283.2791628 548.1697018 283.2791628 553.6364645"/>
          <polygon class="st1" points="275.6203513 549.2114707 280.362006 551.9463818 280.362006 546.4746219 275.6203513 543.7437901 275.6203513 549.2114707"/>
          <polygon class="st1" points="267.9566445 544.785559 272.6943428 547.5144531 272.6943428 542.0516678 267.9566445 539.3178785 267.9566445 544.785559"/>
        </g>
        <g>
          <polygon class="st2" points="299.9960096 274.7614015 127.2990792 374.4718938 127.2990792 416.598112 299.9960096 516.3086043 472.7009208 418.260353 472.7009208 374.4718938 299.9960096 274.7614015"/>
          <polygon class="st6" points="127.2990792 416.598112 299.9960096 516.3086043 299.9960096 474.1813662 127.2990792 374.4718938 127.2990792 416.598112"/>
          <polygon class="st0" points="187.9040226 415.9677475 294.3630127 477.4360909 294.3630127 506.551365 187.9040226 445.0780243 187.9040226 415.9677475"/>
          <polygon class="st0" points="180.5310728 411.7180646 180.5310728 440.8233442 132.9350336 413.3433873 132.9350336 384.2300509 180.5310728 411.7180646"/>
          <polygon class="st4" points="464.0910041 369.4981229 299.9960096 464.2418811 135.912973 369.4981229 299.9960096 274.7614015 464.0910041 369.4981229"/>
          <polygon class="st5" points="472.7009208 418.260353 299.9960096 516.3086043 299.9960096 474.1813662 472.7009208 374.4718938 472.7009208 418.260353"/>
          <polygon class="st1" points="169.3396296 417.0174712 174.0902589 419.7582974 174.0902589 414.2875573 169.3396296 411.5496886 169.3396296 417.0174712"/>
          <polygon class="st1" points="161.6759228 412.5974746 166.4225747 415.330346 166.4225747 409.8625635 161.6759228 407.1267345 161.6759228 412.5974746"/>
          <polygon class="st1" points="154.0201708 408.1735007 158.7558084 410.9113693 158.7558084 405.4346122 154.0201708 402.7037804 154.0201708 408.1735007"/>
          <polygon class="st1" points="146.3423901 403.7514644 151.0900619 406.483418 151.0900619 401.0126779 146.3423901 398.2778688 146.3423901 403.7514644"/>
          <polygon class="st1" points="138.6916353 399.3225952 143.4263551 402.0574044 143.4263551 396.5907437 138.6916353 393.8518552 138.6916353 399.3225952"/>
          <polygon class="st1" points="169.3396296 426.8742471 174.0902589 429.6050788 174.0902589 424.1353586 169.3396296 421.4025891 169.3396296 426.8742471"/>
          <polygon class="st1" points="161.6759228 422.4483354 166.4225747 425.1821247 166.4225747 419.7094469 161.6759228 416.9805529 161.6759228 422.4483354"/>
          <polygon class="st1" points="154.0201708 418.0262992 158.7558084 420.7541734 158.7558084 415.2825154 154.0201708 412.5526016 154.0201708 418.0262992"/>
          <polygon class="st1" points="146.3423901 413.5993677 151.0900619 416.3322391 151.0900619 410.8604792 146.3423901 408.1266899 146.3423901 413.5993677"/>
          <polygon class="st1" points="138.6916353 409.1684588 143.4263551 411.9072453 143.4263551 406.4375251 138.6916353 403.7037358 138.6916353 409.1684588"/>
          <polygon class="st1" points="283.2791628 489.9441509 288.0128628 492.67896 288.0128628 487.2102596 283.2791628 484.478408 283.2791628 489.9441509"/>
          <polygon class="st1" points="275.6203513 485.5221146 280.362006 488.2549861 280.362006 482.7833281 275.6203513 480.0514765 275.6203513 485.5221146"/>
          <polygon class="st1" points="267.9566445 481.0941633 272.6943428 483.825097 272.6943428 478.3612919 267.9566445 475.6275026 267.9566445 481.0941633"/>
        </g>
        <g>
          <polygon class="st2" points="299.9960096 211.0720455 127.2990792 310.7825378 127.2990792 352.9078381 299.9960096 452.6173105 472.7009208 354.5690593 472.7009208 310.7825378 299.9960096 211.0720455"/>
          <polygon class="st6" points="127.2990792 352.9078381 299.9960096 452.6173105 299.9960096 410.4890526 127.2990792 310.7825378 127.2990792 352.9078381"/>
          <polygon class="st0" points="187.9040226 352.2773716 294.3630127 413.7457151 294.3630127 442.8621109 187.9040226 381.3876484 187.9040226 352.2773716"/>
          <polygon class="st0" points="180.5310728 348.0266689 180.5310728 377.1320505 132.9350336 349.6530114 132.9350336 320.5377374 180.5310728 348.0266689"/>
          <polygon class="st4" points="464.0910041 305.8058093 299.9960096 400.5505874 135.912973 305.8058093 299.9960096 211.0720455 464.0910041 305.8058093"/>
          <polygon class="st5" points="472.7009208 354.5690593 299.9960096 452.6173105 299.9960096 410.4890526 472.7009208 310.7825378 472.7009208 354.5690593"/>
          <polygon class="st1" points="169.3396296 353.3281151 174.0902589 356.0679215 174.0902589 350.5962636 169.3396296 347.8603326 169.3396296 353.3281151"/>
          <polygon class="st1" points="161.6759228 348.9070987 166.4225747 351.6379305 166.4225747 346.1712698 161.6759228 343.4334011 161.6759228 348.9070987"/>
          <polygon class="st1" points="154.0201708 344.482105 158.7558084 347.2199736 158.7558084 341.7452561 154.0201708 339.0114669 154.0201708 344.482105"/>
          <polygon class="st1" points="146.3423901 340.0591509 151.0900619 342.794062 151.0900619 337.3233219 146.3423901 334.5885128 146.3423901 340.0591509"/>
          <polygon class="st1" points="138.6916353 335.6322194 143.4263551 338.3661106 143.4263551 332.8983281 138.6916353 330.1605614 138.6916353 335.6322194"/>
          <polygon class="st1" points="169.3396296 363.184891 174.0902589 365.9127652 174.0902589 360.4461045 169.3396296 357.7111934 169.3396296 363.184891"/>
          <polygon class="st1" points="161.6759228 358.7579596 166.4225747 361.490831 166.4225747 356.0200909 161.6759228 353.2892591 161.6759228 358.7579596"/>
          <polygon class="st1" points="154.0201708 354.3339856 158.7558084 357.0648174 158.7558084 351.5921396 154.0201708 348.8632455 154.0201708 354.3339856"/>
          <polygon class="st1" points="146.3423901 349.907972 151.0900619 352.6408434 151.0900619 347.1702053 146.3423901 344.4352942 146.3423901 349.907972"/>
          <polygon class="st1" points="138.6916353 345.4791028 143.4263551 348.2178893 143.4263551 342.7472512 138.6916353 340.0133599 138.6916353 345.4791028"/>
          <polygon class="st1" points="283.2791628 426.253775 288.0128628 428.9876663 288.0128628 423.5198837 283.2791628 420.789052 283.2791628 426.253775"/>
          <polygon class="st1" points="275.6203513 421.8308209 280.362006 424.56563 280.362006 419.0929523 275.6203513 416.3611007 275.6203513 421.8308209"/>
          <polygon class="st1" points="267.9566445 417.4048073 272.6943428 420.1337013 272.6943428 414.6699982 267.9566445 411.9361069 267.9566445 417.4048073"/>
        </g>
        <g>
          <polygon class="st2" points="299.9960096 147.3816696 127.2990792 247.091142 127.2990792 289.2174622 299.9960096 388.9269347 472.7009208 290.8797032 472.7009208 247.091142 299.9960096 147.3816696"/>
          <polygon class="st6" points="127.2990792 289.2174622 299.9960096 388.9269347 299.9960096 346.7986768 127.2990792 247.091142 127.2990792 289.2174622"/>
          <polygon class="st0" points="187.9040226 288.5869957 294.3630127 350.0534015 294.3630127 379.1696954 187.9040226 317.6953349 187.9040226 288.5869957"/>
          <polygon class="st0" points="180.5310728 284.3353751 180.5310728 313.4426944 132.9350336 285.9617177 132.9350336 256.8473615 180.5310728 284.3353751"/>
          <polygon class="st4" points="464.0910041 242.1154334 299.9960096 336.8602115 135.912973 242.1154334 299.9960096 147.3816696 464.0910041 242.1154334"/>
          <polygon class="st5" points="472.7009208 290.8797032 299.9960096 388.9269347 299.9960096 346.7986768 472.7009208 247.091142 472.7009208 290.8797032"/>
          <polygon class="st1" points="169.3396296 289.6367194 174.0902589 292.3765258 174.0902589 286.9048678 169.3396296 284.1690389 169.3396296 289.6367194"/>
          <polygon class="st1" points="161.6759228 285.2177427 166.4225747 287.9476566 166.4225747 282.479874 161.6759228 279.7440451 161.6759228 285.2177427"/>
          <polygon class="st1" points="154.0201708 280.7908112 158.7558084 283.5295977 158.7558084 278.0519227 154.0201708 275.3221108 154.0201708 280.7908112"/>
          <polygon class="st1" points="146.3423901 276.368775 151.0900619 279.1036861 151.0900619 273.6299885 146.3423901 270.8951793 146.3423901 276.368775"/>
          <polygon class="st1" points="138.6916353 271.9428633 143.4263551 274.6767546 143.4263551 269.2080542 138.6916353 266.4691657 138.6916353 271.9428633"/>
          <polygon class="st1" points="169.3396296 299.4925775 174.0902589 302.2234092 174.0902589 296.7567485 169.3396296 294.0218374 169.3396296 299.4925775"/>
          <polygon class="st1" points="161.6759228 295.0665638 166.4225747 297.8004551 166.4225747 292.3287972 161.6759228 289.5999031 161.6759228 295.0665638"/>
          <polygon class="st1" points="154.0201708 290.6446296 158.7558084 293.3735236 158.7558084 287.9008458 154.0201708 285.1719518 154.0201708 290.6446296"/>
          <polygon class="st1" points="146.3423901 286.2166782 151.0900619 288.9514874 151.0900619 283.4778917 146.3423901 280.7459382 146.3423901 286.2166782"/>
          <polygon class="st1" points="138.6916353 281.7887269 143.4263551 284.5255757 143.4263551 279.0558555 138.6916353 276.3219642 138.6916353 281.7887269"/>
          <polygon class="st1" points="283.2791628 362.5623793 288.0128628 365.2972904 288.0128628 359.8296098 283.2791628 357.0977583 283.2791628 362.5623793"/>
          <polygon class="st1" points="275.6203513 358.140445 280.362006 360.8743363 280.362006 355.4016585 275.6203513 352.6717446 275.6203513 358.140445"/>
          <polygon class="st1" points="267.9566445 353.7135135 272.6943428 356.4424076 272.6943428 350.9796223 267.9566445 348.2448131 267.9566445 353.7135135"/>
        </g>
        <g>
          <polygon class="st2" points="299.9960096 83.689356 127.2990792 183.3998483 127.2990792 225.5270864 299.9960096 325.2375786 472.7009208 227.1883075 472.7009208 183.3998483 299.9960096 83.689356"/>
          <polygon class="st6" points="127.2990792 225.5270864 299.9960096 325.2375786 299.9960096 283.1093207 127.2990792 183.3998483 127.2990792 225.5270864"/>
          <polygon class="st0" points="187.9040226 224.8966199 294.3630127 286.3640455 294.3630127 315.4794215 187.9040226 254.0059788 187.9040226 224.8966199"/>
          <polygon class="st0" points="180.5310728 220.6449993 180.5310728 249.7512987 132.9350336 222.270322 132.9350336 193.1581074 180.5310728 220.6449993"/>
          <polygon class="st4" points="464.0910041 178.4260774 299.9960096 273.1689178 135.912973 178.4260774 299.9960096 83.689356 464.0910041 178.4260774"/>
          <polygon class="st5" points="472.7009208 227.1883075 299.9960096 325.2375786 299.9960096 283.1093207 472.7009208 183.3998483 472.7009208 227.1883075"/>
          <polygon class="st1" points="169.3396296 225.9454257 174.0902589 228.6862519 174.0902589 223.214492 169.3396296 220.478663 169.3396296 225.9454257"/>
          <polygon class="st1" points="161.6759228 221.5244093 166.4225747 224.2583006 166.4225747 218.7885803 161.6759228 216.0536692 161.6759228 221.5244093"/>
          <polygon class="st1" points="154.0201708 217.1014552 158.7558084 219.8402417 158.7558084 214.3625667 154.0201708 211.6307151 154.0201708 217.1014552"/>
          <polygon class="st1" points="146.3423901 212.6795209 151.0900619 215.4113725 151.0900619 209.9406324 146.3423901 207.2058233 146.3423901 212.6795209"/>
          <polygon class="st1" points="138.6916353 208.2515696 143.4263551 210.9853589 143.4263551 205.5166585 138.6916353 202.7798097 138.6916353 208.2515696"/>
          <polygon class="st1" points="169.3396296 235.8022016 174.0902589 238.5321155 174.0902589 233.0634151 169.3396296 230.3314615 169.3396296 235.8022016"/>
          <polygon class="st1" points="161.6759228 231.3762899 166.4225747 234.1100792 166.4225747 228.6374014 161.6759228 225.9085074 161.6759228 231.3762899"/>
          <polygon class="st1" points="154.0201708 226.9532339 158.7558084 229.6831477 158.7558084 224.21047 154.0201708 221.4805561 154.0201708 226.9532339"/>
          <polygon class="st1" points="146.3423901 222.5273222 151.0900619 225.2612135 151.0900619 219.7875159 146.3423901 217.0536246 146.3423901 222.5273222"/>
          <polygon class="st1" points="138.6916353 218.0964133 143.4263551 220.8351999 143.4263551 215.3654796 138.6916353 212.6316903 138.6916353 218.0964133"/>
          <polygon class="st1" points="283.2791628 298.8721054 288.0128628 301.6069145 288.0128628 296.1382141 283.2791628 293.4063625 283.2791628 298.8721054"/>
          <polygon class="st1" points="275.6203513 294.4500692 280.362006 297.1829406 280.362006 291.7123025 275.6203513 288.9784112 275.6203513 294.4500692"/>
          <polygon class="st1" points="267.9566445 290.0221178 272.6943428 292.7530516 272.6943428 287.2902662 267.9566445 284.5554571 267.9566445 290.0221178"/>
        </g>
        <g>
          <polygon class="st2" points="299.9960096 20 127.2990792 119.7104923 127.2990792 161.8357926 299.9960096 261.5452651 472.7009208 163.4989515 472.7009208 119.7104923 299.9960096 20"/>
          <polygon class="st6" points="127.2990792 161.8357926 299.9960096 261.5452651 299.9960096 219.418027 127.2990792 119.7104923 127.2990792 161.8357926"/>
          <polygon class="st0" points="187.9040226 161.2053261 294.3630127 222.6727517 294.3630127 251.7900655 187.9040226 190.3156029 187.9040226 161.2053261"/>
          <polygon class="st0" points="180.5310728 156.9546234 180.5310728 186.0619427 132.9350336 158.5810679 132.9350336 129.4667117 180.5310728 156.9546234"/>
          <polygon class="st5" points="472.7009208 163.4989515 299.9960096 261.5452651 299.9960096 219.418027 472.7009208 119.7104923 472.7009208 163.4989515"/>
          <polygon class="st1" points="169.3396296 162.2560697 174.0902589 164.995876 174.0902589 159.5221784 169.3396296 156.7873693 169.3396296 162.2560697"/>
          <polygon class="st1" points="161.6759228 157.8350533 166.4225747 160.565885 166.4225747 155.0992243 161.6759228 152.3633953 161.6759228 157.8350533"/>
          <polygon class="st1" points="154.0201708 153.4100595 158.7558084 156.1479281 158.7558084 150.6722928 154.0201708 147.9394214 154.0201708 153.4100595"/>
          <polygon class="st1" points="146.3423901 148.9871054 151.0900619 151.7220165 151.0900619 146.2493387 146.3423901 143.5164673 146.3423901 148.9871054"/>
          <polygon class="st1" points="138.6916353 144.5601739 143.4263551 147.2940652 143.4263551 141.8273025 138.6916353 139.0885159 138.6916353 144.5601739"/>
          <polygon class="st1" points="169.3396296 172.1128456 174.0902589 174.8417396 174.0902589 169.374059 169.3396296 166.6391479 169.3396296 172.1128456"/>
          <polygon class="st1" points="161.6759228 167.6848942 166.4225747 170.4198053 166.4225747 164.9461077 161.6759228 162.2172137 161.6759228 167.6848942"/>
          <polygon class="st1" points="154.0201708 163.26296 158.7558084 165.9908342 158.7558084 160.5200941 154.0201708 157.7892623 154.0201708 163.26296"/>
          <polygon class="st1" points="146.3423901 158.8360285 151.0900619 161.5687979 151.0900619 156.0981598 146.3423901 153.3632487 146.3423901 158.8360285"/>
          <polygon class="st1" points="138.6916353 154.4070573 143.4263551 157.1458438 143.4263551 151.6761236 138.6916353 148.9413144 138.6916353 154.4070573"/>
          <polygon class="st1" points="283.2791628 235.1817295 288.0128628 237.9156208 288.0128628 232.4469204 283.2791628 229.7150688 283.2791628 235.1817295"/>
          <polygon class="st1" points="275.6203513 230.7587754 280.362006 233.4935846 280.362006 228.0198869 275.6203513 225.2890552 275.6203513 230.7587754"/>
          <polygon class="st1" points="267.9566445 226.3318439 272.6943428 229.0616558 272.6943428 223.5979527 267.9566445 220.8640614 267.9566445 226.3318439"/>
        </g>
      </g>
    </g>
  </g>
</svg>