<?xml version="1.0" encoding="UTF-8"?>
<svg id="_레이어_1" data-name="레이어_1" xmlns="http://www.w3.org/2000/svg" version="1.1" viewBox="0 0 400 400">
  <!-- Generator: Adobe Illustrator 30.0.0, SVG Export Plug-In . SVG Version: 2.1.1 Build 123)  -->
  <defs>
    <style>
      .st0 {
        fill: #fff;
      }

      .st1 {
        fill: #2563eb;
      }
    </style>
  </defs>
  <path class="st0" d="M342.5776144,45.9005699c-36.1277144-1.2017502-103.2839285-18.5183858-132.8176656-33.5549535-6.1320237-3.1274886-13.3728639-3.1274886-19.5198975,0-29.5182481,15.0365677-96.6897915,32.3532033-132.8176656,33.5549535-11.5392607.3851477-20.7213283,9.7829426-20.7213283,21.3222034v126.7475977c0,66.4010883,36.4047589,127.4562567,94.8255299,159.0238354l68.4812371,37.0057936,68.4654288-37.0057936c58.4206113-31.5675787,94.8256895-92.622747,94.8256895-159.0238354v-126.7475977c0-11.5392607-9.1820675-20.9370557-20.7213283-21.3222034ZM330.637717,195.1721212c0,53.1208387-29.1180906,101.9742348-75.8608391,127.2250403l-54.7690536,29.5953735-54.7848619-29.5953735c-46.7430678-25.2508055-75.8605197-74.1042016-75.8605197-127.2250403v-101.3888487c0-9.2283747,7.3486241-16.7465787,16.5769988-17.0547607,28.9022035-.9705338,82.6392466-14.8208403,106.2573261-26.8531923,4.9143055-2.4957953,10.7071693-2.4957953,15.6219539,0,23.6176005,12.032352,77.3396337,25.8826585,106.2418372,26.8531923,9.2283747.308182,16.5771584,7.826386,16.5771584,17.0547607v101.3888487Z"/>
  <path class="st1" d="M291.2514169,101.3731727c-23.1094994-.770455-66.0929063-11.8474428-84.9965995-21.4764541-3.9286021-2.0028637-8.5658632-2.0028637-12.494625,0-18.8880445,9.6290113-61.8867807,20.705999-85.011769,21.4764541-7.379602.2462263-13.2495911,6.2549771-13.2495911,13.6499083v81.1141448c0,42.4904754,23.2945683,81.5760985,60.6856693,101.7738367l43.8309873,23.6795563,43.815179-23.6795563c37.3912607-20.1977382,60.6853499-59.2833613,60.6853499-101.7738367v-81.1141448c0-7.3949312-5.8696698-13.4036821-13.264601-13.6499083ZM243.7072355,162.3203975l-55.7089289,66.9095088-29.9188848-22.0465109c-4.5296369-3.327727-5.4846818-9.7058173-2.1571144-14.2354542,3.3433757-4.5293175,9.7214659-5.4998514,14.2507834-2.1567951l14.4513413,10.6611815,43.430191-52.1656342c3.5899213-4.3292387,10.014159-4.9147846,14.3433977-1.309534,4.3134304,3.5896019,4.8991359,10.0139993,1.3092147,14.343238Z"/>
</svg>