<?xml version="1.0" encoding="UTF-8"?>
<svg id="_레이어_1" data-name="레이어_1" xmlns="http://www.w3.org/2000/svg" version="1.1" viewBox="0 0 400 400">
  <!-- Generator: Adobe Illustrator 30.0.0, SVG Export Plug-In . SVG Version: 2.1.1 Build 123)  -->
  <defs>
    <style>
      .st0 {
        fill: #fff;
      }

      .st1 {
        fill: #2563eb;
      }
    </style>
  </defs>
  <path class="st0" d="M357.4048413,53.5070113c0,10.1124763-16.3517943,21.0854703-43.73386,29.3406514-30.2806037,9.127305-70.6509236,14.1552059-113.6712277,14.1552059-43.0088486,0-83.3791684-5.0279009-113.6712277-14.1552059-27.3816135-8.2551811-43.7334078-19.2281751-43.7334078-29.3406514,0-10.1236303,16.3517943-21.0854703,43.7334078-29.3519561,30.2920592-9.1271542,70.662379-14.1550552,113.6712277-14.1550552,43.0203041,0,83.3906239,5.0279009,113.6712277,14.1550552,27.3820657,8.2664859,43.73386,19.2283258,43.73386,29.3519561Z"/>
  <path class="st1" d="M199.9997522,117.634351c-64.0602539,0-131.2685975-11.7885697-157.4045776-33.9950266v66.3025284c0,10.1124528,16.3517772,21.0854576,43.7334143,29.3406487,30.2920031,9.1385588,70.6623277,14.1664497,113.6711633,14.1664497,43.0203355,0,83.39066-5.0278909,113.6712553-14.1664497,27.382097-8.2551912,43.7338743-19.228196,43.7338743-29.3406487v-66.3025284c-26.1359801,22.2064568-93.3445077,33.9950266-157.4051296,33.9950266ZM340.7700257,152.1079527c-13.8527355,7.0610533-21.3623725,8.6332122-21.6759027,8.697887-.3028584.0604429-.6053488.0906183-.9052632.0906183-2.1096129,0-3.996774-1.4810806-4.4338579-3.6294248-.4953188-2.4456827,1.080704-4.8318425,3.5208668-5.3364532.1210698-.0262195,6.8520331-1.5074841,19.3788892-7.8934538,2.2257148-1.136087,4.9543843-.2545593,6.0932312,1.9776874,1.136087,2.2294867.2502354,4.9569602-1.9779634,6.0931392Z"/>
  <path class="st1" d="M199.9997522,215.9098753c-64.0602539,0-131.2685975-11.7885697-157.4045776-33.9950266v66.3024364c0,10.1125448,16.3517772,21.0855496,43.7334143,29.3406487,30.2920031,9.1386508,70.6623277,14.1665417,113.6711633,14.1665417,43.0203355,0,83.39066-5.0278909,113.6712553-14.1665417,27.382097-8.2550992,43.7338743-19.228104,43.7338743-29.3406487v-66.3024364c-26.1359801,22.2064568-93.3445077,33.9950266-157.4051296,33.9950266ZM340.7700257,250.0762947c-13.8555875,7.0597653-21.3623725,8.6318322-21.6759027,8.696507-.3028584.0604429-.6053488.0908943-.9052632.0908943-2.1096129,0-3.996774-1.4813566-4.4338579-3.6297008-.4953188-2.4453147,1.080704-4.8318425,3.5208668-5.3364532.1210698-.0262195,6.8520331-1.5076681,19.3788892-7.8920739,2.2257148-1.134707,4.9543843-.2529953,6.0932312,1.9792514,1.136087,2.2280147.2502354,4.9553962-1.9779634,6.0915752Z"/>
  <path class="st1" d="M199.9997522,314.1853997c-64.0602539,0-131.2685975-11.7886617-157.4045776-33.9951186v66.3027124c0,10.1123608,16.3517772,21.0852736,43.7334143,29.3406487,30.2920031,9.1384668,70.6623277,14.1663577,113.6711633,14.1663577,43.0203355,0,83.39066-5.0278909,113.6712553-14.1663577,27.382097-8.2553751,43.7338743-19.228288,43.7338743-29.3406487v-66.3027124c-26.1359801,22.2064568-93.3445077,33.9951186-157.4051296,33.9951186ZM340.7700257,348.3514511c-13.8527355,7.0613293-21.3623725,8.6332122-21.6759027,8.697887-.3028584.0606269-.6053488.0908023-.9052632.0908023-2.1096129,0-3.996774-1.4812646-4.4338579-3.6296088-.4953188-2.4454067,1.080704-4.8318425,3.5208668-5.3366372.1210698-.0260355,6.8520331-1.5073001,19.3788892-7.8932699,2.2257148-1.133143,4.9543843-.2530873,6.0932312,1.9777794,1.136087,2.2295787.2502354,4.9568682-1.9779634,6.0930472Z"/>
</svg>