<?xml version="1.0" encoding="UTF-8"?>
<svg xmlns="http://www.w3.org/2000/svg" version="1.1" viewBox="0 0 400 400">
  <defs>
    <style>
      .cls-1 {
        fill: #2563eb;
      }
    </style>
  </defs>
  <!-- Generator: Adobe Illustrator 28.7.10, SVG Export Plug-In . SVG Version: 1.2.0 Build 236)  -->
  <g>
    <g id="_레이어_1" data-name="레이어_1">
      <g>
        <g>
          <path class="cls-1" d="M379.2797714,212.560178c-5.7837795,0-10.4724409-4.6886614-10.4724409-10.4724409v-16.8151496l-31.378126-11.1585354c-2.7916535-.9933858-5.0324567-3.1222835-6.1661732-5.8594803l-14.5952913-35.2355748c-1.1337165-2.7374961-1.0550236-5.8271654.2172283-8.5033228l14.2972756-30.0780472-23.7802205-23.7802205-30.0780472,14.2972756c-2.6758583,1.2728504-5.766126,1.3509449-8.5033228.2172283l-35.2352756-14.5946929c-2.7374961-1.1340157-4.8666929-3.3745197-5.8597795-6.1664724l-11.1582362-31.378126h-33.6305984l-11.1582362,31.378126c-.9930866,2.7919528-3.1222835,5.0324567-5.8597795,6.1664724l-35.2352756,14.5946929c-2.7374961,1.1334173-5.8268661,1.0553228-8.5033228-.2172283l-30.0780472-14.2972756-23.7802205,23.7802205,14.2972756,30.0780472c1.272252,2.6761575,1.3512441,5.7658268.2175276,8.5033228l-14.5955906,35.2355748c-1.1337165,2.7371969-3.3745197,4.8660945-6.1661732,5.8594803l-31.3778268,11.1585354v16.8151496c0,5.7837795-4.6886614,10.4724409-10.4724409,10.4724409s-10.4724409-4.6886614-10.4724409-10.4724409v-24.206c0-4.4307402,2.7886614-8.3824409,6.9635748-9.8671339l33.9561417-12.075622,11.0328661-26.6350079-15.4719843-32.5495433c-1.9026929-4.0016693-1.0801575-8.7678268,2.0528976-11.9008819l34.232315-34.232315c3.1336535-3.1336535,7.8992126-3.9546929,11.9008819-2.0531969l32.5495433,15.4719843,26.6353071-11.0322677,12.0750236-33.9567402c1.4846929-4.1746142,5.4363937-6.9632756,9.8674331-6.9632756h48.412c4.4307402,0,8.3824409,2.7886614,9.8671339,6.9632756l12.0750236,33.9567402,26.6353071,11.0322677,32.5495433-15.4719843c4.0016693-1.9026929,8.7678268-1.0801575,11.9008819,2.0531969l34.232315,34.232315c3.1330551,3.1330551,3.9555906,7.8992126,2.0531969,11.9008819l-15.4719843,32.5492441,11.0325669,26.6353071,33.9564409,12.075622c4.1749134,1.4846929,6.9635748,5.4363937,6.9635748,9.8671339v24.206c0,5.7837795-4.6886614,10.4724409-10.4724409,10.4724409Z"/>
          <path class="cls-1" d="M265.0221494,212.560178c-5.7837795,0-10.4724409-4.6886614-10.4724409-10.4724409,0-30.2153858-24.5821102-54.7974961-54.7974961-54.7974961-30.2150866,0-54.7971969,24.5821102-54.7971969,54.7974961,0,5.7837795-4.6886614,10.4724409-10.4724409,10.4724409s-10.4724409-4.6886614-10.4724409-10.4724409c0-41.7646929,33.977685-75.742378,75.7420787-75.742378s75.742378,33.977685,75.742378,75.742378c0,5.7837795-4.6889606,10.4724409-10.4724409,10.4724409Z"/>
        </g>
        <path class="cls-1" d="M379.2797714,212.560178H20.2246533c-5.7837795,0-10.4724409-4.6886614-10.4724409-10.4724409s4.6886614-10.4724409,10.4724409-10.4724409h359.0551181c5.7837795,0,10.4724409,4.6886614,10.4724409,10.4724409s-4.6886614,10.4724409-10.4724409,10.4724409Z"/>
        <g>
          <g>
            <path class="cls-1" d="M85.1274565,329.9798788c-3.0115748,0-5.9995118-1.292-8.0706614-3.7919213-3.6895906-4.454378-3.0699213-11.0559055,1.3838583-14.7454961l45.570378-37.7498583v-71.6132441c0-5.7837795,4.6889606-10.4724409,10.4724409-10.4724409,5.7837795,0,10.4724409,4.6886614,10.4724409,10.4724409v76.5367874c0,3.1189921-1.3901417,6.0752126-3.791622,8.0646772l-49.362,40.8909921c-1.9535591,1.6184409-4.3215276,2.408063-6.6748346,2.408063Z"/>
            <path class="cls-1" d="M59.4822439,388.4786347c-25.0099843,0-45.3564409-20.3467559-45.3564409-45.3564409s20.3464567-45.3567402,45.3564409-45.3567402c25.009685,0,45.3567402,20.3470551,45.3567402,45.3567402s-20.3470551,45.3564409-45.3567402,45.3564409ZM59.4822439,318.7103354c-13.4606772,0-24.4115591,10.9508819-24.4115591,24.4118583,0,13.4606772,10.9508819,24.4115591,24.4115591,24.4115591s24.4118583-10.9508819,24.4118583-24.4115591c0-13.4609764-10.9511811-24.4118583-24.4118583-24.4118583Z"/>
          </g>
          <g>
            <path class="cls-1" d="M314.3766691,329.9798788c-2.3536063,0-4.7206772-.7893228-6.6748346-2.408063l-49.362-40.8909921c-2.4014803-1.9894646-3.791622-4.945685-3.791622-8.0646772v-76.5367874c0-5.7837795,4.6886614-10.4724409,10.4724409-10.4724409s10.4724409,4.6886614,10.4724409,10.4724409v71.6132441l45.570378,37.7498583c4.4537795,3.6895906,5.073748,10.2911181,1.3838583,14.7454961-2.0708504,2.499622-5.0593858,3.7919213-8.0706614,3.7919213Z"/>
            <path class="cls-1" d="M340.0221809,388.4786347c-25.0099843,0-45.3567402-20.3467559-45.3567402-45.3564409s20.3467559-45.3567402,45.3567402-45.3567402c25.0093858,0,45.3561417,20.3470551,45.3561417,45.3567402s-20.3467559,45.3564409-45.3561417,45.3564409ZM340.0221809,318.7103354c-13.4606772,0-24.4118583,10.9508819-24.4118583,24.4118583,0,13.4606772,10.9511811,24.4115591,24.4118583,24.4115591,13.460378,0,24.4112598-10.9508819,24.4112598-24.4115591,0-13.4609764-10.9508819-24.4118583-24.4112598-24.4118583Z"/>
          </g>
          <g>
            <path class="cls-1" d="M199.7522124,315.3160677c-5.7837795,0-10.4724409-4.6886614-10.4724409-10.4724409v-102.7558898c0-5.7837795,4.6886614-10.4724409,10.4724409-10.4724409s10.4724409,4.6886614,10.4724409,10.4724409v102.7558898c0,5.7837795-4.6886614,10.4724409-10.4724409,10.4724409Z"/>
            <path class="cls-1" d="M199.7522124,388.4786347c-25.009685,0-45.3567402-20.3467559-45.3567402-45.3564409s20.3470551-45.3567402,45.3567402-45.3567402c25.0093858,0,45.3564409,20.3470551,45.3564409,45.3567402s-20.3470551,45.3564409-45.3564409,45.3564409ZM199.7522124,318.7103354c-13.460378,0-24.4118583,10.9508819-24.4118583,24.4118583,0,13.4606772,10.9514803,24.4115591,24.4118583,24.4115591,13.4606772,0,24.4115591-10.9508819,24.4115591-24.4115591,0-13.4609764-10.9508819-24.4118583-24.4115591-24.4118583Z"/>
          </g>
        </g>
      </g>
    </g>
  </g>
</svg>