<?xml version="1.0" encoding="UTF-8"?>
<svg id="_레이어_1" data-name="레이어_1" xmlns="http://www.w3.org/2000/svg" version="1.1" viewBox="0 0 400 400">
  <!-- Generator: Adobe Illustrator 29.8.2, SVG Export Plug-In . SVG Version: 2.1.1 Build 3)  -->
  <defs>
    <style>
      .st0 {
        fill: #09bc4b;
      }
    </style>
  </defs>
  <path class="st0" d="M91.9897874,123.8102992c-3.6204724,0-7.139811-1.8784567-9.0802047-5.2386142-2.8912913-5.0091181-1.1747087-11.4137638,3.833811-14.3053543l86.9790079-50.2072756c5.0097165-2.8924882,11.4134646-1.1732126,14.3047559,3.8344094,2.8912913,5.0088189,1.1744094,11.4137638-3.833811,14.3053543l-86.9790079,50.2072756c-1.648063.9517953-3.4493228,1.4042047-5.2245512,1.4042047Z"/>
  <path class="st0" d="M178.9469528,347.3445512c-1.7764252,0-3.5764882-.4524094-5.2245512-1.4042047l-86.9790079-50.2072756c-5.0085197-2.8915906-6.7251024-9.2962362-3.833811-14.3053543,2.8927874-5.0088189,9.2977323-6.7257008,14.3047559-3.8344094l86.9790079,50.2072756c5.0082205,2.8915906,6.7251024,9.2962362,3.833811,14.3053543-1.9403937,3.3598583-5.4597323,5.2386142-9.0802047,5.2386142Z"/>
  <path class="st0" d="M329.0601181,260.6659528c-5.7840787,0-10.4724409-4.6889606-10.4724409-10.4724409v-100.387622c0-5.7837795,4.6883622-10.4724409,10.4724409-10.4724409s10.4724409,4.6886614,10.4724409,10.4724409v100.387622c0,5.7834803-4.6883622,10.4724409-10.4724409,10.4724409Z"/>
  <path class="st0" d="M308.0072205,123.8102992c-1.7764252,0-3.5764882-.4524094-5.2260472-1.4042047l-86.9760157-50.2072756c-5.0085197-2.8915906-6.7251024-9.2965354-3.833811-14.3053543,2.8927874-5.0088189,9.2962362-6.7257008,14.306252-3.8344094l86.9760157,50.2072756c5.0085197,2.8915906,6.7251024,9.2962362,3.833811,14.3053543-1.9403937,3.3598583-5.4597323,5.2386142-9.0802047,5.2386142Z"/>
  <path class="st0" d="M221.0515512,347.3445512c-3.6204724,0-7.139811-1.8784567-9.0802047-5.2386142-2.8912913-5.0091181-1.1747087-11.4137638,3.833811-14.3053543l86.9760157-50.2072756c5.0142047-2.8927874,11.4149606-1.1732126,14.306252,3.8344094,2.8912913,5.0091181,1.1747087,11.4137638-3.833811,14.3053543l-86.9760157,50.2072756c-1.6495591.9517953-3.4511181,1.4042047-5.2260472,1.4042047Z"/>
  <path class="st0" d="M70.9368898,260.6659528c-5.7840787,0-10.4724409-4.6889606-10.4724409-10.4724409v-100.387622c0-5.7837795,4.6883622-10.4724409,10.4724409-10.4724409s10.4724409,4.6886614,10.4724409,10.4724409v100.387622c0,5.7834803-4.6883622,10.4724409-10.4724409,10.4724409Z"/>
  <path class="st0" d="M199.9998504,83.9854016c-20.3970236,0-36.992252-16.5949291-36.992252-36.9925512,0-20.3979213,16.5952283-36.9928504,36.992252-36.9928504s36.9925512,16.5949291,36.9925512,36.9928504c0,20.397622-16.5955276,36.9925512-36.9925512,36.9925512ZM199.9998504,30.9448819c-8.8492126,0-16.0473701,7.1990551-16.0473701,16.0479685,0,8.8486142,7.1981575,16.0476693,16.0473701,16.0476693,8.8495118,0,16.0476693-7.1990551,16.0476693-16.0476693,0-8.8489134-7.1981575-16.0479685-16.0476693-16.0479685Z"/>
  <path class="st0" d="M67.4289213,160.4817953c-6.2720945,0-12.6231811-1.5939055-18.4332913-4.9489764-8.5571811-4.9405984-14.6787717-12.9176063-17.2355433-22.4618898-2.5582677-9.5445827-1.2447244-19.513748,3.6949764-28.0712283,4.9394016-8.5568819,12.9179055-14.677874,22.4627874-17.2355433,9.5430866-2.5579685,19.5116535-1.2450236,28.0700315,3.6952756v.0002992c8.5571811,4.9408976,14.6787717,12.9179055,17.2355433,22.462189,2.5582677,9.5442835,1.2447244,19.513748-3.6949764,28.0712283-6.8447874,11.8533071-19.3054961,18.4886457-32.0995276,18.4886457ZM67.5180866,107.4415748c-1.3937323,0-2.797937.1831181-4.18.5538425-4.1405039,1.1091811-7.6,3.7646929-9.7432598,7.4767244-2.1447559,3.7126299-2.7132598,8.0371496-1.604378,12.1776535,1.110378,4.1405039,3.7649921,7.6008976,7.477622,9.7441575,7.6613386,4.4253543,17.4967559,1.7892913,21.9206142-5.8738425,2.1432598-3.7120315,2.7132598-8.0365512,1.604378-12.1770551-1.110378-4.1405039-3.7649921-7.6011969-7.477622-9.7447559-2.4717953-1.4275433-5.2170709-2.1567244-7.9973543-2.1567244Z"/>
  <path class="st0" d="M67.5515984,313.5122835c-3.2126457,0-6.4474331-.4224882-9.633748-1.2764409-9.5448819-2.5576693-17.5233858-8.6786614-22.4627874-17.2361417-4.9397008-8.5568819-6.2532441-18.525748-3.6949764-28.0706299,2.5567717-9.543685,8.6783622-17.5212913,17.2355433-22.4615906h0c17.6661102-10.2004567,40.3335591-4.1240472,50.5328189,13.5393701,4.9397008,8.5574803,6.2532441,18.5269449,3.6949764,28.0712283-2.5567717,9.5442835-8.6783622,17.5212913-17.2355433,22.462189-5.6994016,3.2907402-12.0253543,4.9720157-18.4362835,4.9720157ZM67.4639291,260.4591969c-2.7204409,0-5.4743937.6911811-7.9958583,2.1465512v.0002992c-3.7126299,2.1432598-6.3672441,5.6036535-7.477622,9.7441575-1.1088819,4.1405039-.540378,8.4650236,1.604378,12.1770551,2.1432598,3.7126299,5.6027559,6.3681417,9.7432598,7.4773228,4.1390079,1.1097795,8.4650236.5406772,12.1773543-1.6031811,3.7126299-2.1432598,6.3672441-5.6039528,7.477622-9.7444567,1.1088819-4.1405039.5388819-8.4650236-1.604378-12.1770551-2.9687874-5.1422677-8.3743622-8.0206929-13.9247559-8.0206929ZM54.2318504,253.5366142h.0290236-.0290236Z"/>
  <path class="st0" d="M199.9998504,390c-20.3970236,0-36.992252-16.5946299-36.992252-36.9928504,0-20.397622,16.5952283-36.9925512,36.992252-36.9925512s36.9925512,16.5949291,36.9925512,36.9925512c0,20.3982205-16.5955276,36.9928504-36.9925512,36.9928504ZM199.9998504,336.9594803c-8.8492126,0-16.0473701,7.1990551-16.0473701,16.0476693,0,8.8489134,7.1981575,16.0479685,16.0473701,16.0479685,8.8495118,0,16.0476693-7.1990551,16.0476693-16.0479685,0-8.8486142-7.1981575-16.0476693-16.0476693-16.0476693Z"/>
  <path class="st0" d="M332.4454094,313.4889449c-6.2720945,0-12.621685-1.5936063-18.4335906-4.948378v-.0002992c-8.5568819-4.9408976-14.6784724-12.9179055-17.2352441-22.462189-2.5582677-9.5442835-1.2447244-19.513748,3.6946772-28.0712283,4.9397008-8.5568819,12.9182047-14.677874,22.4630866-17.2355433,9.5430866-2.5582677,19.5116535-1.2450236,28.0700315,3.6961732,8.5571811,4.9402992,14.6787717,12.9173071,17.2355433,22.4615906,2.5582677,9.5448819,1.2447244,19.513748-3.6949764,28.0712283-6.8447874,11.8533071-19.3054961,18.4886457-32.0995276,18.4886457ZM324.4842598,290.4014016c7.666126,4.4250551,17.4970551,1.7889921,21.9209134-5.8741417,2.1447559-3.7120315,2.7132598-8.0365512,1.6040787-12.1770551-1.1100787-4.1405039-3.7649921-7.6008976-7.4773228-9.7441575-3.7123307-2.1441575-8.0413386-2.7117638-12.1773543-1.6034803-4.1405039,1.1091811-7.6,3.7646929-9.7435591,7.4767244-2.1432598,3.7126299-2.7129606,8.0371496-1.6040787,12.1776535,1.110378,4.1405039,3.7649921,7.6011969,7.4773228,9.7450551v-.0005984Z"/>
  <path class="st0" d="M332.5680866,160.5051339c-3.2126457,0-6.4474331-.4224882-9.633748-1.2764409-9.5448819-2.5573701-17.5233858-8.6786614-22.4630866-17.2361417-4.9394016-8.5568819-6.2529449-18.5263465-3.6946772-28.0706299,2.5567717-9.5442835,8.6783622-17.5212913,17.2352441-22.462189,17.6664094-10.1992598,40.3338583-4.1234488,50.5331181,13.5399685,4.9397008,8.5574803,6.2532441,18.5266457,3.6949764,28.0712283-2.5567717,9.543685-8.6783622,17.5212913-17.2355433,22.4618898h0c-5.6994016,3.2907402-12.0268504,4.972315-18.4362835,4.972315ZM332.4804173,107.4520472c-2.7204409,0-5.4758898.6911811-7.9961575,2.1465512-3.7123307,2.1432598-6.3669449,5.6039528-7.4773228,9.7444567-1.1088819,4.1405039-.5391811,8.4650236,1.6040787,12.1770551,2.1435591,3.7126299,5.6030551,6.3681417,9.7435591,7.4773228,4.1390079,1.1091811,8.4650236.5406772,12.1773543-1.6031811v-.0002992c3.7123307-2.1432598,6.3672441-5.6036535,7.4773228-9.7441575,1.1091811-4.1405039.5406772-8.4650236-1.6040787-12.1770551-2.9687874-5.1425669-8.3743622-8.0206929-13.9247559-8.0206929Z"/>
  <path class="st0" d="M199.9998504,239.2764409c-21.6564094,0-39.2758425-17.6194331-39.2758425-39.2764409s17.6194331-39.2764409,39.2758425-39.2764409,39.2761417,17.6194331,39.2761417,39.2764409-17.6197323,39.2764409-39.2761417,39.2764409ZM199.9998504,181.6684409c-10.1071024,0-18.3309606,8.2235591-18.3309606,18.3315591s8.2238583,18.3315591,18.3309606,18.3315591c10.1074016,0,18.3312598-8.2235591,18.3312598-18.3315591s-8.2238583-18.3315591-18.3312598-18.3315591Z"/>
  <path class="st0" d="M199.9998504,181.6684409c-5.7840787,0-10.4724409-4.6886614-10.4724409-10.4724409v-97.6830394c0-5.7837795,4.6883622-10.4724409,10.4724409-10.4724409s10.4724409,4.6886614,10.4724409,10.4724409v97.6830394c0,5.7837795-4.6883622,10.4724409-10.4724409,10.4724409Z"/>
  <path class="st0" d="M175.044622,196.0722362c-1.7764252,0-3.5764882-.4527087-5.2260472-1.4048031l-84.5960787-48.8413701c-5.0085197-2.8918898-6.7251024-9.2965354-3.833811-14.3056535,2.8927874-5.0085197,9.2992283-6.7245039,14.306252-3.8332126l84.5960787,48.8410709c5.0085197,2.892189,6.7251024,9.2968346,3.833811,14.3059528-1.9403937,3.3595591-5.4612283,5.2380157-9.0802047,5.2380157Z"/>
  <path class="st0" d="M90.4688898,273.7176063c-3.6204724,0-7.139811-1.8781575-9.0802047-5.2380157-2.8912913-5.0091181-1.1747087-11.4137638,3.833811-14.3056535l84.5960787-48.8413701c5.0112126-2.8915906,11.4149606-1.1753071,14.306252,3.8335118s1.1747087,11.4134646-3.833811,14.3056535l-84.5960787,48.8410709c-1.6495591.9517953-3.449622,1.4048031-5.2260472,1.4048031Z"/>
  <path class="st0" d="M199.9998504,336.9594803c-5.7840787,0-10.4724409-4.6886614-10.4724409-10.4724409v-97.6830394c0-5.7837795,4.6883622-10.4724409,10.4724409-10.4724409s10.4724409,4.6886614,10.4724409,10.4724409v97.6830394c0,5.7837795-4.6883622,10.4724409-10.4724409,10.4724409Z"/>
  <path class="st0" d="M309.5311102,273.7176063c-1.7767244,0-3.5764882-.4524094-5.2260472-1.4048031l-84.5960787-48.8410709c-5.0085197-2.892189-6.7251024-9.2968346-3.833811-14.3056535,2.8942835-5.0088189,9.2977323-6.7251024,14.306252-3.8335118l84.5960787,48.8413701c5.0082205,2.8918898,6.7251024,9.2965354,3.8335118,14.3056535-1.9400945,3.3595591-5.4609291,5.2380157-9.0799055,5.2380157Z"/>
  <path class="st0" d="M224.955378,196.0722362c-3.6204724,0-7.1401102-1.8781575-9.0802047-5.2380157-2.8912913-5.0091181-1.1747087-11.4137638,3.833811-14.3059528l84.5960787-48.8410709c5.0112126-2.8912913,11.4134646-1.1759055,14.3059528,3.8332126,2.8915906,5.0091181,1.1747087,11.4137638-3.8335118,14.3056535l-84.5960787,48.8413701c-1.6495591.9517953-3.449622,1.4048031-5.2260472,1.4048031Z"/>
</svg>