<svg width="44" height="26" viewBox="0 0 44 26" fill="none" xmlns="http://www.w3.org/2000/svg">
<g clip-path="url(#clip0_25_1205)">
<path d="M12.5055 9.4858C12.5055 10.0144 12.5634 10.4429 12.6647 10.7572C12.7805 11.0715 12.9252 11.4144 13.1279 11.7858C13.2002 11.9001 13.2292 12.0144 13.2292 12.1144C13.2292 12.2572 13.1423 12.4001 12.9542 12.5429L12.0423 13.1429C11.9121 13.2287 11.7818 13.2715 11.666 13.2715C11.5213 13.2715 11.3765 13.2001 11.2318 13.0715C11.0292 12.8572 10.8555 12.6287 10.7108 12.4001C10.566 12.1572 10.4213 11.8858 10.2621 11.5572C9.13312 12.8715 7.7147 13.5287 6.0068 13.5287C4.79102 13.5287 3.82128 13.1858 3.11207 12.5001C2.40286 11.8144 2.04102 10.9001 2.04102 9.75723C2.04102 8.54294 2.47523 7.55723 3.35812 6.81437C4.24102 6.07151 5.41338 5.70008 6.90417 5.70008C7.39628 5.70008 7.90286 5.74294 8.43838 5.81437C8.97391 5.8858 9.52391 6.00008 10.1029 6.12866V5.0858C10.1029 4.00008 9.87128 3.24294 9.42259 2.80008C8.95944 2.35723 8.17786 2.14294 7.06338 2.14294C6.5568 2.14294 6.03575 2.20008 5.50023 2.32866C4.9647 2.45723 4.44365 2.61437 3.93707 2.81437C3.70549 2.91437 3.53181 2.97151 3.43049 3.00008C3.32917 3.02866 3.25681 3.04294 3.19891 3.04294C2.99628 3.04294 2.89496 2.90008 2.89496 2.60008V1.90008C2.89496 1.67151 2.92391 1.50008 2.99628 1.40008C3.06865 1.30008 3.19891 1.20008 3.40154 1.10008C3.90812 0.842941 4.51602 0.628655 5.22523 0.457227C5.93444 0.271512 6.68707 0.185798 7.48312 0.185798C9.20549 0.185798 10.4647 0.571512 11.2752 1.34294C12.0713 2.11437 12.4765 3.2858 12.4765 4.85723V9.4858H12.5055ZM6.62917 11.6572C7.1068 11.6572 7.59891 11.5715 8.11996 11.4001C8.64102 11.2287 9.10417 10.9144 9.49496 10.4858C9.72654 10.2144 9.90023 9.91437 9.98707 9.57151C10.0739 9.22866 10.1318 8.81437 10.1318 8.32866V7.72866C9.71207 7.62866 9.26338 7.54294 8.80023 7.4858C8.33707 7.42866 7.88838 7.40008 7.4397 7.40008C6.46996 7.40008 5.76075 7.5858 5.28312 7.97151C4.80549 8.35723 4.57391 8.90008 4.57391 9.61437C4.57391 10.2858 4.74759 10.7858 5.10944 11.1287C5.4568 11.4858 5.96338 11.6572 6.62917 11.6572ZM18.2515 13.2001C17.991 13.2001 17.8173 13.1572 17.7015 13.0572C17.5858 12.9715 17.4844 12.7715 17.3976 12.5001L13.9963 1.45723C13.9094 1.17151 13.866 0.985798 13.866 0.885798C13.866 0.657227 13.9818 0.528655 14.2134 0.528655H15.6318C15.9068 0.528655 16.095 0.571512 16.1963 0.671512C16.3121 0.757227 16.3989 0.957227 16.4858 1.22866L18.9173 10.6858L21.1752 1.22866C21.2476 0.942941 21.3344 0.757227 21.4502 0.671512C21.566 0.585798 21.7686 0.528655 22.0292 0.528655H23.1871C23.4621 0.528655 23.6502 0.571512 23.766 0.671512C23.8818 0.757227 23.9831 0.957227 24.041 1.22866L26.3279 10.8001L28.8318 1.22866C28.9186 0.942941 29.02 0.757227 29.1213 0.671512C29.2371 0.585798 29.4252 0.528655 29.6858 0.528655H31.0318C31.2634 0.528655 31.3936 0.642941 31.3936 0.885798C31.3936 0.957227 31.3792 1.02866 31.3647 1.11437C31.3502 1.20008 31.3213 1.31437 31.2634 1.47151L27.7752 12.5144C27.6884 12.8001 27.5871 12.9858 27.4713 13.0715C27.3555 13.1572 27.1673 13.2144 26.9213 13.2144H25.6765C25.4015 13.2144 25.2134 13.1715 25.0976 13.0715C24.9818 12.9715 24.8805 12.7858 24.8226 12.5001L22.5792 3.2858L20.3502 12.4858C20.2779 12.7715 20.191 12.9572 20.0752 13.0572C19.9594 13.1572 19.7568 13.2001 19.4963 13.2001H18.2515ZM36.8502 13.5858C36.0976 13.5858 35.345 13.5001 34.6213 13.3287C33.8976 13.1572 33.3331 12.9715 32.9568 12.7572C32.7252 12.6287 32.566 12.4858 32.5081 12.3572C32.4502 12.2287 32.4213 12.0858 32.4213 11.9572V11.2287C32.4213 10.9287 32.5371 10.7858 32.7542 10.7858C32.841 10.7858 32.9279 10.8001 33.0147 10.8287C33.1015 10.8572 33.2318 10.9144 33.3765 10.9715C33.8686 11.1858 34.4042 11.3572 34.9686 11.4715C35.5476 11.5858 36.1121 11.6429 36.691 11.6429C37.6029 11.6429 38.3121 11.4858 38.8042 11.1715C39.2963 10.8572 39.5568 10.4001 39.5568 9.81437C39.5568 9.41437 39.4265 9.0858 39.166 8.81437C38.9055 8.54294 38.4134 8.30008 37.7042 8.07151L35.6055 7.42866C34.5489 7.10008 33.7673 6.61437 33.2897 5.97151C32.8121 5.34294 32.566 4.64294 32.566 3.90008C32.566 3.30008 32.6963 2.77151 32.9568 2.31437C33.2173 1.85723 33.5647 1.45723 33.9989 1.14294C34.4331 0.814369 34.9252 0.571512 35.5042 0.400084C36.0831 0.228655 36.691 0.157227 37.3279 0.157227C37.6463 0.157227 37.9792 0.171512 38.2976 0.214369C38.6305 0.257227 38.9344 0.314369 39.2384 0.371512C39.5279 0.442941 39.8029 0.514369 40.0634 0.600084C40.3239 0.685798 40.5265 0.771512 40.6713 0.857227C40.8739 0.971512 41.0186 1.0858 41.1055 1.21437C41.1923 1.32866 41.2358 1.4858 41.2358 1.6858V2.35723C41.2358 2.65723 41.12 2.81437 40.9029 2.81437C40.7871 2.81437 40.5989 2.75723 40.3529 2.64294C39.5279 2.27151 38.6015 2.0858 37.5739 2.0858C36.7489 2.0858 36.0976 2.21437 35.6489 2.4858C35.2002 2.75723 34.9686 3.17151 34.9686 3.75723C34.9686 4.15723 35.1134 4.50008 35.4029 4.77151C35.6923 5.04294 36.2279 5.31437 36.995 5.55723L39.0502 6.20008C40.0923 6.52866 40.845 6.9858 41.2936 7.57151C41.7423 8.15723 41.9594 8.82866 41.9594 9.57151C41.9594 10.1858 41.8292 10.7429 41.5831 11.2287C41.3226 11.7144 40.9752 12.1429 40.5265 12.4858C40.0779 12.8429 39.5423 13.1001 38.92 13.2858C38.2686 13.4858 37.5884 13.5858 36.8502 13.5858Z" fill="#ff9319"/>
<path fill-rule="evenodd" clip-rule="evenodd" d="M39.5853 20.5287C34.8235 24.0001 27.9051 25.8429 21.9564 25.8429C13.6195 25.8429 6.10769 22.8001 0.434003 17.7429C-0.0146813 17.3429 0.390582 16.8001 0.926108 17.1144C7.06295 20.6287 14.6327 22.7572 22.4629 22.7572C27.7458 22.7572 33.5498 21.6715 38.8906 19.4429C39.6866 19.0858 40.3669 19.9572 39.5853 20.5287Z" fill="#ff9319"/>
<path fill-rule="evenodd" clip-rule="evenodd" d="M41.5686 18.3001C40.9607 17.5287 37.5449 17.9287 35.9962 18.1144C35.5331 18.1715 35.4607 17.7715 35.8805 17.4715C38.6015 15.5858 43.0739 16.1287 43.5949 16.7572C44.116 17.4001 43.4502 21.8144 40.9028 23.9287C40.512 24.2572 40.1357 24.0858 40.3094 23.6572C40.8883 22.2429 42.1765 19.0572 41.5686 18.3001Z" fill="#ff9319"/>
</g>
<defs>
<clipPath id="clip0_25_1205">
<rect width="44" height="26" fill="#ff9319"/>
</clipPath>
</defs>
</svg>
