<?xml version="1.0" encoding="UTF-8"?>
<svg id="_레이어_2" data-name="레이어_2" xmlns="http://www.w3.org/2000/svg" version="1.1" viewBox="0 0 400 400">
  <!-- Generator: Adobe Illustrator 29.8.2, SVG Export Plug-In . SVG Version: 2.1.1 Build 3)  -->
  <defs>
    <style>
      .st0 {
        fill: #2563eb;
      }
    </style>
  </defs>
  <path class="st0" d="M273.1278956,31.3677521c-3.8998448,1.5799443-6.4296965,5.3197623-6.4296965,9.5395997v42.2480542H20.2895652c-5.6697828,0-10.2895652,4.6197823-10.2895652,10.2895041,0,5.6797311,4.6197823,10.2995134,10.2895652,10.2995134h256.6981381c5.6797311,0,10.2995134-4.6197823,10.2995134-10.2995134v-27.1187461l78.0764211,80.646249-78.0764211,80.6363007v-27.1187461c0-5.6397549-4.5897544-10.2595372-10.2295093-10.2895041l-143.7733464-.9199405v-42.30811c0-4.2197764-2.5299128-7.9595943-6.4297576-9.5395387-3.9097931-1.5799443-8.3295724-.6499334-11.2594301,2.3798953L12.8998909,245.8678826c-1.869909,1.9299038-2.8998909,4.4797741-2.8998909,7.1597044,0,2.6898175,1.0299819,5.2297396,2.8998909,7.1596434l102.6952823,106.0651222c2.9298577,3.0298287,7.3496371,3.9597786,11.2594301,2.3798953,3.8998448-1.5799443,6.4297576-5.3197623,6.4297576-9.5395997v-42.2480542h246.408634c5.6697218,0,10.2895041-4.6197823,10.2895041-10.2895041,0-5.6797311-4.6197823-10.2995134-10.2895041-10.2995134H122.9847864c-5.6697218,0-10.2895041,4.6197823-10.2895041,10.2995134v27.1187461l-78.0764211-80.646249,78.0764211-80.6363007v27.1187461c0,5.6397549,4.5898155,10.2595372,10.2295093,10.2895041l143.7734075.9099923v42.3180583c0,4.2197764,2.5298517,7.9595943,6.4296965,9.5395387,3.9097931,1.5799443,8.3296334.6499334,11.2594912-2.3798953l102.6952823-106.0551129c3.8897745-4.0198344,3.8897745-10.3095227,0-14.3193478l-102.6952823-106.0651222c-2.9298577-3.0298287-7.3496981-3.9597786-11.2594912-2.3798953Z"/>
</svg>