<?xml version="1.0" encoding="UTF-8"?>
<svg xmlns="http://www.w3.org/2000/svg" version="1.1" viewBox="0 0 400 400">
  <defs>
    <style>
      .cls-1 {
        fill: #2563eb;
      }
    </style>
  </defs>
  <!-- Generator: Adobe Illustrator 28.7.10, SVG Export Plug-In . SVG Version: 1.2.0 Build 236)  -->
  <g>
    <g id="_레이어_7">
      <g>
        <path class="cls-1" d="M322.9699707,103.0450134l-18.8899536,93.0899658c-1.0800171,5.2999878-5.7800293,9.1500244-11.1800537,9.1500244-.7599487,0-1.5299683-.0800171-2.2799683-.2300415-6.1699829-1.25-10.1699829-7.289978-8.9199829-13.4599609l18.8899536-93.0900269c.6100464-2.9899902,2.3400269-5.5599976,4.8800049-7.25,2.5500488-1.6799927,5.6000366-2.2699585,8.5800171-1.6699829,2.9899902.6099854,5.5599976,2.3400269,7.25,4.8900146,1.6799927,2.539978,2.2800293,5.5799561,1.6699829,8.5700073Z"/>
        <path class="cls-1" d="M265.4699707,168.0549622c2.2399902,2.0600586,3.5400391,4.8800049,3.6700439,7.9300537.1300049,3.039978-.9400024,5.9599609-3.0100098,8.1999512-2.1500244,2.3400269-5.2200317,3.6900024-8.4000244,3.6900024-2.8699951,0-5.6199951-1.0799561-7.7299805-3.0199585l-31.6500244-29.1300049c-2.3399658-2.1600342-3.6799927-5.2200317-3.6799927-8.4000244,0-3.1900024,1.3400269-6.25,3.6799927-8.3999634l31.6500244-29.1400146c2.2399902-2.0599976,5.1599731-3.1300049,8.2000122-3,3.0499878.1199951,5.8699951,1.4299927,7.9299927,3.6699829,2.0700073,2.2399902,3.1400146,5.1600342,3.0100098,8.210022-.1300049,3.039978-1.4300537,5.8599854-3.6700439,7.9199829l-22.5299683,20.7399902,22.5299683,20.7299805Z"/>
        <path class="cls-1" d="M390,147.3249817c0,3.1799927-1.3400269,6.2399902-3.6799927,8.4000244l-31.6500244,29.1300049c-2.1099854,1.9400024-4.8599854,3.0199585-7.7299805,3.0199585-3.1799927,0-6.25-1.3499756-8.4000244-3.6900024-2.0700073-2.2399902-3.1300049-5.1599731-3.0100098-8.1999512.1300049-3.0500488,1.4299927-5.8699951,3.6799927-7.9300537l22.5200195-20.7299805-22.5200195-20.7399902c-2.25-2.0599976-3.5499878-4.8800049-3.6799927-7.9199829-.1199951-3.0499878.9400024-5.9700317,3.0100098-8.210022,2.0599976-2.2399902,4.8800049-3.5499878,7.9299927-3.6699829,3.0400391-.1400146,5.960022.9400024,8.2000122,3l31.6500244,29.1400146c2.3399658,2.1499634,3.6799927,5.2099609,3.6799927,8.3999634Z"/>
      </g>
      <g>
        <path class="cls-1" d="M132.5499878,42.4250183c-34.1099854,0-61.8699951,27.7599487-61.8699951,61.8799438,0,34.1200562,27.7600098,61.8700562,61.8699951,61.8700562,34.1199951,0,61.8800049-27.75,61.8800049-61.8700562,0-34.1199951-27.7600098-61.8799438-61.8800049-61.8799438ZM132.5499878,143.3450012c-21.5200195,0-39.039978-17.5200195-39.039978-39.0400391,0-21.5299683,17.5199585-39.039978,39.039978-39.039978,21.5300293,0,39.0499878,17.5100098,39.0499878,39.039978,0,21.5200195-17.5199585,39.0400391-39.0499878,39.0400391Z"/>
        <path class="cls-1" d="M292.8800049,244.35495c-2.1199951-3.1799927-5.6700439-5.0799561-9.5-5.0799561h-31.8200073c-9.4299927-29.2600098-36.7700195-49.6300049-68.2999878-49.6300049h-101.4400024c-39.6000366,0-71.8200073,32.210022-71.8200073,71.8200073v59.0199585c0,20.4400024,16.6300049,37.0700073,37.0700073,37.0800171l49.7299805.0100098h146.8499756c4.6300049,0,8.7600098-2.7600098,10.5400391-7.0300293l39.7299805-95.4699707c1.4700317-3.5300293,1.0800171-7.539978-1.039978-10.7200317ZM83.8999634,293.644989c-.5299683-.0300293-.9799805-.6199951-.9899902-1.3300171l-.2999878-19.3399658c-.0499878-3.0600586-1.2700195-5.9100342-3.4400024-8.0200195-2.1799927-2.1300049-5.0800171-3.2700195-8.1499634-3.2200317-6.3000488.1000366-11.3400269,5.3000488-11.2400513,11.5900269l.3000488,19.3499756c.1900024,12.6799927,10.1399536,23.1199951,22.6299438,23.7700195l13.7900391.7199707-7.3099976,17.5700073-42.1199951-.0099487c-7.8500366,0-14.2300415-6.3900146-14.2300415-14.2400513v-59.0199585c0-27.0100098,21.9700317-48.9899902,48.9800415-48.9899902h101.4400024c18.8699951,0,35.5499878,10.7000122,43.6900024,26.7999878h-90.4200439c-4.6300049,0-8.7699585,2.7600098-10.539978,7.0299683l-20.1799927,48.4800415-21.9100342-1.1400146ZM236.0299683,334.7349548h-122.1099854l9.8200073-23.6099854c.0499878-.0999756.0900269-.2000122.1300049-.2999878l20.2700195-48.7200317h122.1199951l-30.2300415,72.6300049Z"/>
      </g>
    </g>
  </g>
</svg>