<?xml version="1.0" encoding="UTF-8"?>
<svg id="_레이어_3" data-name="레이어_3" xmlns="http://www.w3.org/2000/svg" version="1.1" viewBox="0 0 400 400">
  <!-- Generator: Adobe Illustrator 29.8.2, SVG Export Plug-In . SVG Version: 2.1.1 Build 3)  -->
  <defs>
    <style>
      .st0 {
        fill: #8434f5;
      }
    </style>
  </defs>
  <path class="st0" d="M200,10c-40.1428464,0-72.8058191,35.2663738-72.8058191,78.6134485,0,43.3470136,32.6629727,78.6034256,72.8058191,78.6034256s72.8058191-35.256412,72.8058191-78.6034256c0-43.3470747-32.6629727-78.6134485-72.8058191-78.6134485ZM200,146.4895891c-28.7077563,0-52.0685112-25.964156-52.0685112-57.8761406s23.3607549-57.8762017,52.0685112-57.8762017,52.0685112,25.9642172,52.0685112,57.8762017-23.3607549,57.8761406-52.0685112,57.8761406Z"/>
  <path class="st0" d="M340.4948592,338.1217416l-12.9370053-93.2927976c-1.8724589-13.5578173-10.9544161-25.0930147-23.7012298-30.1095641l-51.5177377-20.2766798c-33.7444128-13.2875031-70.9233373-13.2875031-104.677773,0l-51.5177377,20.2766798c-12.7468136,5.0165495-21.8287709,16.5517469-23.7012298,30.1195871l-12.9370053,93.2827747c-1.712275,12.3862929,2.7736691,24.8126164,12.0057873,33.243754.8311107.76095,1.7823745,1.3718001,2.8136998,1.8323671l35.9573465,15.8508735c.0600766.0300077.1301762.0600766.1902528.0901455.1601839.0700384.310406.1301151.4705899.1901917,1.1415166.4306203,2.3731176.6709267,3.6647952.6709267h170.7847754c.3604596,0,.7108963-.0200459,1.071356-.0600766.1802909-.010023.3605208-.0400918.5307276-.0700996.1802298-.0200459.3604596-.0600766.5306665-.0901455.170268-.0400307.3504978-.0800614.5207047-.1301762.1702069-.0400307.3404748-.0900844.5106817-.150161.3304519-.1001684.6608427-.2303446.9812716-.3704826.0600766-.0200459.1201532-.0501148.1802298-.0801225l35.9573465-15.8508735c1.0313253-.4506051,1.9825891-1.0714171,2.8136998-1.8323671,9.2321182-8.4311375,13.7180623-20.8574611,12.0057873-33.243754ZM119.4840849,285.943039h161.0318303l-4.9064192,83.3196531H124.3905041l-4.9064192-83.3196531ZM315.5720514,354.9939174l-18.8347802,8.3009003,5.1267408-87.1146245c.160245-2.8336846-.8611184-5.6473844-2.8136998-7.720119s-4.6961816-3.2542819-7.5398892-3.2542819H108.4895769c-2.8437075,0-5.5873078,1.1815473-7.5398892,3.2542819s-2.9739448,4.8864344-2.8036768,7.720119l5.1267408,87.1146245-18.8448031-8.3009003c-3.4945884-3.8049944-5.0967331-8.8816815-4.3757527-14.0284683l12.9269823-93.2827136c.8510954-6.1581272,4.9765799-11.3949983,10.7541404-13.6680086l51.5177988-20.2766798c28.8579783-11.3649294,60.6397868-11.3549065,89.4977651,0l51.5177988,20.2766798c5.7775605,2.2730103,9.903045,7.5098814,10.7541404,13.6680086l12.9269823,93.2827136c.7209804,5.1467867-.8711414,10.2234739-4.3757527,14.0284683Z"/>
</svg>