<?xml version="1.0" encoding="UTF-8"?>
<svg id="_레이어_3" data-name="레이어_3" xmlns="http://www.w3.org/2000/svg" version="1.1" viewBox="0 0 400 400">
  <!-- Generator: Adobe Illustrator 29.8.2, SVG Export Plug-In . SVG Version: 2.1.1 Build 3)  -->
  <defs>
    <style>
      .st0 {
        fill: #8434f5;
      }
    </style>
  </defs>
  <path class="st0" d="M233.5827244,310.732748H28.149937c-10.0062677,0-18.1472441-8.1406772-18.1472441-18.1469449V66.7042283c0-10.0062677,8.1409764-18.1469449,18.1472441-18.1469449h284.7037795c10.0065669,0,18.1472441,8.1406772,18.1472441,18.1469449v127.2910236c0,5.7840787-4.6886614,10.4724409-10.4724409,10.4724409s-10.4724409-4.6883622-10.4724409-10.4724409v-124.4930866H30.9475748v220.2857008h202.6351496c5.7834803,0,10.4724409,4.6883622,10.4724409,10.4724409s-4.6889606,10.4724409-10.4724409,10.4724409Z"/>
  <path class="st0" d="M320.5315118,134.5677402H20.4724409c-5.7837795,0-10.4724409-4.6883622-10.4724409-10.4724409s4.6886614-10.4724409,10.4724409-10.4724409h300.0590709c5.7834803,0,10.4724409,4.6883622,10.4724409,10.4724409s-4.6889606,10.4724409-10.4724409,10.4724409Z"/>
  <path class="st0" d="M323.6570866,351.4427165c-36.5814331,0-66.3429134-29.7611811-66.3429134-66.3426142,0-36.5817323,29.7614803-66.3432126,66.3429134-66.3432126,36.5817323,0,66.3429134,29.7614803,66.3429134,66.3432126,0,36.5814331-29.7611811,66.3426142-66.3429134,66.3426142ZM323.6570866,239.7017717c-25.0324252,0-45.3980315,20.3656063-45.3980315,45.3983307,0,25.032126,20.3656063,45.3977323,45.3980315,45.3977323s45.3980315-20.3656063,45.3980315-45.3977323c0-25.0327244-20.3656063-45.3983307-45.3980315-45.3983307Z"/>
  <path class="st0" d="M315.0858425,310.290811h0c-2.7775906,0-5.4414803-1.1037953-7.4055118-3.0675276l-12.2934488-12.2940472c-4.0896378-4.0902362-4.0893386-10.7210866.0002992-14.8104252,4.0905354-4.0893386,10.721685-4.0893386,14.8104252,0l4.8882362,4.8885354,22.0307244-22.0304252c4.0893386-4.0893386,10.720189-4.0893386,14.810126,0,4.089937,4.0893386,4.089937,10.720189,0,14.8104252l-29.4356378,29.435937c-1.9640315,1.9637323-4.6279213,3.0675276-7.4052126,3.0675276Z"/>
  <g>
    <path class="st0" d="M118.3670236,251.6250945c-2.6803465,0-5.3600945-1.0221102-7.4049134-3.0672283l-31.1139213-31.1142205c-4.0896378-4.0902362-4.0896378-10.720189,0-14.810126l31.1139213-31.1142205c4.0893386-4.0893386,10.7198898-4.0893386,14.810126,0,4.0896378,4.0893386,4.0896378,10.7198898,0,14.810126l-23.7087087,23.7090079,23.7087087,23.7090079c4.0896378,4.0902362,4.0896378,10.7210866,0,14.8104252-2.0448189,2.0445197-4.7251654,3.0672283-7.4052126,3.0672283Z"/>
    <path class="st0" d="M222.6363307,251.6250945c-2.6800472,0-5.3603937-1.0227087-7.4049134-3.0672283-4.0896378-4.0893386-4.0896378-10.7210866,0-14.8104252l23.7090079-23.7090079-23.7090079-23.7090079c-4.0896378-4.0893386-4.0896378-10.7207874,0-14.810126,4.0893386-4.0893386,10.7207874-4.0893386,14.810126,0l31.1142205,31.1142205c4.0896378,4.0893386,4.0896378,10.7207874,0,14.810126l-31.1142205,31.1142205c-2.0448189,2.0445197-4.7248661,3.0672283-7.4052126,3.0672283Z"/>
    <path class="st0" d="M159.4285669,269.8241024c-.8165512,0-1.6456693-.095748-2.4738898-.2965197-5.6213071-1.3617165-9.0742205-7.0225197-7.7125039-12.6435276l22.1632756-91.4950236c1.3611181-5.6222047,7.0219213-9.0772126,12.6435276-7.7128031,5.6210079,1.3617165,9.0742205,7.0222205,7.7125039,12.6435276l-22.1632756,91.4950236c-1.1609449,4.7927874-5.4474646,8.0093228-10.1696378,8.0093228Z"/>
  </g>
</svg>