<?xml version="1.0" encoding="UTF-8"?>
<svg id="_레이어_4" data-name="레이어_4" xmlns="http://www.w3.org/2000/svg" version="1.1" viewBox="0 0 400 400">
  <!-- Generator: Adobe Illustrator 29.8.2, SVG Export Plug-In . SVG Version: 2.1.1 Build 3)  -->
  <defs>
    <style>
      .st0 {
        fill: #ff9319;
      }
    </style>
  </defs>
  <path class="st0" d="M337.460022,10H62.539978c-8.1499634,0-14.7799683,6.6300049-14.7799683,14.7799683v350.4400024c0,8.1500244,6.6300049,14.7800293,14.7799683,14.7800293h274.9200439c8.1499634,0,14.7799683-6.6300049,14.7799683-14.7800293V24.7799683c0-8.1499634-6.6300049-14.7799683-14.7799683-14.7799683ZM331.6599731,369.4199829H68.3400269V30.5799561h263.3199463v338.8400269Z"/>
  <path class="st0" d="M305.1400146,46.7999878H94.8599854c-5.7799683,0-10.4799805,4.6199951-10.4799805,10.289978v68.8300171c0,5.6699829,4.7000122,10.289978,10.4799805,10.289978h210.2800293c5.7799683,0,10.4799805-4.6199951,10.4799805-10.289978V57.0899658c0-5.6699829-4.7000122-10.289978-10.4799805-10.289978ZM294.6699829,115.6300049H105.3300171v-48.2399902h189.3399658v48.2399902Z"/>
  <path class="st0" d="M148.1099854,149.0799561h-53.4299927c-5.6799927,0-10.2999878,4.6200562-10.2999878,10.3000488v43.9699707c0,5.6699829,4.6199951,10.2900391,10.2999878,10.2900391h53.4299927c5.6700439,0,10.2900391-4.6200562,10.2900391-10.2900391v-43.9699707c0-5.6799927-4.6199951-10.3000488-10.2900391-10.3000488ZM137.8099976,193.0499878h-32.8400269v-23.3800049h32.8400269v23.3800049Z"/>
  <path class="st0" d="M226.710022,149.0799561h-53.4299927c-5.6700439,0-10.2900391,4.6200562-10.2900391,10.3000488v43.9699707c0,5.6699829,4.6199951,10.2900391,10.2900391,10.2900391h53.4299927c5.6799927,0,10.2999878-4.6200562,10.2999878-10.2900391v-43.9699707c0-5.6799927-4.6199951-10.3000488-10.2999878-10.3000488ZM183.5800171,193.0499878v-23.3800049h32.8399658v23.3800049h-32.8399658Z"/>
  <path class="st0" d="M305.3200073,149.0799561h-53.4299927c-5.6700439,0-10.2900391,4.6200562-10.2900391,10.3000488v43.9699707c0,5.6699829,4.6199951,10.2900391,10.2900391,10.2900391h53.4299927c5.6799927,0,10.2999878-4.6200562,10.2999878-10.2900391v-43.9699707c0-5.6799927-4.6199951-10.3000488-10.2999878-10.3000488ZM262.1900024,193.0499878v-23.3800049h32.8400269v23.3800049h-32.8400269Z"/>
  <path class="st0" d="M148.1099854,218.8599854h-53.4299927c-5.6799927,0-10.2999878,4.6199951-10.2999878,10.2999878v43.9700317c0,5.6699829,4.6199951,10.289978,10.2999878,10.289978h53.4299927c5.6700439,0,10.2900391-4.6199951,10.2900391-10.289978v-43.9700317c0-5.6799927-4.6199951-10.2999878-10.2900391-10.2999878ZM104.9699707,262.8299561v-23.3799438h32.8400269v23.3799438h-32.8400269Z"/>
  <path class="st0" d="M226.710022,218.8599854h-53.4299927c-5.6700439,0-10.2900391,4.6199951-10.2900391,10.2999878v43.9700317c0,5.6699829,4.6199951,10.289978,10.2900391,10.289978h53.4299927c5.6799927,0,10.2999878-4.6199951,10.2999878-10.289978v-43.9700317c0-5.6799927-4.6199951-10.2999878-10.2999878-10.2999878ZM183.5800171,262.8299561v-23.3799438h32.8399658v23.3799438h-32.8399658Z"/>
  <path class="st0" d="M305.3200073,218.8599854h-53.4299927c-5.6700439,0-10.2900391,4.6199951-10.2900391,10.2999878v113.75c0,5.6699829,4.6199951,10.2900391,10.2900391,10.2900391h53.4299927c5.6799927,0,10.2999878-4.6200562,10.2999878-10.2900391v-113.75c0-5.6799927-4.6199951-10.2999878-10.2999878-10.2999878ZM262.1900024,332.6199951v-93.1699829h32.8400269v93.1699829h-32.8400269Z"/>
  <path class="st0" d="M148.1099854,288.6400146h-53.4299927c-5.6799927,0-10.2999878,4.6199951-10.2999878,10.2999878v43.9699707c0,5.6699829,4.6199951,10.2900391,10.2999878,10.2900391h53.4299927c5.6700439,0,10.2900391-4.6200562,10.2900391-10.2900391v-43.9699707c0-5.6799927-4.6199951-10.2999878-10.2900391-10.2999878ZM104.9699707,332.6199951v-23.3900146h32.8400269v23.3900146h-32.8400269Z"/>
  <path class="st0" d="M226.710022,288.6400146h-53.4299927c-5.6700439,0-10.2900391,4.6199951-10.2900391,10.2999878v43.9699707c0,5.6699829,4.6199951,10.2900391,10.2900391,10.2900391h53.4299927c5.6799927,0,10.2999878-4.6200562,10.2999878-10.2900391v-43.9699707c0-5.6799927-4.6199951-10.2999878-10.2999878-10.2999878ZM183.5800171,332.6199951v-23.3900146h32.8399658v23.3900146h-32.8399658Z"/>
</svg>