<?xml version="1.0" encoding="UTF-8"?>
<svg id="_레이어_4" data-name="레이어_4" xmlns="http://www.w3.org/2000/svg" version="1.1" viewBox="0 0 400 400">
  <!-- Generator: Adobe Illustrator 29.8.2, SVG Export Plug-In . SVG Version: 2.1.1 Build 3)  -->
  <defs>
    <style>
      .st0 {
        fill: #ff9319;
      }
    </style>
  </defs>
  <g>
    <path class="st0" d="M152.5664625,142.5753129c-81.1855896,0-142.4077304-28.4972846-142.4077304-66.2875069S71.3808729,10,152.5664625,10s142.4077304,28.4975839,142.4077304,66.2878061-61.2221408,66.2875069-142.4077304,66.2875069ZM152.5664625,30.9448654c-69.5178035,0-121.462865,23.9387843-121.462865,45.3429407,0,21.4038572,51.9450615,45.3426415,121.462865,45.3426415s121.462865-23.9387843,121.462865-45.3426415c0-21.4041564-51.9450615-45.3429407-121.462865-45.3429407Z"/>
    <path class="st0" d="M63.8320442,128.108096h-.0293228c-5.7840742,0-10.4724327-4.6886577-10.4724327-10.4724327,0-5.7834758,4.6883585-10.4724327,10.4724327-10.4724327s10.4870941,4.6889569,10.4870941,10.4724327c0,5.783775-4.6736971,10.4724327-10.4577713,10.4724327Z"/>
    <path class="st0" d="M152.5634704,225.2159723c-34.1230755,0-66.9691126-5.382232-92.4892343-15.1551062-31.4005422-12.1234865-49.0938669-29.7632522-49.8945591-49.708449-.0350078-.4685666-.0451811-.9173851-.0451811-1.4071957,0-5.783775,4.6883585-10.4724327,10.4724327-10.4724327,5.7774915,0,10.4622595,4.6784845,10.4724327,10.4532831.0116693.1522991.019748.3045982.0242362.4574957.3351178,10.7991726,13.9759103,22.4358406,36.4874516,31.1276605,23.1614306,8.8695521,53.347769,13.7598789,84.9724213,13.7598789,12.7129349,0,25.1057125-.7794482,36.8348371-2.3168013,5.7350034-.7498262,10.9924638,3.2880447,11.7440852,9.0227488.7516215,5.7350034-3.2880447,10.9930622-9.0224496,11.7446837-12.6279586,1.6549436-25.9369245,2.4942343-39.5564728,2.4942343ZM31.046448,158.5712058c.0008976.0020945.0008976.0047874.0008976.0071811,0-.0023937,0-.0050866-.0008976-.0071811ZM31.0449519,158.5565444c.0008976.0038898.0008976.0077795.0014961.0116693-.0005984-.0038898-.0005984-.0077795-.0014961-.0116693Z"/>
    <path class="st0" d="M241.3185344,128.108096h-.0293228c-5.7840742,0-10.4724327-4.6886577-10.4724327-10.4724327,0-5.7834758,4.6883585-10.4724327,10.4724327-10.4724327s10.4870941,4.6889569,10.4870941,10.4724327c0,5.783775-4.6736971,10.4724327-10.4577713,10.4724327Z"/>
    <path class="st0" d="M152.5634704,307.8865528c-34.1236739,0-66.9706087-5.382232-92.4892343-15.1554054-31.4005422-12.1234865-49.0938669-29.764449-49.8945591-49.7096459-.0350078-.4679681-.0451811-.915889-.0451811-1.4054005,0-5.783775,4.6883585-10.4724327,10.4724327-10.4724327,5.7774915,0,10.4622595,4.6781853,10.4724327,10.4532831.0116693.1519999.019748.304299.0242362.4571965.3351178,10.7991726,13.9759103,22.4355414,36.4883492,31.1276605,24.4489414,9.3638509,56.8407741,14.2344297,90.2598029,13.7030286,5.7182475-.1241731,10.5454405,4.5196027,10.6387948,10.3024801.0927558,5.7834758-4.5196027,10.5466374-10.3027793,10.6393932-1.8745655.0302204-3.7497293.0598425-5.6242948.0598425ZM20.6069287,241.6161011l10.4724327.1220786c0-.0409921-.0014961-.081685-.0029921-.1220786h-10.4694406ZM31.0793614,241.6161011h.0299212-.0299212ZM31.046448,241.2402904c.0008976.0035905.0008976.0074803.0014961.0113701-.0005984-.0038898-.0005984-.0077795-.0014961-.0113701ZM31.0449519,241.227125c.0008976.0038898.0008976.0083779.0014961.0122677-.0005984-.0038898-.0005984-.0083779-.0014961-.0122677Z"/>
    <path class="st0" d="M134.1783668,390c-.2061573,0-.4126138-.0059842-.6217633-.018252-72.6691081-4.2527053-123.4221075-31.2673927-123.4221075-65.6950664,0-5.783775,4.6883585-10.4724327,10.4724327-10.4724327s10.4724327,4.6886577,10.4724327,10.4724327c0,18.6199853,39.6477326,41.037574,103.7016191,44.7861065,5.773901.3378108,10.1804014,5.2924683,9.8428899,11.0663692-.3258423,5.5653499-4.9420906,9.8608426-10.4455036,9.8608426Z"/>
    <path class="st0" d="M20.6311649,334.7483427c-5.7840742,0-10.4724327-4.6886577-10.4724327-10.4724327V76.2878061c0-5.783775,4.6883585-10.4724327,10.4724327-10.4724327s10.4724327,4.6886577,10.4724327,10.4724327v247.9881039c0,5.783775-4.6883585,10.4724327-10.4724327,10.4724327Z"/>
    <path class="st0" d="M284.490091,132.4535571c-5.7840742,0-10.4724327-4.6886577-10.4724327-10.4724327v-45.7064837c0-5.783775,4.6883585-10.4724327,10.4724327-10.4724327s10.4724327,4.6886577,10.4724327,10.4724327v45.7064837c0,5.783775-4.6883585,10.4724327-10.4724327,10.4724327Z"/>
  </g>
  <g>
    <path class="st0" d="M223.5330523,324.9476418c-2.6803443,0-5.3603895-1.0221094-7.4052068-3.0672259-4.0899338-4.0893354-4.0899338-10.7204797,0-14.8101143l25.4046257-25.4052241c4.0893354-4.0893354,10.720779-4.090233,14.8101143,0,4.0899338,4.0893354,4.0899338,10.7201805,0,14.8101143l-25.4046257,25.4052241c-2.0445181,2.0445181-4.7248624,3.0672259-7.4049076,3.0672259Z"/>
    <path class="st0" d="M186.9130497,384.6279412c-6.4261839,0-12.4681792-2.5029114-17.0117189-7.0461519l-9.4745595-9.4742603c-4.5444374-4.5444374-7.0464511-10.5861334-7.0464511-17.0120181,0-6.4261839,2.5020138-12.4675807,7.0464511-17.0117189l31.7509199-31.7509199c4.5429413-4.5438389,10.5849365-7.0464511,17.0111205-7.0464511s12.4681792,2.5026122,17.0120181,7.0464511l9.4736618,9.4742603c9.3803076,9.3803076,9.3803076,24.6431302,0,34.0234378l-31.7503215,31.7506207c-4.5435397,4.5441382-10.585535,7.0467504-17.0111205,7.0467504ZM209.1888117,316.2312864c-.5879523,0-1.446991.1579841-2.2001085.9114009l-31.7518175,31.7512191c-.7540152.7537159-.9117001,1.6133531-.9117001,2.2016046s.1576849,1.4475894.9117001,2.2013054l9.4745595,9.473961v.0002992c1.2139046,1.2133061,3.1884069,1.2127077,4.4026107,0l31.7503215-31.7506207c1.2142038-1.2142038,1.2142038-3.1890054,0-4.4032091l-9.4736618-9.4742603c-.7540152-.7534167-1.6130538-.9117001-2.2019038-.9117001Z"/>
    <path class="st0" d="M302.9739347,321.9249985c-23.2093046,0-45.0293661-9.0380086-61.4414634-25.4498067-33.8783198-33.8789182-33.8783198-89.0040087,0-122.8829269,16.4114989-16.4114989,38.2321589-25.4501059,61.4414634-25.4501059,23.2102022,0,45.0302638,9.0386071,61.4414634,25.4501059,16.4123965,16.4114989,25.4501059,38.2318597,25.4501059,61.4417626,0,23.2078085-9.0401031,45.0296653-25.4501059,61.4411642h0c-.0005984.0008976.0008976-.0008976,0,0-16.4111997,16.4117981-38.2312612,25.4498067-61.4414634,25.4498067ZM302.9739347,169.0870243c-17.6143326,0-34.1757369,6.8597426-46.6313491,19.3153549-25.712216,25.7125152-25.712216,67.550183,0,93.2626982,12.4556122,12.4556122,29.0170165,19.3150557,46.6313491,19.3150557,17.6152302,0,34.1757369-6.8594434,46.6313491-19.3150557h0c12.4559115-12.4559115,19.3153549-29.0164181,19.3153549-46.6310499,0-17.6152302-6.8594434-34.1757369-19.3153549-46.6316483-12.4556122-12.4556122-29.0161189-19.3153549-46.6313491-19.3153549Z"/>
  </g>
</svg>