<?xml version="1.0" encoding="UTF-8"?>
<svg id="_레이어_2" data-name="레이어_2" xmlns="http://www.w3.org/2000/svg" version="1.1" viewBox="0 0 400 400">
  <!-- Generator: Adobe Illustrator 29.8.2, SVG Export Plug-In . SVG Version: 2.1.1 Build 3)  -->
  <defs>
    <style>
      .st0 {
        fill: #2563eb;
      }
    </style>
  </defs>
  <path class="st0" d="M354.5679718,110.923658v-.0299679c-.5699998-10.9899065-1.1699675-22.3497423-1.0699932-32.4796138.0399775-5.1999437-3.8099474-9.6298781-8.959904-10.2898425-50.6392868-6.6098983-97.1986712-25.4796449-138.4181601-56.1092465-3.6599249-2.689967-8.5799041-2.689967-12.2598483.0199582-41.18946,30.6096433-87.7588541,49.4793899-138.3881922,56.0892882-5.1599052.6599645-9.0098301,5.0898988-8.9698526,10.2998522.0999743,10.1098522-.4999934,21.4796976-1.0699932,32.499572-1.8999384,36.6594904-4.2699633,82.2789458,13.7998061,130.1383009,21.0297524,55.7192369,65.2991889,103.9286241,135.3582639,147.4080319,1.6299224.9999868,3.4999539,1.5300091,5.4099019,1.5300091s3.7799795-.5300223,5.4299212-1.5499674c70.0390557-43.4594497,114.3084922-91.6688368,135.3382446-147.3880737,18.0697694-47.8593551,15.6997444-93.4788105,13.7998061-130.1383009M200,367.5502834C57.4518894,276.6714753,62.3718075,181.5427232,65.9817453,111.9636224l.0200193-.4099677c.4399966-8.4599106.859974-16.5298116,1.0200061-24.3096774,48.239355-7.639914,92.9287689-25.8696544,132.9782293-54.2292663,40.0494604,28.3596119,84.7388743,46.5893523,132.9782293,54.2292663.1600321,7.7599076.5800095,15.8097894,1.0099965,24.239671l.0300289.4899838c3.6099378,69.5690912,8.5298559,164.6978433-134.0182547,255.5766514Z"/>
  <path class="st0" d="M305.6685914,118.7635816c-.2199678-4.5499889-3.3399218-8.3499267-7.7599076-9.469907-32.5595688-8.1898946-63.709122-21.1697041-92.5987562-38.579509-3.2699765-1.9799544-7.3498788-1.9799544-10.6198553,0-28.8896342,17.4098049-60.0391874,30.3896145-92.5987562,38.5895187-4.4199857,1.1099707-7.5399398,4.9099085-7.7599076,9.4498878-1.8099737,35.5295004-2.3099671,67.7190789,9.8098684,101.9486697,14.0098253,39.5594766,43.4094015,74.9689834,89.8688116,108.2685327,1.7599866,1.2499835,3.8299667,1.9200187,5.9899114,1.9200187s4.2299248-.6700351,5.999921-1.9300283c46.4494005-33.2895396,75.8489767-68.6990465,89.858802-108.2585231,12.1198355-34.2195811,11.6198421-66.4191693,9.8098684-101.93866ZM200,307.8510574c-88.7888088-66.319134-87.9988412-129.2782658-85.4888644-180.5376006,29.8696018-8.1999042,58.5891943-20.2397237,85.4888644-35.8295453,26.8996702,15.5898216,55.6192627,27.629641,85.4888644,35.8295453,2.5099767,51.2493251,3.309954,114.2184666-85.4888644,180.5376006Z"/>
  <path class="st0" d="M258.6292328,169.602878l-55.7092883,55.7092883c-1.9399769,1.9399769-4.519899,3.0099701-7.2698628,3.0099701-2.7599734,0-5.3399565-1.0699932-7.2799334-3.0199798l-26.6796413-26.6696317c-4.009957-4.009957-4.009957-10.5399003,0-14.5598058,1.9399769-1.9399769,4.5299086-3.0099701,7.2798724-3.0099701s5.3399565,1.0699932,7.2799334,3.0199187l19.3997689,19.3897593,48.4293549-48.4293549c1.9399769-1.9399769,4.519899-3.0099701,7.2798724-3.0099701,2.7499638,0,5.3299469,1.0699932,7.2799334,3.0099701,4.009957,4.0199666,4.009957,10.5398392-.0100096,14.5598058Z"/>
</svg>