<?xml version="1.0" encoding="UTF-8"?>
<svg id="_레이어_2" data-name="레이어_2" xmlns="http://www.w3.org/2000/svg" version="1.1" viewBox="0 0 400 400">
  <!-- Generator: Adobe Illustrator 29.8.2, SVG Export Plug-In . SVG Version: 2.1.1 Build 3)  -->
  <defs>
    <style>
      .st0 {
        fill: #2563eb;
      }
    </style>
  </defs>
  <path class="st0" d="M200,10C95.2299805,10,10,95.2299805,10,200c0,104.7699585,85.2299805,190,190,190s190-85.2300415,190-190c0-104.7700195-85.2299805-190-190-190ZM200,369.4199829c-93.4199829,0-169.4199829-76-169.4199829-169.4199829C30.5800171,106.5799561,106.5800171,30.5799561,200,30.5799561s169.4199829,76,169.4199829,169.4200439c0,93.4199829-76,169.4199829-169.4199829,169.4199829Z"/>
  <path class="st0" d="M210.289978,53.3699951v24.6900024c0,5.6699829-4.6199951,10.289978-10.289978,10.289978s-10.289978-4.6199951-10.289978-10.289978v-24.6900024c0-5.6799927,4.6199951-10.2900391,10.289978-10.2900391s10.289978,4.6100464,10.289978,10.2900391Z"/>
  <path class="st0" d="M121.0499878,121.0499878c-1.9500122,1.9400024-4.5299683,3.0100098-7.2799683,3.0100098s-5.3400269-1.0700073-7.2800293-3.0100098l-17.4500122-17.460022c-4.0099487-4.0100098-4.0099487-10.539978,0-14.5499878,1.9400024-1.9400024,4.5300293-3.0200195,7.2800293-3.0200195s5.3300171,1.0800171,7.2799683,3.0200195l17.4500122,17.460022c4.0100098,4.0100098,4.0100098,10.539978,0,14.5499878Z"/>
  <path class="st0" d="M88.3499756,200c0,5.6699829-4.6199951,10.289978-10.2999878,10.289978h-24.6799927c-5.6699829,0-10.289978-4.6199951-10.289978-10.289978,0-5.6700439,4.6199951-10.2900391,10.289978-10.2900391h24.6799927c5.6799927,0,10.2999878,4.6199951,10.2999878,10.2900391Z"/>
  <path class="st0" d="M121.0499878,293.5l-17.4599609,17.4599609c-1.9400024,1.9400024-4.5200195,3.0100098-7.2700195,3.0100098s-5.3400269-1.0700073-7.2800293-3.0100098c-4.0099487-4.0099487-4.0099487-10.539978,0-14.5499878l17.4500122-17.4599609c1.9500122-1.9400024,4.5300293-3.0200195,7.2800293-3.0200195s5.3299561,1.0800171,7.2799683,3.0200195c4.0100098,4.0099487,4.0100098,10.539978,0,14.5499878Z"/>
  <path class="st0" d="M210.289978,321.9400024v24.6900024c0,5.6799927-4.6199951,10.289978-10.289978,10.289978s-10.289978-4.6099854-10.289978-10.289978v-24.6900024c0-5.6700439,4.6199951-10.2900391,10.289978-10.2900391s10.289978,4.6199951,10.289978,10.2900391Z"/>
  <path class="st0" d="M310.960022,310.9599609c-1.9500122,1.9500122-4.5300293,3.0100098-7.2800293,3.0100098s-5.3300171-1.0700073-7.2799683-3.0100098l-17.4500122-17.4599609c-4.0100098-4.0100098-4.0100098-10.5400391,0-14.5499878,1.9400024-1.9400024,4.5299683-3.0200195,7.2799683-3.0200195s5.3400269,1.0800171,7.2800293,3.0200195l17.4500122,17.4599609c4.0099487,4.0100098,4.0099487,10.5400391,0,14.5499878Z"/>
  <path class="st0" d="M356.9199829,200c0,5.6699829-4.6099854,10.289978-10.289978,10.289978h-24.6799927c-5.6799927,0-10.2999878-4.6199951-10.2999878-10.289978,0-5.6700439,4.6199951-10.2900391,10.2999878-10.2900391h24.6799927c5.6799927,0,10.289978,4.6199951,10.289978,10.2900391Z"/>
  <path class="st0" d="M310.960022,103.5899658l-17.4500122,17.460022c-1.9400024,1.9400024-4.5300293,3.0100098-7.2800293,3.0100098s-5.3299561-1.0700073-7.2799683-3.0100098c-4.0100098-4.0100098-4.0100098-10.539978,0-14.5499878l17.4599609-17.460022c1.9400024-1.9400024,4.5200195-3.0200195,7.2700195-3.0200195s5.3400269,1.0800171,7.2800293,3.0200195c4.0099487,4.0100098,4.0099487,10.539978,0,14.5499878Z"/>
  <path class="st0" d="M210.289978,117.0599976v82.9400024c0,2.75-1.0700073,5.3299561-3.0099487,7.2799683l-37.7700195,37.7700195c-1.9400024,1.9400024-4.5300293,3.0100098-7.2800293,3.0100098s-5.3299561-1.0700073-7.2699585-3.0100098c-4.0200195-4.0200195-4.0200195-10.5499878-.0100098-14.5599976l34.7600098-34.75v-78.6799927c0-5.6799927,4.6199951-10.2900391,10.289978-10.2900391s10.289978,4.6100464,10.289978,10.2900391Z"/>
</svg>