<?xml version="1.0" encoding="UTF-8"?>
<svg id="_레이어_1" data-name="레이어_1" xmlns="http://www.w3.org/2000/svg" version="1.1" viewBox="0 0 400 400">
  <!-- Generator: Adobe Illustrator 29.8.2, SVG Export Plug-In . SVG Version: 2.1.1 Build 3)  -->
  <defs>
    <style>
      .st0 {
        fill: #09bc4b;
      }
    </style>
  </defs>
  <path class="st0" d="M200.0067323,142.3991811c-76.2052598,0-157.1973228-23.2012441-157.1973228-66.1995906S123.8014724,10,200.0067323,10s157.1970236,23.2012441,157.1970236,66.1995906-80.9917638,66.1995906-157.1970236,66.1995906ZM200.0067323,30.9448819c-84.4171496,0-136.2524409,26.357937-136.2524409,45.2547087,0,18.8970709,51.8352913,45.2547087,136.2524409,45.2547087,84.4174488,0,136.2521417-26.3576378,136.2521417-45.2547087,0-18.8967717-51.8346929-45.2547087-136.2521417-45.2547087Z"/>
  <path class="st0" d="M101.3255197,127.9549921h-.0326142c-5.7837795,0-10.4724409-4.6886614-10.4724409-10.4724409,0-5.7834803,4.6886614-10.4724409,10.4724409-10.4724409s10.4885984,4.6889606,10.4885984,10.4724409c0,5.7837795-4.6722047,10.4724409-10.4559843,10.4724409Z"/>
  <path class="st0" d="M200.0163071,224.9169291c-37.6921102,0-73.9512913-5.3349606-102.0991181-15.0228661-35.5503465-12.2955433-55.1209449-30.4673228-55.1209449-51.1731339,0-5.7837795,4.6889606-10.4724409,10.4724409-10.4724409,5.7837795,0,10.4724409,4.6886614,10.4724409,10.4724409,0,10.6037953,15.7131496,22.6252598,41.0073858,31.3736378,25.996189,8.9473543,59.8353386,13.8774803,95.2677953,13.8774803,35.411811,0,69.2389921-4.930126,95.2501417-13.8825669,25.2792756-8.7432913,40.9924252-20.7647559,40.9924252-31.3685512,0-5.7837795,4.6886614-10.4724409,10.4724409-10.4724409s10.4724409,4.6886614,10.4724409,10.4724409c0,20.705811-19.5705984,38.8775906-55.1059843,51.1680472-28.1624882,9.6929921-64.4105984,15.0279528-102.0814646,15.0279528Z"/>
  <path class="st0" d="M298.7070945,127.9549921h-.0326142c-5.7834803,0-10.4724409-4.6886614-10.4724409-10.4724409,0-5.7834803,4.6889606-10.4724409,10.4724409-10.4724409,5.7837795,0,10.4885984,4.6889606,10.4885984,10.4724409,0,5.7837795-4.6722047,10.4724409-10.4559843,10.4724409Z"/>
  <path class="st0" d="M200.0163071,307.4586142c-37.6921102,0-73.9512913-5.3352598-102.0991181-15.0231654-35.5503465-12.2952441-55.1209449-30.4670236-55.1209449-51.1731339,0-5.7837795,4.6889606-10.4724409,10.4724409-10.4724409,5.7837795,0,10.4724409,4.6886614,10.4724409,10.4724409,0,10.6037953,15.7131496,22.6255591,41.0073858,31.3736378,25.996189,8.9473543,59.8353386,13.8777795,95.2677953,13.8777795,35.411811,0,69.2389921-4.9304252,95.2501417-13.8828661,25.2792756-8.7429921,40.9924252-20.7647559,40.9924252-31.3685512,0-5.7837795,4.6886614-10.4724409,10.4724409-10.4724409s10.4724409,4.6886614,10.4724409,10.4724409c0,20.7061102-19.5705984,38.8778898-55.1059843,51.1680472-28.1624882,9.6929921-64.4105984,15.028252-102.0814646,15.028252Z"/>
  <path class="st0" d="M200.0163071,390c-76.2163307,0-157.220063-23.2003465-157.220063-66.196,0-5.7837795,4.6889606-10.4724409,10.4724409-10.4724409,5.7837795,0,10.4724409,4.6886614,10.4724409,10.4724409,0,18.8952756,51.8436693,45.2511181,136.2751811,45.2511181,84.4114646,0,136.2425669-26.3558425,136.2425669-45.2511181,0-5.7837795,4.6886614-10.4724409,10.4724409-10.4724409s10.4724409,4.6886614,10.4724409,10.4724409c0,42.9956535-80.9869764,66.196-157.1874488,66.196Z"/>
  <path class="st0" d="M53.2818504,334.2701575c-5.7837795,0-10.4724409-4.6886614-10.4724409-10.4724409V76.1995906c0-5.7837795,4.6886614-10.4724409,10.4724409-10.4724409s10.4724409,4.6886614,10.4724409,10.4724409v247.598126c0,5.7837795-4.6886614,10.4724409-10.4724409,10.4724409Z"/>
  <path class="st0" d="M346.731315,334.2701575c-5.7837795,0-10.4724409-4.6886614-10.4724409-10.4724409V76.1995906c0-5.7837795,4.6886614-10.4724409,10.4724409-10.4724409s10.4724409,4.6886614,10.4724409,10.4724409v247.598126c0,5.7837795-4.6886614,10.4724409-10.4724409,10.4724409Z"/>
</svg>