<?xml version="1.0" encoding="UTF-8"?>
<svg id="_레이어_1" data-name="레이어_1" xmlns="http://www.w3.org/2000/svg" version="1.1" viewBox="0 0 400 400">
  <!-- Generator: Adobe Illustrator 29.8.2, SVG Export Plug-In . SVG Version: 2.1.1 Build 3)  -->
  <defs>
    <style>
      .st0 {
        fill: #09bc4b;
      }
    </style>
  </defs>
  <path class="st0" d="M367.8803328,23.4862805h-169.6234826c-12.1934111,0-22.1098003,9.9262561-22.1098003,22.1196672v1.4095793H63.1435428c-16.0673024,0-29.1380231,13.0608538-29.1380231,29.1182893v217.7367685l-22.6026628,56.087766c-2.405171,5.9636231-1.6856111,12.715814,1.9123085,18.0387521,3.5978595,5.3327448,9.5910832,8.5166167,16.0278349,8.5166167h334.6240337c6.4367517,0,12.4201086-3.1838719,16.0278951-8.5166167,3.5978595-5.3328049,4.3076126-12.075129,1.9024417-18.0387521l-22.5731223-56.018758v-112.6683342h8.5560842c12.1934111,0,22.1196672-9.9262561,22.1196672-22.1196672V45.6059477c0-12.1934111-9.9262561-22.1196672-22.1196672-22.1196672ZM54.4100354,76.1338163c0-4.8103419,3.9132986-8.7137737,8.7335074-8.7137737h113.0035071v91.7315487c0,12.1934111,9.9163892,22.1196672,22.1098003,22.1196672h15.5645731v25.0078337c0,5.8748814,3.5190448,11.1288115,8.9503982,13.3860997,1.7742926.7294869,3.6471938,1.104007,5.5594422,1.104007,3.8542177,0,7.4915447-1.5081277,10.2318284-4.2484715l35.2396621-35.2494688h65.1169788v104.3980885H54.4100354V76.1338163ZM362.3800316,356.109264H30.9300631l20.1580243-50.0354012h291.1239929l20.1679513,50.0354012ZM369.5955445,159.1515914c0,.9462573-.7688942,1.7151515-1.7152117,1.7151515h-96.5320238c-3.8640244,0-7.5013514,1.5081277-10.2416953,4.2386047l-26.8708079,26.8906018v-16.6390397c0-7.994274-6.5058199-14.4901668-14.4901668-14.4901668h-21.4887889c-.9364506,0-1.7053448-.7688942-1.7053448-1.7151515V45.6059477c0-.9463175.7688942-1.7151515,1.7053448-1.7151515h169.6234826c.9463175,0,1.7152117.7688341,1.7152117,1.7151515v113.5456437Z"/>
  <g>
    <path class="st0" d="M293.2708192,100.2840743v1.2518898c0,5.6186435-4.5737174,10.2022278-10.2022278,10.2022278-5.6186435,0-10.2022278-4.5835843-10.2022278-10.2022278v-1.2518898c0-5.6185833,4.5835843-10.2022278,10.2022278-10.2022278,5.6285103,0,10.2022278,4.5836444,10.2022278,10.2022278Z"/>
    <path class="st0" d="M337.7073107,100.2840743v1.2518898c0,5.6186435-4.5737776,10.2022278-10.2022278,10.2022278-5.6285103,0-10.2022879-4.5835843-10.2022879-10.2022278v-1.2518898c0-5.6185833,4.5737776-10.2022278,10.2022879-10.2022278,5.6284502,0,10.2022278,4.5836444,10.2022278,10.2022278Z"/>
    <path class="st0" d="M248.8442548,100.2840743v1.2518898c0,5.6186435-4.5836444,10.2022278-10.2022879,10.2022278-5.6285103,0-10.2022278-4.5835843-10.2022278-10.2022278v-1.2518898c0-5.6185833,4.5737174-10.2022278,10.2022278-10.2022278,5.6186435,0,10.2022879,4.5836444,10.2022879,10.2022278Z"/>
  </g>
</svg>