<?xml version="1.0" encoding="UTF-8"?>
<svg id="_레이어_3" data-name="레이어_3" xmlns="http://www.w3.org/2000/svg" version="1.1" viewBox="0 0 400 400">
  <!-- Generator: Adobe Illustrator 29.8.2, SVG Export Plug-In . SVG Version: 2.1.1 Build 3)  -->
  <defs>
    <style>
      .st0 {
        fill: #8434f5;
      }
    </style>
  </defs>
  <path class="st0" d="M356.8099976,95.1199951c-.1199951-.2900391-.25-.5700073-.4000244-.8400269-.0299683-.0499878-.0499878-.0899658-.0699463-.1399536-.0700073-.1200562-.1400146-.2400513-.210022-.3500366-.0900269-.1400146-.1799927-.2799683-.2700195-.4199829-.3499756-.5100098-.7399902-.9899902-1.1699829-1.4400024-.0200195-.0300293-.0499878-.0599976-.0800171-.0900269L275.7800293,13.0199585c-.2300415-.2299805-.4800415-.4499512-.7300415-.6599731-.2600098-.2199707-.5199585-.4099731-.789978-.5999756-.2800293-.1800537-.5599976-.3500366-.8500366-.5100098-.289978-.1600342-.5899658-.2999878-.8899536-.4299927-.1600342-.0700073-.3200073-.1400146-.4800415-.1900024-.4699707-.1799927-.9599609-.3200073-1.4699707-.4200439-.6699829-.1399536-1.3599854-.2099609-2.0700073-.2099609H56.539978c-7.8099976,0-14.1599731,6.3499756-14.1599731,14.1599731v351.6799927c0,7.8099976,6.3499756,14.1600342,14.1599731,14.1600342h286.9200439c7.8099976,0,14.1599731-6.3500366,14.1599731-14.1600342V99.1199951c0-1.4199829-.289978-2.7700195-.8099976-4ZM278.7999878,45.1400146l43.6900024,43.6899414h-43.6900024v-43.6899414ZM337.039978,369.4199829H62.960022V30.5799561h195.25v68.5400391c0,5.6799927,4.6199951,10.289978,10.289978,10.289978h68.539978v260.0100098Z"/>
  <path class="st0" d="M316.0999756,343.8399658c0,5.6799927-4.6199951,10.3000488-10.289978,10.3000488H94.1900024c-.8800049,0-1.7399902-.1100464-2.5700073-.3300171-.4899902-.1199951-.9699707-.2800293-1.4299927-.4800415-.1500244-.0599976-.2999878-.1299438-.4500122-.2099609-.1499634-.0700073-.2999878-.1500244-.4500122-.2299805-.2799683-.1500244-.5499878-.3100586-.8099976-.4800415-.1499634-.0999756-.289978-.2000122-.4400024-.3200073-.3999634-.2999878-.7699585-.6199951-1.1199951-.9699707-.4599609-.460022-.8899536-.9799805-1.2600098-1.5200195-.1799927-.2799683-.3499756-.5599976-.5099487-.8499756-.1600342-.2900391-.3000488-.5900269-.4300537-.8900146-.0899658-.1799927-.1599731-.3599854-.2199707-.5499878-.1599731-.4500122-.2999878-.9199829-.3900146-1.4000244-.1400146-.6799927-.2099609-1.3699951-.2099609-2.0700073v-106.5100098c0-5.6699829,4.6199951-10.289978,10.289978-10.289978,5.6799927,0,10.289978,4.6199951,10.289978,10.289978v81.6800537l58.6799927-58.6900024c4.0100098-4.0100098,10.5400391-4.0100098,14.5599976,0l38.4700317,38.4699707,82.4000244-82.3999634c1.9400024-1.9400024,4.5299683-3.0200195,7.2799683-3.0200195s5.3300171,1.0800171,7.2700195,3.0200195c4.0199585,4.0099487,4.0199585,10.539978,0,14.5499878l-89.6799927,89.6799927c-1.9400024,1.9500122-4.5200195,3.0200195-7.2700195,3.0200195s-5.3400269-1.0700073-7.2800293-3.0200195l-38.4699707-38.4700317-51.4000244,51.4000244h186.7700195c5.6699829,0,10.289978,4.6199951,10.289978,10.289978Z"/>
  <g>
    <path class="st0" d="M86.9199829,351.1199951h-.0100098c-.4699707-.4700317-.8899536-.9799805-1.25-1.5200195.3700562.5400391.8000488,1.0599976,1.2600098,1.5200195Z"/>
    <path class="st0" d="M88.039978,352.0899658c-.3899536-.289978-.7699585-.6099854-1.1199951-.9699707.3500366.3499756.7200317.6699829,1.1199951.9699707Z"/>
  </g>
  <path class="st0" d="M256.2700195,200c0,5.6699829-4.6100464,10.289978-10.2900391,10.289978H94.1900024c-5.6699829,0-10.289978-4.6199951-10.289978-10.289978,0-5.6700439,4.6199951-10.2900391,10.289978-10.2900391h151.789978c5.6799927,0,10.2900391,4.6199951,10.2900391,10.2900391Z"/>
  <path class="st0" d="M311.1699829,158.9699707c0,5.6799927-4.6199951,10.2999878-10.289978,10.2999878H94.1900024c-5.6699829,0-10.289978-4.6199951-10.289978-10.2999878,0-5.6699829,4.6199951-10.289978,10.289978-10.289978h206.6900024c5.6699829,0,10.289978,4.6199951,10.289978,10.289978Z"/>
  <path class="st0" d="M213.5800171,117.9500122c0,5.6699829-4.6199951,10.289978-10.2900391,10.289978h-109.0999756c-5.6699829,0-10.289978-4.6199951-10.289978-10.289978,0-5.6800537,4.6199951-10.2900391,10.289978-10.2900391h109.0999756c5.6700439,0,10.2900391,4.6099854,10.2900391,10.2900391Z"/>
</svg>