<?xml version="1.0" encoding="UTF-8"?>
<svg id="_레이어_4" data-name="레이어_4" xmlns="http://www.w3.org/2000/svg" version="1.1" viewBox="0 0 400 400">
  <!-- Generator: Adobe Illustrator 29.8.2, SVG Export Plug-In . SVG Version: 2.1.1 Build 3)  -->
  <defs>
    <style>
      .st0 {
        fill: #ff9319;
      }
    </style>
  </defs>
  <g>
    <path class="st0" d="M168.1325058,358.1160491c-43.7609963,0-85.96938-18.3797142-115.8029411-50.4265488-27.2971385-29.3347743-42.3295646-67.5851776-42.3295646-107.7065554,0-40.0992361,15.0324261-78.3376709,42.3295646-107.6709491,29.829073-32.0480314,72.0374567-50.4280449,115.8029411-50.4280449,43.7439412,0,85.9403564,18.3800134,115.7694294,50.4271472,24.8809991,26.7447926,39.8197718,61.501593,42.0680531,97.8699509.3578579,5.772703-4.032185,10.7420209-9.8060848,11.098682-5.7403881.3599524-10.7414225-4.0324842-11.0977844-9.8057856-1.950565-31.5423627-14.912442-61.691892-36.4973184-84.8949086-25.878573-27.8031065-62.4868991-43.7502247-100.4362948-43.7502247-37.9697422,0-74.5912337,15.9471182-100.4713027,43.7526184-23.6769688,25.4432191-36.7163418,58.6138951-36.7163418,93.4015144,0,34.8091626,13.039373,67.9924055,36.7163418,93.4368214,26.2645568,28.2130273,61.9465217,43.7514215,100.4713027,43.7514215.3844878,0,.7671803.0059842,1.1513689-.0164567.1636691-.0092756.3288343-.0152598.4925035-.0170551,22.0696003-.248047,43.9174843-5.8606714,63.1807725-16.2310706,5.0943887-2.7407847,11.443973-.8362984,14.1862538,4.2571927,2.7407847,5.0925934.8342039,11.4433746-4.2574919,14.1850569-22.1704349,11.9352796-47.2893078,18.4099346-72.6583222,18.7297926-.6983615.0326141-1.396723.0374015-2.0950846.0374015Z"/>
    <path class="st0" d="M168.1313089,149.7885849c-42.1308877,0-82.9482333-15.0521742-114.9340286-42.3834229-4.3960272-3.7572089-4.9145621-10.3677063-1.157054-14.7646311,3.7563113-4.3987201,10.3701-4.9136645,14.7649303-1.15855,28.194177,24.0928739,64.1801416,37.3617428,101.3261522,37.3617428,37.123869,0,73.096369-13.2685696,101.2893491-37.3614435,4.4005154-3.7578073,11.0086191-3.2389732,14.7649303,1.1576524,3.7575081,4.3969248,3.2389732,11.0077214-1.157054,14.7649303-31.9842992,27.3315479-72.7884795,42.3837221-114.8972255,42.3837221Z"/>
    <path class="st0" d="M59.999872,311.0266151c-2.9556191,0-5.8923879-1.244424-7.9638347-3.6674452-3.7593034-4.395728-3.2419653-11.0062254,1.1540619-14.7652296,14.9022688-12.7413575,31.6467877-22.835883,49.765888-30.0044114,20.7811921-8.2133777,42.7080682-12.3772162,65.1765185-12.3772162,13.0965225,0,26.1942419,1.4580616,38.9284184,4.3340902,5.6422464,1.2743452,9.1822272,6.8803869,7.9084804,12.5220349-1.274046,5.6437425-6.8872688,9.1807311-12.5223341,7.9084804-11.2219575-2.5349266-22.766765-3.8197443-34.3145647-3.8197443-19.8213191,0-39.1591111,3.6707365-57.4741954,10.909879-15.9611811,6.3136788-30.7174343,15.2122527-43.8576419,26.4467771-1.9736044,1.686959-4.393035,2.5124857-6.8007965,2.5127849Z"/>
    <path class="st0" d="M168.1325058,358.1160491c-30.8182689,0-57.5250615-31.0585364-71.4411265-83.0819812-6.1509073-22.8029697-9.406038-48.7626292-9.406038-75.051123,0-26.1050767,3.2069575-51.9067521,9.2743846-74.6468872.0308189-.1388345.0643306-.2767714.1008345-.412913,13.9570571-51.996815,40.6758182-83.0391939,71.4719454-83.0391939,30.7949303,0,57.5136914,31.0423789,71.4734415,83.0385954.0368031.1388345.071811.2788659.1038267.4188972,6.0309232,22.5444503,9.2363846,48.2554643,9.2713924,74.3856748l-10.4724306.2558265h-10.4724306c-.0320157-24.7062591-3.0256348-48.6899206-8.656212-69.5860102-.038-.1394329-.0730078-.2794643-.1038267-.4200941-11.0349498-40.8059756-31.0869615-67.1480284-51.1437607-67.1480284-20.057996,0-40.1129999,26.3489347-51.1449575,67.1590993-.0308189.1346455-.0628346.2686926-.0978424.4015429-5.6658842,21.0857903-8.6595033,45.1508374-8.6595033,69.5934906,0,24.4725743,3.0052884,48.5459995,8.6900229,69.6171283,10.9807923,41.0564163,31.0812765,67.5711146,51.2122803,67.5711146.3844878,0,.7671803.0059842,1.1513689-.0164567,5.7403881-.3363146,10.7282572,4.0689881,11.0654694,9.8434864.3375115,5.7738998-4.070185,10.7282572-9.8440848,11.0657686-.7905189.0463779-1.5822347.0520629-2.3727536.0520629Z"/>
    <path class="st0" d="M238.5087357,210.4553755H20.4724306c-5.784073,0-10.4724306-4.6886568-10.4724306-10.4724306s4.6883576-10.4724306,10.4724306-10.4724306h218.0363051c5.7843723,0,10.4724306,4.6886568,10.4724306,10.4724306s-4.6880584,10.4724306-10.4724306,10.4724306Z"/>
  </g>
  <path class="st0" d="M285.0694615,355.949752c-50.0612106,0-90.7878949-40.7272827-90.7878949-90.7884933s40.7266843-90.7890917,90.7878949-90.7890917c50.0609114,0,90.789391,40.7278812,90.789391,90.7890917s-40.7284796,90.7884933-90.789391,90.7884933ZM285.0694615,195.3170282c-38.5119149,0-69.8430336,31.3320164-69.8430336,69.8442305,0,38.5119149,31.3311188,69.843632,69.8430336,69.843632s69.8445297-31.3317172,69.8445297-69.843632c0-38.5122141-31.3326148-69.8442305-69.8445297-69.8442305Z"/>
  <path class="st0" d="M282.416346,301.9733485c-2.6809422,0-5.3603884-1.0224084-7.4058037-3.0675245l-26.2819111-26.2819111c-4.0893346-4.0896338-4.0893346-10.7201784,0-14.8101114,4.0908306-4.089933,10.7207768-4.089933,14.8116075,0l18.8761074,18.877005,89.7050456-89.7050456c4.0923267-4.089933,10.7222729-4.0884369,14.8116075,0,4.0893346,4.0896338,4.0893346,10.7204776,0,14.8101114l-97.1108493,97.1099517c-2.0454153,2.0448169-4.7263576,3.0675245-7.4058037,3.0675245Z"/>
</svg>