<?xml version="1.0" encoding="UTF-8"?>
<svg id="_레이어_1" data-name="레이어_1" xmlns="http://www.w3.org/2000/svg" version="1.1" viewBox="0 0 400 400">
  <!-- Generator: Adobe Illustrator 29.8.3, SVG Export Plug-In . SVG Version: 2.1.1 Build 3)  -->
  <defs>
    <style>
      .st0 {
        fill: #2563eb;
      }
    </style>
  </defs>
  <g>
    <path class="st0" d="M199.6400146,10.3599854C94.8699951,10.3599854,9.6400146,95.5999756,9.6400146,200.3599854c0,104.7700195,85.2299805,190,190,190,104.7600098,0,190-85.2299805,190-190,0-104.7600098-85.2399902-190-190-190ZM199.6400146,370.75c-93.960022,0-170.3900146-76.4299927-170.3900146-170.3900146C29.25,106.4099731,105.6799927,29.9699707,199.6400146,29.9699707c93.9500122,0,170.3900146,76.4400024,170.3900146,170.3900146,0,93.960022-76.4400024,170.3900146-170.3900146,170.3900146Z"/>
    <path class="st0" d="M199.6400146,50.3299561c-82.7300415,0-150.0400391,67.3000488-150.0400391,150.0300293s67.3099976,150.039978,150.0400391,150.039978c82.7299805,0,150.0299683-67.3099976,150.0299683-150.039978S282.3699951,50.3299561,199.6400146,50.3299561ZM199.6400146,330.789978c-71.9200439,0-130.4299927-58.5100098-130.4299927-130.4299927,0-71.9099731,58.5099487-130.4199829,130.4299927-130.4199829,71.9099731,0,130.4199829,58.5100098,130.4199829,130.4199829,0,71.9199829-58.5100098,130.4299927-130.4199829,130.4299927Z"/>
  </g>
  <path class="st0" d="M209.4400024,87.7600098v17.4400024c0,5.4099731-4.4000244,9.8099976-9.7999878,9.8099976-5.4100342,0-9.8099976-4.4000244-9.8099976-9.8099976v-17.4400024c0-5.4000244,4.3999634-9.8000488,9.8099976-9.8000488,5.3999634,0,9.7999878,4.4000244,9.7999878,9.8000488Z"/>
  <path class="st0" d="M114.2800293,200.3599854c0,5.4099731-4.4000244,9.8099976-9.8100586,9.8099976h-17.4399414c-5.4000244,0-9.8000488-4.4000244-9.8000488-9.8099976,0-5.4000244,4.4000244-9.7999878,9.8000488-9.7999878h17.4399414c5.4100342,0,9.8100586,4.3999634,9.8100586,9.7999878Z"/>
  <path class="st0" d="M209.4400024,295.5299683v17.4400024c0,5.4000244-4.4000244,9.7999878-9.7999878,9.7999878-5.4100342,0-9.8099976-4.3999634-9.8099976-9.7999878v-17.4400024c0-5.4099731,4.3999634-9.8099976,9.8099976-9.8099976,5.3999634,0,9.7999878,4.4000244,9.7999878,9.8099976Z"/>
  <path class="st0" d="M322.039978,200.3599854c0,5.4099731-4.3999634,9.8099976-9.7999878,9.8099976h-17.4400024c-5.4099731,0-9.8099976-4.4000244-9.8099976-9.8099976,0-5.4000244,4.4000244-9.7999878,9.8099976-9.7999878h17.4400024c5.4000244,0,9.7999878,4.3999634,9.7999878,9.7999878Z"/>
  <path class="st0" d="M279.0499878,120.9500122c-2.9299927-2.9300537-7.4199829-3.710022-11.1499634-1.9200439l-98.1700439,46.7900391c-2.0199585.9699707-3.6699829,2.6099854-4.6300049,4.6399536l-46.789978,98.1600342c-1.789978,3.75-1.0200195,8.2299805,1.9099731,11.1499634,1.8500366,1.8600464,4.3100586,2.8800049,6.9400024,2.8800049,1.4500122,0,2.9200439-.3299561,4.210022-.9499512l98.1699829-46.8000488c2.0300293-.9599609,3.6700439-2.6099854,4.6400146-4.6300049l46.789978-98.1699829c1.7800293-3.7399902,1.0100098-8.2199707-1.9199829-11.1499634ZM147.9099731,252.0899658l33.3900146-70.0599976,70.0599976-33.3899536-33.3900146,70.0599976-70.0599976,33.3899536Z"/>
</svg>