<?xml version="1.0" encoding="UTF-8"?>
<svg id="_레이어_1" data-name="레이어_1" xmlns="http://www.w3.org/2000/svg" version="1.1" viewBox="0 0 400 400">
  <!-- Generator: Adobe Illustrator 29.8.3, SVG Export Plug-In . SVG Version: 2.1.1 Build 3)  -->
  <defs>
    <style>
      .st0 {
        fill: #2563eb;
      }
    </style>
  </defs>
  <path class="st0" d="M370.4700945,358.212252H29.5296063c-10.7686614,0-19.5296063-8.7609449-19.5296063-19.5296063V61.3173543c0-10.7686614,8.7609449-19.5296063,19.5296063-19.5296063h340.9404882c10.7686614,0,19.5299055,8.7609449,19.5299055,19.5296063v277.3652913c0,10.7686614-8.7612441,19.5296063-19.5299055,19.5296063ZM30.9448819,337.2673701h338.1102362V62.7326299H30.9448819v274.5347402Z"/>
  <path class="st0" d="M379.5275591,138.4989449H20.4724409c-5.7837795,0-10.4724409-4.6886614-10.4724409-10.4724409s4.6886614-10.4724409,10.4724409-10.4724409h359.0551181c5.7837795,0,10.4724409,4.6886614,10.4724409,10.4724409s-4.6886614,10.4724409-10.4724409,10.4724409Z"/>
  <g>
    <path class="st0" d="M189.4392913,312.2481102c-.5720945,0-1.1513701-.0466772-1.7342362-.1439213-5.7050866-.9505984-9.5589449-6.3465984-8.6083465-12.051685l21.6731654-130.0398898c.9508976-5.7050866,6.3462992-9.561937,12.051685-8.6080472,5.7050866.9505984,9.5589449,6.3462992,8.6083465,12.051685l-21.6731654,130.0398898c-.8536535,5.1219213-5.2906772,8.7519685-10.3174488,8.7519685Z"/>
    <path class="st0" d="M155.0202677,290.3744724c-2.6803465,0-5.3603937-1.0224094-7.4052126-3.0672283l-39.8063465-39.8066457c-4.0896378-4.0896378-4.0896378-10.720189,0-14.810126l39.8063465-39.8063465c4.0893386-4.089937,10.7207874-4.089937,14.810126,0,4.089937,4.0896378,4.089937,10.7204882,0,14.810126l-32.4011339,32.4014331,32.4011339,32.4011339c4.089937,4.089937,4.089937,10.7204882,0,14.8104252-2.0445197,2.0448189-4.7248661,3.0672283-7.4049134,3.0672283Z"/>
    <path class="st0" d="M244.9794331,290.3744724c-2.6803465,0-5.3603937-1.0224094-7.4052126-3.0672283-4.0896378-4.089937-4.0896378-10.7204882,0-14.8104252l32.4014331-32.4011339-32.4014331-32.4014331c-4.0896378-4.0896378-4.0896378-10.7204882,0-14.810126,4.0893386-4.089937,10.7207874-4.089937,14.810126,0l39.8063465,39.8063465c4.089937,4.089937,4.089937,10.7204882,0,14.810126l-39.8063465,39.8066457c-2.0445197,2.0448189-4.7248661,3.0672283-7.4049134,3.0672283Z"/>
  </g>
  <path class="st0" d="M81.3382677,99.6674331h-9.2112598c-5.7834803,0-10.4724409-4.6886614-10.4724409-10.4724409s4.6889606-10.4724409,10.4724409-10.4724409h9.2112598c5.7837795,0,10.4724409,4.6886614,10.4724409,10.4724409s-4.6886614,10.4724409-10.4724409,10.4724409Z"/>
</svg>