<?xml version="1.0" encoding="UTF-8"?>
<svg id="_레이어_1" data-name="레이어_1" xmlns="http://www.w3.org/2000/svg" version="1.1" viewBox="0 0 400 400">
  <!-- Generator: Adobe Illustrator 29.8.3, SVG Export Plug-In . SVG Version: 2.1.1 Build 3)  -->
  <defs>
    <style>
      .st0 {
        fill: #2563eb;
      }
    </style>
  </defs>
  <path class="st0" d="M346.3349915,10H79.4950256c-19.4900513,0-35.3500366,15.8599854-35.3500366,35.3499756v300.9800415c0,24.0799561,19.5900269,43.6699829,43.6700439,43.6699829h258.5199585c5.25,0,9.5200195-4.2700195,9.5200195-9.5200195V19.5200195c0-5.25-4.2700195-9.5200195-9.5200195-9.5200195ZM63.1850281,45.3499756c0-8.9899902,7.3199463-16.3099976,16.3099976-16.3099976h257.3200073v273.6300049H87.815033c-9.1300049,0-17.6200562,2.8200073-24.6300049,7.6300049V45.3499756ZM336.815033,370.960022H87.815033c-13.5800171,0-24.6300049-11.0500488-24.6300049-24.6300049,0-13.5700073,11.0499878-24.6199951,24.6300049-24.6199951h249v49.25Z"/>
  <path class="st0" d="M293.605011,65.4099731H111.7749939c-5.25,0-9.5200195,4.2700195-9.5200195,9.5200195v69.3599854c0,5.25,4.2700195,9.5200195,9.5200195,9.5200195h181.8300171c5.25,0,9.5200195-4.2700195,9.5200195-9.5200195v-69.3599854c0-5.25-4.2700195-9.5200195-9.5200195-9.5200195ZM121.2950134,134.7700195v-50.3200073h162.789978v50.3200073H121.2950134Z"/>
  <path class="st0" d="M270.3249817,200.5300293c0,5.25-4.2799683,9.5199585-9.5199585,9.5199585h-121.6000366c-5.25,0-9.5199585-4.2699585-9.5199585-9.5199585s4.2699585-9.5200195,9.5199585-9.5200195h121.6000366c5.2399902,0,9.5199585,4.2700195,9.5199585,9.5200195Z"/>
  <path class="st0" d="M245.9549866,249.2600098c0,5.25-4.2699585,9.5200195-9.5199585,9.5200195h-72.8600464c-5.25,0-9.5199585-4.2700195-9.5199585-9.5200195s4.2699585-9.5200195,9.5199585-9.5200195h72.8600464c5.25,0,9.5199585,4.2700195,9.5199585,9.5200195Z"/>
</svg>