<?xml version="1.0" encoding="UTF-8"?>
<svg id="_레이어_7" data-name="레이어_7" xmlns="http://www.w3.org/2000/svg" version="1.1" viewBox="0 0 400 400">
  <!-- Generator: Adobe Illustrator 29.8.3, SVG Export Plug-In . SVG Version: 2.1.1 Build 3)  -->
  <defs>
    <style>
      .st0 {
        fill: #ff9319;
      }
    </style>
  </defs>
  <path class="st0" d="M337.6509092,170.3985641v48.4303147c0,6.3000297-5.1200292,11.4200588-11.410049,11.4200588-6.3000907,0-11.4201199-5.1200292-11.4201199-11.4200588v-48.4303147c0-6.2900809,5.1200292-11.4101101,11.4201199-11.4101101,6.2900199,0,11.410049,5.1200292,11.410049,11.4101101Z"/>
  <path class="st0" d="M267.4704499,76.7579268h-7.5600478l-8.530025-57.0303475c-.460025-3.0100298-2.0500625-5.6800304-4.5000299-7.49004-2.4600383-1.8100096-5.4700681-2.5600146-8.4800979-2.1100604-6.2300219.9300599-10.5400481,6.7500449-9.6100493,12.9801278l8.0300827,53.6503201h-115.0007647l8.0300217-53.6503201c.9299989-6.2300829-3.3800274-12.0500679-9.6000394-12.9801278-3.0200396-.4499542-6.0300694.3000508-8.4800979,2.1100604-2.4499675,1.8200194-4.0500147,4.4800103-4.5000299,7.49004l-8.530025,57.0303475h-7.5700577c-15.8901203,0-28.820199,12.9300787-28.820199,28.820199v188.8512314c0,15.8901203,12.9300787,28.820199,28.820199,28.820199h7.5700577l8.530025,57.0203987c.8300226,5.5500247,5.6700816,9.7300452,11.2700945,9.7300452.5700111,0,1.1400222-.0399783,1.7100333-.1300057,6.2200121-.9299989,10.5300383-6.7500449,9.6000394-12.9800668l-8.0300217-53.6403713h115.0007647l-8.0300827,53.6403713c-.9299989,6.2300219,3.3800274,12.0500679,9.6100493,12.9800668.5600013.0900275,1.1300124.1300057,1.7000235.1300057,5.6000128,0,10.4500817-4.1800205,11.2801043-9.7300452l8.530025-57.0203987h7.5600478c15.8901203,0,28.820199-12.9300787,28.820199-28.820199V105.5781258c0-15.8901203-12.9300787-28.820199-28.820199-28.820199ZM273.4504701,294.4293572c0,3.3000708-2.6800105,5.9800813-5.9800202,5.9800813H91.1692897c-3.3000097,0-5.9800202-2.6800105-5.9800202-5.9800813v-83.0105007h33.370217c4.3500045,0,8.3900094-2.5300461,10.2800366-6.4500551l11.4400785-23.69016,28.990183,53.7803259c1.7600215,3.2700413,5.0200529,5.4800779,8.7100799,5.9200833.4500152.0499881.9000304.0799566,1.3400358.0799566,3.2500216,0,6.3500178-1.3899629,8.5100053-3.8100229l27.9202296-31.2201783h35.9302316c6.3000297,0,11.4200588-5.1200292,11.4200588-11.4101101,0-6.3000297-5.1200292-11.4200588-11.4200588-11.4200588h-41.0303021c-3.2500216,0-6.3500178,1.3900239-8.5100664,3.8100229l-20.4901265,22.9001767-31.8802169-59.1404079c-2.0500014-3.8100229-6.0099887-6.110026-10.3000563-6.0000399-4.3100262.0900275-8.1500176,2.5700244-10.030035,6.4500551l-18.0501689,37.3602338h-26.2001254v-83.0005519c0-3.3000097,2.6800105-5.9900301,5.9800202-5.9900301h176.3011601c3.3000097,0,5.9800202,2.6900203,5.9800202,5.9900301v188.8512314Z"/>
</svg>