<?xml version="1.0" encoding="UTF-8"?>
<svg id="_레이어_4" data-name="레이어_4" xmlns="http://www.w3.org/2000/svg" version="1.1" viewBox="0 0 400 400">
  <!-- Generator: Adobe Illustrator 29.8.3, SVG Export Plug-In . SVG Version: 2.1.1 Build 3)  -->
  <defs>
    <style>
      .st0 {
        fill: #8434f5;
      }
    </style>
  </defs>
  <g>
    <g>
      <path class="st0" d="M125.9324188,345.6355869l.0200195,4v-4h-.0200195Z"/>
      <path class="st0" d="M125.9324188,345.6355869l.0200195,4v-4h-.0200195ZM125.9324188,345.6355869l.0200195,4v-4h-.0200195ZM125.9324188,345.6355869l.0200195,4v-4h-.0200195Z"/>
      <path class="st0" d="M385.6924285,190.2756016c-14.9299927-18.6199951-41.7000122-22.1500244-60.9299927-8.039978l-54.9700317,40.3399658c-5.3199463-8.8900146-15.0299683-14.8499756-26.0999756-14.8499756h-42c-6.2199707,0-12.3099976-2.5300293-16.6900024-6.960022-7.9299927-8-18.9500122-12.5900269-30.2199707-12.5900269h-7.9000244c-15.25,0-29.6099854,5.9700317-40.4299927,16.8200073l-41.8099976,42.0200195c-6.1199951-3.1300049-12.9899902-4.5100098-19.9899902-3.9400024-10.0500488.8099976-19.1900024,5.5100098-25.7300415,13.2299805-13.4199829,15.9000244-11.4799805,39.8000488,4.3200073,53.2800293l56.7999878,48.5100098c6.8099976,5.8299561,15.4700317,9.039978,24.3699951,9.039978,1.0100098,0,2.0400391-.039978,3.0600586-.1300049,10.0499878-.7999878,19.1799927-5.5,25.7199707-13.2199707,9.2700195-10.9500122,11.2299805-25.710022,6.3699951-38.25,6.6699829-.6300049,13.2600098-.9500122,19.6600342-.9500122h39.0999756c37.8499756,0,75.2399902-12.7399902,105.2700195-35.8800049l78.8099976-60.75c4.1900024-3.2299805,6.8399658-7.9099731,7.4599609-13.1699829s-.8599854-10.4100342-4.1699829-14.5100098ZM259.0824432,238.2356236c0,.1399536,0,.2799683-.0100098.4099731-.0300293-.3099976-.0300293-.6099854,0-.9099731.0100098.1599731.0100098.3299561.0100098.5ZM257.0724334,238.6955845c-.0300293-.3300171-.0300293-.6499634,0-.9699707.0100098.1699829.0100098.3399658.0100098.5100098,0,.1499634,0,.3099976-.0100098.4599609ZM118.6623992,341.4756138c-3.2399902,3.8299561-7.75,6.1499634-12.7199707,6.5499878-4.9299927.3999634-9.7399902-1.1600342-13.5300293-4.4000244l-56.8099976-48.5199585c-7.8599854-6.710022-8.8199463-18.6000366-2.1399536-26.5,3.2399902-3.8300171,7.75-6.1500244,12.7199707-6.5500488.4899902-.039978,1-.0599976,1.5100098-.0599976,4.4400024,0,8.5999756,1.5400391,12.0200195,4.460022l56.5999756,48.3499756c.1199951.1100464.2399902.210022.3499756.3000488,7.7400513,6.7399902,8.6500244,18.5199585,2,26.3699951ZM125.9524383,349.6355869l-.0200195-4h.0200195v4ZM370.7724456,202.8855869l-78.8099976,60.7299805c-26.710022,20.5900269-59.9700317,31.9300537-93.6400146,31.9300537h-39.0999756c-7.7400513,0-15.75.4299927-23.8200073,1.2699585l-9.6300049,1.0300293-45.8699951-39.1799927,40.039978-40.2300415c7.210022-7.2399902,16.7800293-11.2199707,26.9400024-11.2199707h7.9000244c6.2299805,0,12.3099976,2.539978,16.6900024,6.9599609,7.9399414,8,18.9499512,12.5900269,30.2199707,12.5900269h42c6.0800171,0,11.0700073,4.8300171,11.3800049,10.8800049-.0100098.0299683-.0100098.0499878,0,.0700073.0100098.1699829.0100098.3499756.0100098.5200195,0,.1799927,0,.3499756-.0100098.5299683v.0599976c-.3099976,6.0499878-5.2999878,10.8699951-11.3800049,10.8699951h-70.2299805c-5.25,0-9.5200195,4.2800293-9.5200195,9.5200195,0,5.25,4.2700195,9.5200195,9.5200195,9.5200195h70.2299805c15.0499878,0,27.5800171-11,30-25.4100342l62.3300171-45.7399902c10.9899902-8.0599976,26.289978-6.0300293,34.8299561,4.6300049.0800171.0899658.1100464.2099609.1000366.3399658-.0200195.1300049-.0800171.2400513-.1799927.3300171Z"/>
    </g>
    <g>
      <path class="st0" d="M259.0824432,238.2356236c0,.1399536,0,.2799683-.0100098.4099731-.0300293-.3099976-.0300293-.6099854,0-.9099731.0100098.1599731.0100098.3299561.0100098.5Z"/>
      <path class="st0" d="M259.0724334,237.7356236c-.0300293.2999878-.0300293.5999756,0,.9099731.0100098-.1300049.0100098-.2700195.0100098-.4099731,0-.1700439,0-.3400269-.0100098-.5ZM257.0724334,238.6955845c.0100098-.1499634.0100098-.3099976.0100098-.4599609,0-.1700439,0-.3400269-.0100098-.5100098-.0300293.3200073-.0300293.6399536,0,.9699707ZM259.0724334,237.7356236c-.0300293.2999878-.0300293.5999756,0,.9099731.0100098-.1300049.0100098-.2700195.0100098-.4099731,0-.1700439,0-.3400269-.0100098-.5ZM257.0724334,238.6955845c.0100098-.1499634.0100098-.3099976.0100098-.4599609,0-.1700439,0-.3400269-.0100098-.5100098-.0300293.3200073-.0300293.6399536,0,.9699707Z"/>
    </g>
    <g>
      <path class="st0" d="M257.0724334,237.7256138c.0100098.1699829.0100098.3399658.0100098.5100098,0,.1499634,0,.3099976-.0100098.4599609-.0300293-.3300171-.0300293-.6499634,0-.9699707Z"/>
      <path class="st0" d="M259.0824432,238.2356236c0,.1399536,0,.2799683-.0100098.4099731-.0300293-.3099976-.0300293-.6099854,0-.9099731.0100098.1599731.0100098.3299561.0100098.5Z"/>
      <path class="st0" d="M257.0724334,237.7256138c-.0300293.3200073-.0300293.6399536,0,.9699707.0100098-.1499634.0100098-.3099976.0100098-.4599609,0-.1700439,0-.3400269-.0100098-.5100098ZM255.0724334,238.7655918c.0100098-.1799927.0100098-.3499756.0100098-.5299683,0-.1700439,0-.3500366-.0100098-.5200195-.0300293.3499756-.0300293.7000122,0,1.0499878ZM255.0724334,237.715604c-.0300293.3499756-.0300293.7000122,0,1.0499878.0100098-.1799927.0100098-.3499756.0100098-.5299683,0-.1700439,0-.3500366-.0100098-.5200195Z"/>
    </g>
  </g>
  <g>
    <path class="st0" d="M26.1000977,148.7042568l38.2402344-52.7998047,12,2.5595703c-1.8154297,2.6679688-3.5478516,4.9604492-5.2001953,6.8803711-1.6547852,1.9199219-3.6547852,3.4150391-6,4.4799805-2.3476562,1.0673828-5.5473633,1.6000977-9.6000977,1.6000977-7.3598633,0-14.0546875-1.7329102-20.0800781-5.2001953-6.0273438-3.4648438-10.8271484-8.1049805-14.3999023-13.9199219-3.574707-5.8125-5.3598633-12.2924805-5.3598633-19.4399414,0-7.5727539,1.9448242-14.3725586,5.8398438-20.4003906,3.8925781-6.0249023,9.1723633-10.7998047,15.840332-14.3198242,6.6645508-3.5200195,14.159668-5.2797852,22.4799805-5.2797852,8.4248047,0,15.9448242,1.7597656,22.5595703,5.2797852,6.612793,3.5200195,11.8652344,8.2949219,15.7602539,14.3198242,3.8925781,6.027832,5.8398438,12.8276367,5.8398438,20.4003906,0,8.9599609-3.0947266,17.9746094-9.2797852,27.0400391l-33.1201172,48.7998047H26.1000977ZM59.8603516,88.2242763c2.6645508,0,5.0395508-.6123047,7.1196289-1.8398438,2.0800781-1.2250977,3.7050781-2.9326172,4.8803711-5.1201172,1.1723633-2.1850586,1.7597656-4.6650391,1.7597656-7.4399414,0-2.7724609-.5874023-5.2524414-1.7597656-7.4399414-1.175293-2.1850586-2.800293-3.8925781-4.8803711-5.1201172-2.0800781-1.2250977-4.4550781-1.8398438-7.1196289-1.8398438-2.6674805,0-5.0400391.6147461-7.1201172,1.8398438-2.0800781,1.2275391-3.7075195,2.9350586-4.8798828,5.1201172-1.175293,2.1875-1.7602539,4.6674805-1.7602539,7.4399414,0,2.7749023.5849609,5.2548828,1.7602539,7.4399414,1.1723633,2.1875,2.7998047,3.8950195,4.8798828,5.1201172,2.0800781,1.2275391,4.4526367,1.8398438,7.1201172,1.8398438Z"/>
    <path class="st0" d="M119.5400391,148.7042568l38.2402344-52.7998047,12,2.5595703c-1.8154297,2.6679688-3.5478516,4.9604492-5.2001953,6.8803711-1.6547852,1.9199219-3.6547852,3.4150391-6,4.4799805-2.3476562,1.0673828-5.5473633,1.6000977-9.6000977,1.6000977-7.3598633,0-14.0546875-1.7329102-20.0800781-5.2001953-6.0273438-3.4648438-10.8271484-8.1049805-14.3999023-13.9199219-3.574707-5.8125-5.3598633-12.2924805-5.3598633-19.4399414,0-7.5727539,1.9448242-14.3725586,5.8398438-20.4003906,3.8925781-6.0249023,9.1723633-10.7998047,15.840332-14.3198242,6.6645508-3.5200195,14.159668-5.2797852,22.4799805-5.2797852,8.4248047,0,15.9448242,1.7597656,22.5595703,5.2797852,6.612793,3.5200195,11.8652344,8.2949219,15.7602539,14.3198242,3.8925781,6.027832,5.8398438,12.8276367,5.8398438,20.4003906,0,8.9599609-3.0947266,17.9746094-9.2797852,27.0400391l-33.1201172,48.7998047h-35.5200195ZM153.300293,88.2242763c2.6645508,0,5.0395508-.6123047,7.1196289-1.8398438,2.0800781-1.2250977,3.7050781-2.9326172,4.8803711-5.1201172,1.1723633-2.1850586,1.7597656-4.6650391,1.7597656-7.4399414,0-2.7724609-.5874023-5.2524414-1.7597656-7.4399414-1.175293-2.1850586-2.800293-3.8925781-4.8803711-5.1201172-2.0800781-1.2250977-4.4550781-1.8398438-7.1196289-1.8398438-2.6674805,0-5.0400391.6147461-7.1201172,1.8398438-2.0800781,1.2275391-3.7075195,2.9350586-4.8798828,5.1201172-1.175293,2.1875-1.7602539,4.6674805-1.7602539,7.4399414,0,2.7749023.5849609,5.2548828,1.7602539,7.4399414,1.1723633,2.1875,2.7998047,3.8950195,4.8798828,5.1201172,2.0800781,1.2275391,4.4526367,1.8398438,7.1201172,1.8398438Z"/>
    <path class="st0" d="M210.5600586,149.5201748c-2.1313477,0-3.8994141-.7255859-5.3041992-2.1757812-1.4057617-1.4506836-2.1079102-3.2182617-2.1079102-5.3041992,0-2.1303711.7021484-3.9204102,2.1079102-5.3720703,1.4047852-1.4501953,3.1728516-2.1757812,5.3041992-2.1757812,2.1303711,0,3.8867188.7255859,5.2700195,2.1757812,1.3823242,1.4516602,2.0737305,3.2416992,2.0737305,5.3720703,0,2.0859375-.6914062,3.8535156-2.0737305,5.3041992-1.3833008,1.4501953-3.1396484,2.1757812-5.2700195,2.1757812Z"/>
    <path class="st0" d="M224.0913086,148.7042568l16.2519531-22.4399414,5.1000977,1.0878906c-.7709961,1.1337891-1.5073242,2.1079102-2.2099609,2.9238281-.703125.8164062-1.5532227,1.4516602-2.5498047,1.9042969-.9975586.4536133-2.3579102.6796875-4.0800781.6796875-3.1279297,0-5.9736328-.7358398-8.5341797-2.2099609-2.5615234-1.4726562-4.6015625-3.4443359-6.1196289-5.9160156-1.5195312-2.4702148-2.2783203-5.2241211-2.2783203-8.2617188,0-3.2182617.8266602-6.1083984,2.4819336-8.6699219,1.6542969-2.5605469,3.8984375-4.590332,6.7319336-6.0859375,2.8330078-1.4960938,6.0180664-2.2441406,9.5541992-2.2441406,3.5805664,0,6.7768555.7480469,9.5878906,2.2441406,2.8105469,1.4956055,5.0429688,3.5253906,6.6982422,6.0859375,1.6542969,2.5615234,2.4819336,5.4516602,2.4819336,8.6699219,0,3.8081055-1.3154297,7.6391602-3.9438477,11.4916992l-14.0761719,20.7402344h-15.0961914ZM238.4394531,123.0001552c1.1328125,0,2.1420898-.2602539,3.0258789-.7817383.8842773-.5209961,1.574707-1.246582,2.0742188-2.1762695.4980469-.9287109.7480469-1.9824219.7480469-3.1621094,0-1.1782227-.25-2.2319336-.7480469-3.1616211-.4995117-.9287109-1.1899414-1.6542969-2.0742188-2.1762695-.8837891-.5205078-1.8930664-.7817383-3.0258789-.7817383-1.1337891,0-2.1420898.2612305-3.0258789.7817383-.8842773.5219727-1.5756836,1.2475586-2.0742188,2.1762695-.4990234.9296875-.7480469,1.9833984-.7480469,3.1616211,0,1.1796875.2490234,2.2333984.7480469,3.1621094.4985352.9296875,1.1899414,1.6552734,2.0742188,2.1762695.8837891.5214844,1.8920898.7817383,3.0258789.7817383Z"/>
    <path class="st0" d="M263.8032227,148.7042568l16.2519531-22.4399414,5.1000977,1.0878906c-.7709961,1.1337891-1.5073242,2.1079102-2.2099609,2.9238281-.703125.8164062-1.5532227,1.4516602-2.5498047,1.9042969-.9975586.4536133-2.3579102.6796875-4.0800781.6796875-3.1279297,0-5.9736328-.7358398-8.5341797-2.2099609-2.5615234-1.4726562-4.6015625-3.4443359-6.1196289-5.9160156-1.5195312-2.4702148-2.2783203-5.2241211-2.2783203-8.2617188,0-3.2182617.8266602-6.1083984,2.4819336-8.6699219,1.6542969-2.5605469,3.8984375-4.590332,6.7319336-6.0859375,2.8330078-1.4960938,6.0180664-2.2441406,9.5541992-2.2441406,3.5805664,0,6.7768555.7480469,9.5878906,2.2441406,2.8105469,1.4956055,5.0429688,3.5253906,6.6982422,6.0859375,1.6542969,2.5615234,2.4819336,5.4516602,2.4819336,8.6699219,0,3.8081055-1.3154297,7.6391602-3.9438477,11.4916992l-14.0761719,20.7402344h-15.0961914ZM278.1513672,123.0001552c1.1328125,0,2.1420898-.2602539,3.0258789-.7817383.8842773-.5209961,1.574707-1.246582,2.0742188-2.1762695.4980469-.9287109.7480469-1.9824219.7480469-3.1621094,0-1.1782227-.25-2.2319336-.7480469-3.1616211-.4995117-.9287109-1.1899414-1.6542969-2.0742188-2.1762695-.8837891-.5205078-1.8930664-.7817383-3.0258789-.7817383-1.1337891,0-2.1420898.2612305-3.0258789.7817383-.8842773.5219727-1.5756836,1.2475586-2.0742188,2.1762695-.4990234.9296875-.7480469,1.9833984-.7480469,3.1616211,0,1.1796875.2490234,2.2333984.7480469,3.1621094.4985352.9296875,1.1899414,1.6552734,2.0742188,2.1762695.8837891.5214844,1.8920898.7817383,3.0258789.7817383Z"/>
    <path class="st0" d="M303.515625,148.7042568l16.2519531-22.4399414,5.1000977,1.0878906c-.7709961,1.1337891-1.5073242,2.1079102-2.2099609,2.9238281-.703125.8164062-1.5532227,1.4516602-2.5498047,1.9042969-.9975586.4536133-2.3579102.6796875-4.0800781.6796875-3.1279297,0-5.9736328-.7358398-8.5341797-2.2099609-2.5615234-1.4726562-4.6015625-3.4443359-6.1196289-5.9160156-1.5195312-2.4702148-2.2783203-5.2241211-2.2783203-8.2617188,0-3.2182617.8266602-6.1083984,2.4819336-8.6699219,1.6542969-2.5605469,3.8984375-4.590332,6.7319336-6.0859375,2.8330078-1.4960938,6.0180664-2.2441406,9.5541992-2.2441406,3.5805664,0,6.7768555.7480469,9.5878906,2.2441406,2.8105469,1.4956055,5.0429688,3.5253906,6.6982422,6.0859375,1.6542969,2.5615234,2.4819336,5.4516602,2.4819336,8.6699219,0,3.8081055-1.3154297,7.6391602-3.9438477,11.4916992l-14.0761719,20.7402344h-15.0961914ZM317.8637695,123.0001552c1.1328125,0,2.1420898-.2602539,3.0258789-.7817383.8842773-.5209961,1.574707-1.246582,2.0742188-2.1762695.4980469-.9287109.7480469-1.9824219.7480469-3.1621094,0-1.1782227-.25-2.2319336-.7480469-3.1616211-.4995117-.9287109-1.1899414-1.6542969-2.0742188-2.1762695-.8837891-.5205078-1.8930664-.7817383-3.0258789-.7817383-1.1337891,0-2.1420898.2612305-3.0258789.7817383-.8842773.5219727-1.5756836,1.2475586-2.0742188,2.1762695-.4990234.9296875-.7480469,1.9833984-.7480469,3.1616211,0,1.1796875.2490234,2.2333984.7480469,3.1621094.4985352.9296875,1.1899414,1.6552734,2.0742188,2.1762695.8837891.5214844,1.8920898.7817383,3.0258789.7817383Z"/>
    <path class="st0" d="M349.8916016,120.4161709c-1.9038086,0-3.6494141-.4643555-5.2358398-1.394043-1.5874023-.9287109-2.8452148-2.1865234-3.7739258-3.7739258-.9296875-1.5864258-1.394043-3.3544922-1.394043-5.3037109,0-1.9487305.4643555-3.6943359,1.394043-5.2363281.9287109-1.5405273,2.1757812-2.7763672,3.7397461-3.7060547,1.5639648-.9287109,3.3203125-1.394043,5.2700195-1.394043,1.9946289,0,3.784668.465332,5.3720703,1.394043,1.5864258.9296875,2.8442383,2.1655273,3.7739258,3.7060547.9287109,1.5419922,1.394043,3.2875977,1.394043,5.2363281,0,1.9492188-.465332,3.7172852-1.394043,5.3037109-.9296875,1.5874023-2.1875,2.8452148-3.7739258,3.7739258-1.5874023.9296875-3.3774414,1.394043-5.3720703,1.394043ZM342.6157227,148.7042568l26.9960938-48.4160156h11.5600586l-26.9960938,48.4160156h-11.5600586ZM349.9599609,112.0524013c.5883789,0,1.0761719-.1923828,1.4619141-.578125.3842773-.3847656.5776367-.8725586.5776367-1.4619141,0-.5888672-.1933594-1.0766602-.5776367-1.4619141-.3857422-.3847656-.8735352-.578125-1.4619141-.578125-.5898438,0-1.0776367.1933594-1.4624023.578125-.3857422.3852539-.5776367.8730469-.5776367,1.4619141,0,.5893555.1918945,1.0771484.5776367,1.4619141.3847656.3857422.8725586.578125,1.4624023.578125ZM373.7597656,149.3844326c-1.9038086,0-3.6499023-.465332-5.2358398-1.394043-1.5874023-.9287109-2.8457031-2.1865234-3.7744141-3.7739258-.9296875-1.5864258-1.3935547-3.3544922-1.3935547-5.3041992,0-1.9487305.4638672-3.6943359,1.3935547-5.2358398.9287109-1.5410156,2.1762695-2.7763672,3.7402344-3.7060547,1.5639648-.9287109,3.3203125-1.394043,5.2700195-1.394043,1.9941406,0,3.784668.465332,5.3720703,1.394043,1.5864258.9296875,2.8442383,2.1650391,3.7739258,3.7060547.9287109,1.5415039,1.394043,3.2871094,1.394043,5.2358398,0,1.949707-.465332,3.7177734-1.394043,5.3041992-.9296875,1.5874023-2.1875,2.8452148-3.7739258,3.7739258-1.5874023.9287109-3.3779297,1.394043-5.3720703,1.394043ZM373.8276367,141.0201748c.5888672,0,1.0761719-.1923828,1.4619141-.578125.3847656-.3842773.578125-.8720703.578125-1.4619141,0-.5883789-.1933594-1.0761719-.578125-1.4619141-.3857422-.3847656-.8730469-.578125-1.4619141-.578125-.5893555,0-1.0771484.1933594-1.4619141.578125-.3857422.3857422-.578125.8735352-.578125,1.4619141,0,.5898438.1923828,1.0776367.578125,1.4619141.3847656.3857422.8725586.578125,1.4619141.578125Z"/>
  </g>
</svg>