<?xml version="1.0" encoding="UTF-8"?>
<svg id="_레이어_5" data-name="레이어_5" xmlns="http://www.w3.org/2000/svg" version="1.1" viewBox="0 0 400 400">
  <!-- Generator: Adobe Illustrator 29.8.3, SVG Export Plug-In . SVG Version: 2.1.1 Build 3)  -->
  <defs>
    <style>
      .st0 {
        fill: #8434f5;
      }
    </style>
  </defs>
  <path class="st0" d="M271.8023145,208.807947c4.2030668,25.8708868,26.7009326,45.6764797,53.7539127,45.6764797,30.0475347,0,54.5083881-24.4356633,54.5083881-54.4844267,0-30.0463059-24.4608534-54.5090025-54.5083881-54.5090025-27.0529801,0-49.5508459,19.8326262-53.7539127,45.7010555h-45.1972527v-106.2483185c0-6.416727,5.2094436-11.6513607,11.626785-11.6513607h33.5704677c4.2030668,25.8708868,26.7009326,45.6764797,53.7539127,45.6764797,30.0475347,0,54.5083881-24.4381209,54.5083881-54.4844267,0-30.0487635-24.4608534-54.4844267-54.5083881-54.4844267-27.0529801,0-49.5508459,19.8055929-53.7539127,45.6764797h-33.5704677c-16.131519,0-29.242679,13.1357357-29.242679,29.2672548v106.2483185h-47.2358107c-4.8567816,0-8.807947,3.9517798-8.807947,8.807947,0,4.8586248,3.9511654,8.807947,8.807947,8.807947h47.2358107v106.2507761c0,16.1290615,13.11116,29.2402214,29.242679,29.2402214h33.5704677c4.2030668,25.8708868,26.7009326,45.7010555,53.7539127,45.7010555,30.0475347,0,54.5083881-24.460239,54.5083881-54.5090025,0-30.0463059-24.4608534-54.4819692-54.5083881-54.4819692-27.0529801,0-49.5508459,19.8055929-53.7539127,45.6740221h-33.5704677c-6.4173414,0-11.626785-5.2076004-11.626785-11.6243274v-106.2507761h45.1972527ZM325.5562273,163.1068916c20.3339714,0,36.8924941,16.559137,36.8924941,36.8931084s-16.5585226,36.8685327-36.8924941,36.8685327-36.8673039-16.5345613-36.8673039-36.8685327,16.5333325-36.8931084,36.8673039-36.8931084ZM325.5562273,27.615894c20.3339714,0,36.8924941,16.5345613,36.8924941,36.8685327s-16.5585226,36.8685327-36.8924941,36.8685327-36.8673039-16.5345613-36.8673039-36.8685327,16.5333325-36.8685327,36.8673039-36.8685327ZM325.5562273,298.6249224c20.3339714,0,36.8924941,16.5345613,36.8924941,36.8660751,0,20.3339714-16.5585226,36.8931084-36.8924941,36.8931084s-36.8673039-16.559137-36.8673039-36.8931084c0-20.3315139,16.5333325-36.8660751,36.8673039-36.8660751Z"/>
  <path class="st0" d="M149.9867356,348.6592715H38.1288284c-10.0317483,0-18.1934437-8.1614437-18.1934437-18.193947V69.5346755c0-10.0322517,8.1616954-18.193947,18.1934437-18.193947h111.8579073c10.0330066,0,18.1944503,8.1616954,18.1944503,18.193947v260.930649c0,10.0325033-8.1614437,18.193947-18.1944503,18.193947ZM38.1288284,68.9566225c-.3180927,0-.5775497.2592053-.5775497.578053v260.930649c0,.3188477.259457.578053.5775497.578053h111.8579073c.319351,0,.5785563-.2592053.5785563-.578053V69.5346755c0-.3188477-.2592053-.578053-.5785563-.578053H38.1288284Z"/>
  <path class="st0" d="M129.1488946,115.3176291H58.9666694c-4.864755,0-8.807947-3.9431921-8.807947-8.807947s3.9431921-8.807947,8.807947-8.807947h70.1822252c4.864755,0,8.807947,3.9431921,8.807947,8.807947s-3.9431921,8.807947-8.807947,8.807947Z"/>
  <path class="st0" d="M94.0582853,299.9747285c-15.0230861,0-27.2444901-12.2221589-27.2444901-27.245245,0-4.864755,3.9431921-8.807947,8.807947-8.807947s8.807947,3.9431921,8.807947,8.807947c0,5.3096821,4.3191656,9.629351,9.628596,9.629351,5.3096821,0,9.6288477-4.3196689,9.6288477-9.629351,0-4.864755,3.9431921-8.807947,8.807947-8.807947s8.807947,3.9431921,8.807947,8.807947c0,15.0230861-12.221404,27.245245-27.2447417,27.245245Z"/>
</svg>