<?xml version="1.0" encoding="UTF-8"?>
<svg id="_레이어_6" data-name="레이어_6" xmlns="http://www.w3.org/2000/svg" version="1.1" viewBox="0 0 400 400">
  <!-- Generator: Adobe Illustrator 29.8.3, SVG Export Plug-In . SVG Version: 2.1.1 Build 3)  -->
  <defs>
    <style>
      .st0 {
        fill: #ff9319;
      }
    </style>
  </defs>
  <path class="st0" d="M360.5999756,179.5149841V61.4549866c0-17.8800049-14.5499878-32.4199829-32.4299927-32.4199829H42.4299927c-17.8800049,0-32.4299927,14.539978-32.4299927,32.4199829v193.6500244c0,17.8800049,14.5499878,32.4299927,32.4299927,32.4299927h94.4499512v51.1599731h-36.8299561c-6.2999878,0-11.4200439,5.1199951-11.4200439,11.4100342,0,6.2999878,5.1200562,11.4199829,11.4200439,11.4199829h169.8699951c6.1799927,5.8499756,14.5100098,9.4400024,23.6699829,9.4400024h61.960022c19,0,34.4500122-15.4500122,34.4500122-34.4500122v-122.9099731c0-17.2800293-12.7900391-31.6400146-29.4000244-34.0900269ZM210.8799438,338.6949768h-51.1599731v-51.1699829h51.1599731v51.1699829ZM233.7199707,338.6949768v-51.1599731h25.4199829v48.9799805c0,.7299805.0200195,1.460022.0700073,2.1799927h-25.4899902ZM259.1399536,213.605011v51.0899658H42.4299927c-5.2900391,0-9.5900269-4.2999878-9.5900269-9.5899658V61.4549866c0-5.289978,4.2999878-9.5899658,9.5900269-9.5899658h285.7399902c5.289978,0,9.5899658,4.2999878,9.5899658,9.5899658v117.6900024h-44.1699829c-19,0-34.4500122,15.460022-34.4500122,34.460022ZM367.1699829,336.5149841c0,6.4100342-5.210022,11.6199951-11.6199951,11.6199951h-61.960022c-6.4000244,0-11.6199951-5.2099609-11.6199951-11.6199951v-122.9099731c0-6.4100342,5.2199707-11.6199951,11.6199951-11.6199951h61.960022c6.4099731,0,11.6199951,5.2099609,11.6199951,11.6199951v122.9099731Z"/>
  <g>
    <path class="st0" d="M281.9699707,275.5249939v1.1799927c0-.2000122.0100098-.3900146.0100098-.5899658,0-.2000122-.0100098-.3900146-.0100098-.5900269ZM159.7199707,287.5249939v.0100098h51.1599731v-.0100098h-51.1599731ZM348.5899658,201.9850159c.2000122,0,.3900146.0099487.5900269.0099487.1999512,0,.3899536-.0099487.5899658-.0099487h-1.1799927Z"/>
    <path class="st0" d="M340.7599487,227.4949646c0,6.2900391-5.1199951,11.4100342-11.4199829,11.4100342h-9.539978c-6.2900391,0-11.4100342-5.1199951-11.4100342-11.4100342,0-6.2999878,5.1199951-11.4199829,11.4100342-11.4199829h9.539978c6.2999878,0,11.4199829,5.1199951,11.4199829,11.4199829Z"/>
  </g>
</svg>