<?xml version="1.0" encoding="UTF-8"?>
<svg id="_레이어_4" data-name="레이어_4" xmlns="http://www.w3.org/2000/svg" version="1.1" viewBox="0 0 400 400">
  <!-- Generator: Adobe Illustrator 29.8.3, SVG Export Plug-In . SVG Version: 2.1.1 Build 3)  -->
  <defs>
    <style>
      .st0 {
        fill: #8434f5;
      }
    </style>
  </defs>
  <path class="st0" d="M91.6174173,150.4530866H22.6884094c-5.7840787,0-10.4724409-4.6886614-10.4724409-10.4724409V25.7152441c0-5.7837795,4.6883622-10.4724409,10.4724409-10.4724409h68.9290079c5.7840787,0,10.4724409,4.6886614,10.4724409,10.4724409v114.2654016c0,5.7837795-4.6883622,10.4724409-10.4724409,10.4724409ZM33.1608504,129.5082047h47.984126V36.187685h-47.984126v93.3205197Z"/>
  <path class="st0" d="M364.358378,368.91h-68.9293071c-5.7840787,0-10.4724409-4.6886614-10.4724409-10.4724409v-114.2651024c0-5.7837795,4.6883622-10.4724409,10.4724409-10.4724409h68.9293071c5.7840787,0,10.4724409,4.6886614,10.4724409,10.4724409v114.2651024c0,5.7837795-4.6883622,10.4724409-10.4724409,10.4724409ZM305.9015118,347.9651181h47.9844252v-93.3202205h-47.9844252v93.3202205Z"/>
  <path class="st0" d="M377.3115906,131.794189h-132.3067244c-5.7840787,0-10.4724409-4.6886614-10.4724409-10.4724409V20.4724409c0-5.7837795,4.6883622-10.4724409,10.4724409-10.4724409h132.3067244c5.7840787,0,10.4724409,4.6886614,10.4724409,10.4724409v100.8493071c0,5.7837795-4.6883622,10.4724409-10.4724409,10.4724409ZM255.4773071,110.8493071h111.3618425V30.9448819h-111.3618425v79.9044252Z"/>
  <path class="st0" d="M311.1580787,174.8368189c-5.7840787,0-10.4724409-4.6886614-10.4724409-10.4724409v-43.0426299c0-5.7834803,4.6883622-10.4724409,10.4724409-10.4724409s10.4724409,4.6889606,10.4724409,10.4724409v43.0426299c0,5.7837795-4.6883622,10.4724409-10.4724409,10.4724409Z"/>
  <path class="st0" d="M329.893874,174.8368189h-37.4715906c-5.7840787,0-10.4724409-4.6886614-10.4724409-10.4724409s4.6883622-10.4724409,10.4724409-10.4724409h37.4715906c5.784378,0,10.4724409,4.6886614,10.4724409,10.4724409s-4.688063,10.4724409-10.4724409,10.4724409Z"/>
  <path class="st0" d="M157.7709291,346.9573701H25.4633071c-5.7840787,0-10.4724409-4.6886614-10.4724409-10.4724409v-89.9489921c0-5.7834803,4.6883622-10.4724409,10.4724409-10.4724409h132.307622c5.7840787,0,10.4724409,4.6889606,10.4724409,10.4724409v89.9489921c0,5.7837795-4.6883622,10.4724409-10.4724409,10.4724409ZM35.935748,326.0124882h111.3627402v-69.0041102H35.935748v69.0041102Z"/>
  <path class="st0" d="M91.6174173,390c-5.7840787,0-10.4724409-4.6886614-10.4724409-10.4724409v-43.0426299c0-5.7837795,4.6883622-10.4724409,10.4724409-10.4724409s10.4724409,4.6886614,10.4724409,10.4724409v43.0426299c0,5.7837795-4.6883622,10.4724409-10.4724409,10.4724409Z"/>
  <path class="st0" d="M115.9146772,390h-48.5951181c-5.7840787,0-10.4724409-4.6886614-10.4724409-10.4724409s4.6883622-10.4724409,10.4724409-10.4724409h48.5951181c5.7840787,0,10.4724409,4.6886614,10.4724409,10.4724409s-4.6883622,10.4724409-10.4724409,10.4724409Z"/>
  <path class="st0" d="M174.0513858,135.1477638c-5.7840787,0-10.4724409-4.6886614-10.4724409-10.4724409v-31.3550866h-71.9615276c-5.7840787,0-10.4724409-4.6886614-10.4724409-10.4724409,0-5.7834803,4.6883622-10.4724409,10.4724409-10.4724409h82.4339685c5.7840787,0,10.4724409,4.6889606,10.4724409,10.4724409v41.8275276c0,5.7837795-4.6883622,10.4724409-10.4724409,10.4724409Z"/>
  <path class="st0" d="M295.4290709,320.302315h-66.6325512c-5.7840787,0-10.4724409-4.6886614-10.4724409-10.4724409v-45.2056378c0-5.7837795,4.6883622-10.4724409,10.4724409-10.4724409s10.4724409,4.6886614,10.4724409,10.4724409v34.7331969h56.1601102c5.7840787,0,10.4724409,4.6886614,10.4724409,10.4724409s-4.6883622,10.4724409-10.4724409,10.4724409Z"/>
</svg>