<?xml version="1.0" encoding="UTF-8"?>
<svg id="_레이어_7" data-name="레이어_7" xmlns="http://www.w3.org/2000/svg" version="1.1" viewBox="0 0 400 400">
  <!-- Generator: Adobe Illustrator 29.8.3, SVG Export Plug-In . SVG Version: 2.1.1 Build 3)  -->
  <defs>
    <style>
      .st0 {
        fill: #ff9319;
      }
    </style>
  </defs>
  <path class="st0" d="M257.8337479,282.1900024c-1.7999878,1.7999878-4.1900024,2.789978-6.7300415,2.789978-2.5499878,0-4.9400024-.9899902-6.7399902-2.789978l-51.5100098-51.5200195c-1.7999878-1.789978-2.789978-4.1799927-2.789978-6.7299805v-49.0800171c0-5.25,4.2700195-9.5200195,9.5200195-9.5200195s9.5199585,4.2700195,9.5199585,9.5200195v45.1400146l48.7300415,48.7299805c3.7099609,3.710022,3.7099609,9.75,0,13.460022Z"/>
  <path class="st0" d="M199.5837479,92.3800049c-72.5400391,0-131.5599976,59.0199585-131.5599976,131.5599976,0,72.5499878,59.0199585,131.5700073,131.5599976,131.5700073,72.5499878,0,131.5700073-59.0200195,131.5700073-131.5700073,0-72.5400391-59.0200195-131.5599976-131.5700073-131.5599976ZM209.1037064,336.0599976v-18.3699951c0-5.25-4.2699585-9.5200195-9.5199585-9.5200195s-9.5200195,4.2700195-9.5200195,9.5200195v18.3699951c-54.4699707-4.5800171-98.0100098-48.1300049-102.5900269-102.6000366h18.3700562c5.2399902,0,9.5199585-4.2699585,9.5199585-9.5199585s-4.2799683-9.5200195-9.5199585-9.5200195h-18.3700562c4.5800171-54.460022,48.1200562-98.0100098,102.5900269-102.5900269v18.3700562c0,5.25,4.2700195,9.5199585,9.5200195,9.5199585s9.5199585-4.2699585,9.5199585-9.5199585v-18.3700562c54.4700317,4.5800171,98.0200195,48.1300049,102.6000366,102.5900269h-18.3699951c-5.25,0-9.5200195,4.2700195-9.5200195,9.5200195s4.2700195,9.5199585,9.5200195,9.5199585h18.3699951c-4.5800171,54.4700317-48.1300049,98.0200195-102.6000366,102.6000366Z"/>
  <path class="st0" d="M341.5337601,108.3299561l8.6899414,8.6900024c1.8000488,1.8000488,4.1900024,2.7900391,6.7400513,2.7900391,2.539978,0,4.9299927-.9899902,6.7299805-2.7900391,3.710022-3.7099609,3.710022-9.75,0-13.4599609l-15.0900269-15.0800171-.6799927-.6799927-15.0799561-15.0900269c-1.8000488-1.7999878-4.1900024-2.789978-6.7300415-2.789978-2.539978,0-4.9400024.9899902-6.7299805,2.789978-1.7999878,1.8000488-2.789978,4.1900024-2.789978,6.7300415,0,2.539978.9899902,4.9299927,2.789978,6.7299805l8.6900024,8.6900024-11.4299927,11.4299927c-20.0200195-19.9400024-45.1000366-34.8099976-73.1199951-42.5v-22.1499634c0-17.4500122-14.1900024-31.6400146-31.6400146-31.6400146h-24.5999756c-17.4400024,0-31.6400146,14.1900024-31.6400146,31.6400146v22.1499634c-70.3099976,19.3099976-122.1199951,83.7999878-122.1199951,160.1500244,0,91.5700073,74.5,166.0599976,166.0599976,166.0599976s166.0599976-74.4899902,166.0599976-166.0599976c0-39.0900269-13.5700073-75.0599976-36.2600098-103.460022l12.1500244-12.1500244ZM174.6837234,41.6400146c0-6.9500122,5.6500244-12.6000366,12.6000366-12.6000366h24.5999756c6.9500122,0,12.5999756,5.6500244,12.5999756,12.6000366v18.1199951c-8.1199951-1.2300415-16.4400024-1.8699951-24.8999634-1.8699951-8.460022,0-16.7800293.6399536-24.9000244,1.8699951v-18.1199951ZM346.6037064,223.9400024c0,81.0700073-65.9499512,147.0199585-147.0199585,147.0199585-81.0599976,0-147.0200195-65.9499512-147.0200195-147.0199585,0-69.8900146,49.039978-128.5499878,114.5100098-143.3900146,10.460022-2.3699951,21.3399658-3.6199951,32.5100098-3.6199951,11.1699829,0,22.0499878,1.25,32.5100098,3.6199951,65.4799805,14.8400269,114.5099487,73.5,114.5099487,143.3900146Z"/>
</svg>