<?xml version="1.0" encoding="UTF-8"?>
<svg id="_레이어_5" data-name="레이어_5" xmlns="http://www.w3.org/2000/svg" version="1.1" viewBox="0 0 400 400">
  <!-- Generator: Adobe Illustrator 29.8.3, SVG Export Plug-In . SVG Version: 2.1.1 Build 3)  -->
  <defs>
    <style>
      .st0 {
        fill: #8434f5;
      }
    </style>
  </defs>
  <path class="st0" d="M380.1900024,263.2600098h-35.0200195v-72.7200317c0-5.4099731-4.3899536-9.8099976-9.7999878-9.8099976h-125.5700073v-58.1599731h35.0300293c5.3999634,0,9.7999878-4.4000244,9.7999878-9.8099976V23.1099854c0-5.4099731-4.4000244-9.8099976-9.7999878-9.8099976h-89.6600342c-5.3999634,0-9.7999878,4.4000244-9.7999878,9.8099976v89.6500244c0,5.4099731,4.4000244,9.8099976,9.7999878,9.8099976h35.0200195v58.1599731h-125.5599976c-5.4100342,0-9.7999878,4.4000244-9.7999878,9.8099976v72.7200317H19.8099976c-5.4099731,0-9.8099976,4.3999634-9.8099976,9.8099976v89.6499634c0,5.4000244,4.4000244,9.7999878,9.8099976,9.7999878h89.6500244c5.3999634,0,9.7999878-4.3999634,9.7999878-9.7999878v-89.6499634c0-5.4100342-4.4000244-9.8099976-9.7999878-9.8099976h-35.0200195v-62.9200439h115.75v62.9200439h-35.0200195c-5.3999634,0-9.7999878,4.3999634-9.7999878,9.8099976v89.6499634c0,5.4000244,4.4000244,9.7999878,9.7999878,9.7999878h89.6600342c5.3999634,0,9.7999878-4.3999634,9.7999878-9.7999878v-89.6499634c0-5.4100342-4.4000244-9.8099976-9.7999878-9.8099976h-35.0300293v-62.9200439h115.7600098v62.9200439h-35.0200195c-5.4099731,0-9.7999878,4.3999634-9.7999878,9.8099976v89.6499634c0,5.4000244,4.3900146,9.7999878,9.7999878,9.7999878h89.6500244c5.4099731,0,9.8099976-4.3999634,9.8099976-9.7999878v-89.6499634c0-5.4100342-4.4000244-9.8099976-9.8099976-9.8099976ZM99.6500244,282.8699951v70.039978H29.6099854v-70.039978h70.0400391ZM235.0200195,282.8699951v70.039978h-70.0400391v-70.039978h70.0400391ZM164.9799805,102.9599609V32.9099731h70.0400391v70.0499878h-70.0400391ZM370.3900146,352.9099731h-70.0400391v-70.039978h70.0400391v70.039978Z"/>
</svg>