<?xml version="1.0" encoding="UTF-8"?>
<svg id="_레이어_3" data-name="레이어_3" xmlns="http://www.w3.org/2000/svg" version="1.1" viewBox="0 0 400 400">
  <!-- Generator: Adobe Illustrator 29.8.3, SVG Export Plug-In . SVG Version: 2.1.1 Build 3)  -->
  <defs>
    <style>
      .st0 {
        fill: #2563eb;
      }
    </style>
  </defs>
  <path class="st0" d="M107.2880787,354.5017165H20.4724409c-5.7837795,0-10.4724409-4.6886614-10.4724409-10.4724409v-86.8153386c0-5.7837795,4.6886614-10.4724409,10.4724409-10.4724409h86.8156378c5.7834803,0,10.4724409,4.6886614,10.4724409,10.4724409v86.8153386c0,5.7837795-4.6889606,10.4724409-10.4724409,10.4724409ZM30.9448819,333.5568346h65.8707559v-65.8704567H30.9448819v65.8704567Z"/>
  <path class="st0" d="M270.3643307,165.9427244h-140.7286614c-5.7834803,0-10.4724409-4.6886614-10.4724409-10.4724409V55.9707244c0-5.7837795,4.6889606-10.4724409,10.4724409-10.4724409h140.7286614c5.7837795,0,10.4724409,4.6886614,10.4724409,10.4724409v99.4995591c0,5.7837795-4.6886614,10.4724409-10.4724409,10.4724409ZM140.1081102,144.9978425h119.7837795v-78.5546772h-119.7837795v78.5546772Z"/>
  <path class="st0" d="M379.5275591,354.5017165h-86.8153386c-5.7837795,0-10.4724409-4.6886614-10.4724409-10.4724409v-86.8153386c0-5.7837795,4.6886614-10.4724409,10.4724409-10.4724409h86.8153386c5.7837795,0,10.4724409,4.6886614,10.4724409,10.4724409v86.8153386c0,5.7837795-4.6886614,10.4724409-10.4724409,10.4724409ZM303.1846614,333.5568346h65.8704567v-65.8704567h-65.8704567v65.8704567Z"/>
  <path class="st0" d="M200,354.5017165c-29.7097165,0-53.8801102-24.1703937-53.8801102-53.8801102s24.1703937-53.8801102,53.8801102-53.8801102,53.8801102,24.1703937,53.8801102,53.8801102-24.1703937,53.8801102-53.8801102,53.8801102ZM200,267.686378c-18.1604094,0-32.9352283,14.7745197-32.9352283,32.9352283s14.7748189,32.9352283,32.9352283,32.9352283c18.1607087,0,32.9352283-14.7745197,32.9352283-32.9352283s-14.7745197-32.9352283-32.9352283-32.9352283Z"/>
  <path class="st0" d="M336.1067244,267.6989449c-5.7837795,0-10.4724409-4.6886614-10.4724409-10.4724409V116.1911496h-55.2699528c-5.7837795,0-10.4724409-4.6886614-10.4724409-10.4724409,0-5.7834803,4.6886614-10.4724409,10.4724409-10.4724409h65.7423937c5.7837795,0,10.4724409,4.6889606,10.4724409,10.4724409v151.5077953c0,5.7837795-4.6886614,10.4724409-10.4724409,10.4724409Z"/>
  <path class="st0" d="M63.8744252,267.6989449c-5.7837795,0-10.4724409-4.6886614-10.4724409-10.4724409V105.7187087c0-5.7834803,4.6886614-10.4724409,10.4724409-10.4724409h65.7693228c5.7837795,0,10.4724409,4.6889606,10.4724409,10.4724409,0,5.7837795-4.6886614,10.4724409-10.4724409,10.4724409h-55.2968819v141.0353543c0,5.7837795-4.6886614,10.4724409-10.4724409,10.4724409Z"/>
  <path class="st0" d="M200,267.686378c-5.7837795,0-10.4724409-4.6886614-10.4724409-10.4724409v-101.7436535c0-5.7837795,4.6886614-10.4724409,10.4724409-10.4724409s10.4724409,4.6886614,10.4724409,10.4724409v101.7436535c0,5.7837795-4.6886614,10.4724409-10.4724409,10.4724409Z"/>
</svg>