<?xml version="1.0" encoding="UTF-8"?>
<svg id="_레이어_3" data-name="레이어_3" xmlns="http://www.w3.org/2000/svg" version="1.1" viewBox="0 0 400 400">
  <!-- Generator: Adobe Illustrator 29.8.3, SVG Export Plug-In . SVG Version: 2.1.1 Build 3)  -->
  <defs>
    <style>
      .st0 {
        fill: #2563eb;
      }
    </style>
  </defs>
  <g>
    <path class="st0" d="M209.7999878,75.3599854c0,23.5200195-9.1300049,45.6000366-25.7199707,62.1900024-1.8500366,1.8500366-4.3099976,2.8699951-6.9300537,2.8699951-2.6199951,0-5.0799561-1.0199585-6.9299927-2.8699951-3.8299561-3.8299561-3.8299561-10.0499878,0-13.8699951,26.6400146-26.6400146,26.6400146-70,0-96.6400146-3.8299561-3.8299561-3.8299561-10.0499878,0-13.8699951,1.8500366-1.8499756,4.3099976-2.8699951,6.9299927-2.8699951,2.6200562,0,5.0800171,1.0200195,6.9300537,2.8699951,16.5899658,16.5900269,25.7199707,38.6700439,25.7199707,62.1900024Z"/>
    <path class="st0" d="M73.5700073,123.6799927c3.8200073,3.8200073,3.8200073,10.0400391,0,13.8699951-1.8500366,1.8500366-4.3099976,2.8699951-6.9299927,2.8699951s-5.0800171-1.0199585-6.9300537-2.8699951c-34.2999878-34.289978-34.289978-90.0899658,0-124.3800049,1.8500366-1.8499756,4.3100586-2.8699951,6.9300537-2.8699951s5.0799561,1.0200195,6.9299927,2.8699951c3.8299561,3.8200073,3.8299561,10.0400391,0,13.8699951-26.6400146,26.6400146-26.6400146,70,0,96.6400146Z"/>
    <path class="st0" d="M177.6300049,75.3599854c0,14.9100342-5.7900391,28.9100342-16.3099976,39.4299927-1.8500366,1.8500366-4.3099976,2.8700562-6.9299927,2.8700562s-5.0800171-1.0200195-6.9300537-2.8700562c-1.8599854-1.8499756-2.8799438-4.3199463-2.8799438-6.9399414,0-2.6100464,1.0199585-5.0800171,2.8799438-6.9300537,6.8100586-6.8099976,10.5600586-15.8899536,10.5600586-25.5599976,0-9.6699829-3.75-18.75-10.5600586-25.5599976-1.8499756-1.8499756-2.8799438-4.3099976-2.8799438-6.9400024,0-2.6099854,1.0199585-5.0799561,2.8799438-6.9299927,1.8500366-1.8499756,4.3100586-2.8699951,6.9300537-2.8699951s5.0799561,1.0200195,6.9299927,2.8699951c10.5199585,10.5200195,16.3099976,24.5200195,16.3099976,39.4299927Z"/>
    <path class="st0" d="M96.3300171,100.9199829c1.8499756,1.8500366,2.8699951,4.3200073,2.8699951,6.9300537,0,2.6199951-1.0200195,5.0899658-2.8699951,6.9399414-1.8500366,1.8500366-4.3099976,2.8700562-6.9300537,2.8700562-2.6199951,0-5.0799561-1.0200195-6.9299927-2.8700562-10.5199585-10.5199585-16.3099976-24.5199585-16.3099976-39.4299927,0-14.9099731,5.7900391-28.9199829,16.3099976-39.4299927,3.8200073-3.8200073,10.0400391-3.8200073,13.8600464,0,1.8499756,1.8500366,2.8699951,4.3099976,2.8699951,6.9299927s-1.0200195,5.0800171-2.8699951,6.9400024c-14.0900269,14.0900269-14.0900269,37.0300293,0,51.1199951Z"/>
  </g>
  <path class="st0" d="M372.0200195,213.5100098h-221.9700317v-6.2399902c0-12.0800171-7.6500244-22.4000244-18.3499756-26.3900146v-84.0900269c8.1199951-3.7199707,13.7699585-11.9299927,13.7699585-21.4299927,0-13-10.5799561-23.5799561-23.5700073-23.5799561-13,0-23.5799561,10.5799561-23.5799561,23.5799561,0,9.5,5.6499634,17.710022,13.7699585,21.4200439v84.1099854c-10.7099609,3.9799805-18.3499756,14.3099976-18.3499756,26.3800049v6.2399902H27.9799805c-9.9199829,0-17.9799805,8.0700073-17.9799805,17.9799805v95.5599976c0,9.9100342,8.0599976,17.9700317,17.9799805,17.9700317h14.3500366v34.8699951c0,5.4099731,4.3999634,9.8099976,9.7999878,9.8099976h37.6799927c5.4099731,0,9.8099976-4.4000244,9.8099976-9.8099976v-34.8699951h200.7600098v34.8699951c0,5.4099731,4.3999634,9.8099976,9.8099976,9.8099976h37.6799927c5.4000244,0,9.7999878-4.4000244,9.7999878-9.8099976v-34.8699951h14.3500366c9.9199829,0,17.9799805-8.0599976,17.9799805-17.9700317v-95.5599976c0-9.9099731-8.0599976-17.9799805-17.9799805-17.9799805ZM121.8999634,71.4000244c2.1800537,0,3.960022,1.7699585,3.960022,3.9599609,0,2.1799927-1.7799683,3.960022-3.960022,3.960022-2.1900024,0-3.9699707-1.7800293-3.9699707-3.960022,0-2.1900024,1.7799683-3.9599609,3.9699707-3.9599609ZM113.3499756,207.2700195c0-4.710022,3.8300171-8.5400391,8.5499878-8.5400391,4.710022,0,8.5400391,3.8300171,8.5400391,8.5400391v3.9599609h-17.0900269v-3.9599609ZM80.0100098,370.0899658h-18.0700073v-25.0699463h18.0700073v25.0699463ZM338.0599976,370.0899658h-18.0700073v-25.0699463h18.0700073v25.0699463ZM370.3900146,325.4099731H29.6099854v-92.289978h340.7800293v92.289978Z"/>
  <path class="st0" d="M113.3499756,279.2700195c0,5.4099731-4.3999634,9.7999878-9.7999878,9.7999878h-27.5900269c-5.3999634,0-9.7999878-4.3900146-9.7999878-9.7999878,0-5.4100342,4.4000244-9.8099976,9.7999878-9.8099976h27.5900269c5.4000244,0,9.7999878,4.3999634,9.7999878,9.8099976Z"/>
  <path class="st0" d="M177.9899902,279.2700195c0,5.4099731-4.4000244,9.7999878-9.8099976,9.7999878h-27.5800171c-5.4099731,0-9.8099976-4.3900146-9.8099976-9.7999878,0-5.4100342,4.4000244-9.8099976,9.8099976-9.8099976h27.5800171c5.4099731,0,9.8099976,4.3999634,9.8099976,9.8099976Z"/>
  <path class="st0" d="M348.8200073,255.3900146c0,5.3999634-4.4000244,9.7999878-9.7999878,9.7999878h-50.5300293c-5.4099731,0-9.7999878-4.4000244-9.7999878-9.7999878,0-5.4100342,4.3900146-9.8099976,9.7999878-9.8099976h50.5300293c5.3999634,0,9.7999878,4.3999634,9.7999878,9.8099976Z"/>
  <path class="st0" d="M348.8200073,303.1499634c0,5.4100342-4.4000244,9.8100586-9.7999878,9.8100586h-50.5300293c-5.4099731,0-9.7999878-4.4000244-9.7999878-9.8100586,0-5.3999634,4.3900146-9.7999878,9.7999878-9.7999878h50.5300293c5.3999634,0,9.7999878,4.4000244,9.7999878,9.7999878Z"/>
</svg>