<?xml version="1.0" encoding="UTF-8"?>
<svg id="_레이어_6" data-name="레이어_6" xmlns="http://www.w3.org/2000/svg" version="1.1" viewBox="0 0 400 400">
  <!-- Generator: Adobe Illustrator 29.8.3, SVG Export Plug-In . SVG Version: 2.1.1 Build 3)  -->
  <defs>
    <style>
      .st0 {
        fill: #ff9319;
      }
    </style>
  </defs>
  <path class="st0" d="M314.0282728,284.0731966c-2.8649568,0-5.7173467-1.1681244-7.7855014-3.464578-3.8703098-4.297884-3.5238221-10.91945.7743612-14.790059,33.6517976-30.3033138,52.9521812-73.6041064,52.9521812-118.7992114,0-45.1726641-19.3003837-88.4608897-52.9521812-118.7642035-4.2981832-3.8703098-4.644671-10.492175-.7743612-14.790059,3.8694122-4.2969864,10.4912773-4.6455686,14.7897598-.774062,38.0559019,34.2687731,59.8816365,83.2294636,59.8816365,134.3283245,0,51.1210026-21.8257346,100.0948584-59.8816365,134.3636315-2.0017296,1.8024543-4.5073326,2.6902169-7.0042584,2.6902169Z"/>
  <path class="st0" d="M267.4606815,232.3546673c-2.8664529,0-5.720638-1.1696205-7.7887927-3.4675702-3.8685145-4.2993801-3.5193339-10.920946.7803454-14.7897598,19.0074549-17.1032685,29.9095506-41.5521965,29.9095506-67.0779891,0-25.505147-10.9143634-49.9543742-29.94396-67.0782883-4.2996793-3.8688137-4.6488599-10.4903797-.7800462-14.7897598,3.8685145-4.2981832,10.4912773-4.6485607,14.7894606-.7794478,23.4372915,21.0893734,36.8793995,51.2134591,36.8793995,82.6474959,0,31.4549816-13.4295411,61.5787681-36.8449901,82.6477951-2.000832,1.800659-4.5055373,2.687524-7.000967,2.687524Z"/>
  <path class="st0" d="M85.9720264,284.0731966c-2.4969258,0-5.0025287-.8874634-7.0042584-2.6902169-38.0559019-34.2687731-59.8819357-83.2426289-59.8819357-134.3636315,0-51.0988609,21.8260338-100.0595514,59.8819357-134.3283245,4.2975848-3.8715066,10.9188516-3.5241213,14.7897598.774062,3.8703098,4.297884,3.5238221,10.9197492-.7743612,14.790059-33.6517976,30.3033138-52.9524804,73.5915395-52.9524804,118.7642035,0,45.195105,19.3006829,88.4958975,52.9524804,118.7992114,4.2981832,3.870609,4.644671,10.492175.7743612,14.790059-2.0672571,2.2961544-4.9205446,3.464578-7.7855014,3.464578Z"/>
  <path class="st0" d="M132.5390193,232.3546673c-2.4954297,0-4.9995366-.886865-7.0012662-2.687524-23.4145514-21.0693262-36.8440925-51.1934119-36.8440925-82.6477951,0-31.4340367,13.442108-61.5581225,36.8793995-82.6474959,4.2996793-3.8703098,10.9215445-3.5196331,14.7894606.7794478,3.8688137,4.2993801,3.5196331,10.920946-.7800462,14.7897598-19.0295966,17.1239141-29.94396,41.5731413-29.94396,67.0782883,0,25.5254935,10.901198,49.9744214,29.9089522,67.0779891,4.2996793,3.8691129,4.6488599,10.4903797.7800462,14.790059-2.0681547,2.2976505-4.9229383,3.467271-7.7884935,3.467271Z"/>
  <path class="st0" d="M199.9997008,188.7277335c-22.993859,0-41.7012041-18.7070459-41.7012041-41.7018026,0-22.9941583,18.7073451-41.7015033,41.7012041-41.7015033,22.9947567,0,41.7021018,18.7073451,41.7021018,41.7015033,0,22.9947567-18.7073451,41.7018026-41.7021018,41.7018026ZM199.9997008,126.2692815c-11.445465,0-20.7563502,9.3111844-20.7563502,20.7566494s9.3108852,20.7569486,20.7563502,20.7569486,20.7572479-9.3114836,20.7572479-20.7569486-9.3117828-20.7566494-20.7572479-20.7566494Z"/>
  <path class="st0" d="M199.9997008,390c-5.784071,0-10.472427-4.6886552-10.472427-10.472427v-201.2722665c0-5.7834726,4.6883559-10.472427,10.472427-10.472427s10.472427,4.6889544,10.472427,10.472427v201.2722665c0,5.7837718-4.6883559,10.472427-10.472427,10.472427Z"/>
</svg>