<?xml version="1.0" encoding="UTF-8"?>
<svg id="_레이어_5" data-name="레이어_5" xmlns="http://www.w3.org/2000/svg" version="1.1" viewBox="0 0 400 400">
  <!-- Generator: Adobe Illustrator 29.8.3, SVG Export Plug-In . SVG Version: 2.1.1 Build 3)  -->
  <defs>
    <style>
      .st0 {
        fill: #8434f5;
      }
    </style>
  </defs>
  <path class="st0" d="M319.7549761,343.9188208c-3.00884,0-6.004482-1.2267897-8.1765032-3.6385753-4.0646837-4.5137314-3.7007947-11.4678442.813251-15.5328421,35.3418509-31.8252003,55.6115342-77.3006359,55.6115342-124.7655197,0-47.4413158-20.2696834-92.9035534-55.6115342-124.7287537-4.5140457-4.0646837-4.8779346-11.0191107-.813251-15.5328421,4.0637409-4.5127887,11.018168-4.8788773,15.5325279-.8129367,39.9671372,35.989812,62.8889991,87.4093958,62.8889991,141.0745326,0,53.6883905-22.9218619,105.1218008-62.8889991,141.1116128-2.10226,1.8929768-4.7336988,2.8253244-7.3560247,2.8253244Z"/>
  <path class="st0" d="M270.8486773,289.6028946c-3.0104112,0-6.0079387-1.2283609-8.1799598-3.6417177-4.0627982-4.5153026-3.6960811-11.4694154.8195358-15.5325279,19.9620432-17.9622251,31.4116616-43.6390219,31.4116616-70.4467654,0-26.786061-11.4625022-52.463172-31.4477991-70.4470796-4.5156169-4.0631125-4.882334-11.0172253-.8192215-15.5325279,4.0627982-4.5140457,11.018168-4.8820197,15.5322136-.818593,24.6143541,22.1485194,38.7315488,53.7854904,38.7315488,86.7982006,0,33.0347069-14.1039966,64.6713637-38.6954113,86.7985148-2.1013173,1.8910913-4.7318134,2.8224962-7.3525681,2.8224962Z"/>
  <path class="st0" d="M80.2453381,343.9188208c-2.6223259,0-5.2537647-.9320334-7.3560247-2.8253244-39.9671372-35.989812-62.8893134-87.4232223-62.8893134-141.1116128,0-53.6651368,22.9221762-105.0847205,62.8893134-141.0745326,4.5134172-4.0659406,11.4672158-3.7011089,15.5325279.8129367,4.0646837,4.5137314,3.7007947,11.4681585-.813251,15.5328421-35.3418509,31.8252003-55.6118485,77.2874379-55.6118485,124.7287537,0,47.4648838,20.2699976,92.9403194,55.6118485,124.7655197,4.5140457,4.0649979,4.8779346,11.0191107.813251,15.5328421-2.1710784,2.4114714-5.1676631,3.6385753-8.1765032,3.6385753Z"/>
  <path class="st0" d="M129.1510085,289.6028946c-2.6207547,0-5.2506223-.9314049-7.3528823-2.8224962-24.5904719-22.1274653-38.6944686-53.7644364-38.6944686-86.7985148,0-33.0127101,14.1171947-64.6496812,38.7315488-86.7982006,4.5156169-4.0646837,11.4700439-3.6963953,15.5322136.818593,4.0631125,4.5153026,3.6963953,11.4694154-.8192215,15.5325279-19.9852969,17.9839076-31.4477991,43.6610186-31.4477991,70.4470796,0,26.8074293,11.4486756,52.484226,31.4110331,70.4467654,4.5156169,4.0634267,4.882334,11.0172253.8192215,15.5328421-2.1720211,2.4130426-5.170177,3.6414035-8.1796456,3.6414035Z"/>
  <g>
    <path class="st0" d="M161.9247112,234.2595601c-4.5337623,0-8.9583686-.7921387-13.2738189-2.3756581-4.3162084-1.5835194-7.8705992-3.8333449-10.6646884-6.7532667l11.7365392-11.4568271c1.0551742,1.490282,2.6546122,2.7175285,4.7967978,3.6794653,2.1421856.9634529,4.36169,1.4432843,6.6600293,1.4432843,1.98679,0,3.6938678-.3403543,5.1227496-1.0240951,1.4281237-.6829827,2.5454562-1.6608382,3.3535135-2.9343243.8065412-1.2719701,1.2105699-2.7478496,1.2105699-4.4246063s-.4191892-3.1814413-1.2575676-4.5170857c-.8383784-1.3348864-2.0648668-2.3900606-3.6787073-3.1670387-1.6161146-.7762201-3.6021465-1.1643302-5.961886-1.1643302-1.987548,0-3.8507795.3115493-5.5881785.9308577-1.739673.6215825-3.229955,1.3978026-4.471604,2.3286604l2.0497063-11.922256c1.8624735-.9316158,3.4459929-1.7070778,4.7505581-2.3286604,1.3038072-.6200665,2.6379356-1.0710928,4.0046591-1.3508049,1.3652075-.2797121,2.981322-.4191892,4.8437955-.4191892,5.1538287,0,9.4692791,1.0248531,12.9471091,3.0738014,3.477072,2.0497063,6.1157656,4.7664767,7.9175969,8.1503113,1.8003152,3.3853507,2.7016099,7.064816,2.7016099,11.0376379,0,4.5337623-1.103688,8.555098-3.3065158,12.062491-2.2051019,3.5096672-5.325901,6.2408401-9.3616392,8.197309-4.0372543,1.9557109-8.8810498,2.9343243-14.5306285,2.9343243ZM149.9084598,204.8245956l-6.7995064-5.961128,3.4467509-32.0421999h16.5795767l-3.4459929,30.2722058-9.7808284,7.7311221ZM148.6046526,182.0974162l-2.0489482-15.2761485h38.9345646v15.2761485h-36.8856164Z"/>
    <path class="st0" d="M229.4558619,234.2595601c-5.1553448,0-9.9203054-.854297-14.297914-2.5621328-4.3783666-1.7070778-8.197309-4.113057-11.4575851-7.2186955-3.2595181-3.1041225-5.7905718-6.7373481-7.590887-10.8981609-1.8018313-4.1592967-2.7016099-8.693059-2.7016099-13.5990127,0-4.967354.9460183-9.5314373,2.8410869-13.6930081,1.8935526-4.1592967,4.5322462-7.7773618,7.9175969-10.8511632,3.3838346-3.0738014,7.3119329-5.463862,11.7827789-7.1724559,4.470846-1.7070778,9.2524832-2.5613748,14.3449117-2.5613748,6.1476027,0,11.6577044,1.0566903,16.533337,3.1670387,4.8741166,2.1114855,8.832536,4.968491,11.8760163,8.5695005l-12.5749176,12.5749176c-2.2975812-2.6697727-4.6891579-4.6573207-7.1716978-5.961886-2.484814-1.3038072-5.465378-1.9557109-8.94245-1.9557109-3.2921133,0-6.2726773.7307385-8.941692,2.1884253-2.6712888,1.4599609-4.7975558,3.5255857-6.3810752,6.1946004-1.5835194,2.6705308-2.3749,5.8072484-2.3749,9.4078789,0,3.6021465.7292224,6.7532667,2.1891833,9.4541185,1.4576868,2.7016099,3.4929906,4.7967978,6.100605,6.2878378,2.6083725,1.490282,5.6503367,2.235423,9.1281667,2.235423,3.3535135,0,6.1786819-.6519036,8.4770211-1.9564689,2.2960652-1.3038072,4.0516568-3.1670387,5.2622267-5.5889365,1.2113279-2.4211397,1.8162338-5.2773872,1.8162338-8.5695005l12.7613924,8.1040716-30.8312511-.9316158v-14.903578h36.792379v2.7948473c0,7.949434-1.4432843,14.7171032-4.3313689,20.3060397-2.8873266,5.5881785-6.9245809,9.8429866-12.1087307,12.7606343-5.1856659,2.9199218-11.2241127,4.3783666-18.1168564,4.3783666Z"/>
  </g>
</svg>