<?xml version="1.0" encoding="UTF-8"?>
<svg id="_레이어_7" data-name="레이어_7" xmlns="http://www.w3.org/2000/svg" version="1.1" viewBox="0 0 400 400">
  <!-- Generator: Adobe Illustrator 29.8.3, SVG Export Plug-In . SVG Version: 2.1.1 Build 3)  -->
  <defs>
    <style>
      .st0 {
        fill: #ff9319;
      }
    </style>
  </defs>
  <path class="st0" d="M366.8250122,39.2900391c0-16.1500244-13.1400146-29.2900391-29.289978-29.2900391H62.4650269c-16.1500244,0-29.2900391,13.1400146-29.2900391,29.2900391v39.6399536c0,7.4700317,2.8100586,14.3099976,7.4500122,19.4899902-4.6399536,5.1800537-7.4500122,12-7.4500122,19.4800415v39.6400146c0,7.4799805,2.8100586,14.3099976,7.4500122,19.4899902-4.6399536,5.1799927-7.4500122,12.0100098-7.4500122,19.4799805v39.6400146c0,16.1599731,13.1400146,29.289978,29.2900391,29.289978h127.7299805v46.5200195c-13.9899902,3.5700073-25.0299683,14.6099854-28.5999756,28.5999756H42.9750366c-5.4100342,0-9.8000488,4.3900146-9.8000488,9.7999878,0,5.4100342,4.3900146,9.8099976,9.8000488,9.8099976h118.6199951c4.3699951,17.1300049,19.9299927,29.8300171,38.3999634,29.8300171,18.4800415,0,34.0400391-12.7000122,38.4100342-29.8300171h118.6099854c5.4099731,0,9.8099976-4.3999634,9.8099976-9.8099976,0-5.4099731-4.4000244-9.7999878-9.8099976-9.7999878h-118.6099854c-3.5700073-13.9899902-14.6099854-25.0299683-28.6000366-28.5999756v-46.5200195h127.7300415c16.1499634,0,29.289978-13.1300049,29.289978-29.289978v-39.6400146c0-7.4699707-2.8200073-14.2999878-7.4500122-19.4799805,4.6300049-5.1799927,7.4500122-12.0100098,7.4500122-19.4899902v-39.6400146c0-7.4800415-2.8200073-14.2999878-7.4500122-19.4800415,4.6300049-5.1799927,7.4500122-12.0199585,7.4500122-19.4899902v-39.6399536ZM199.9949951,370.3900146c-11.039978,0-20.0199585-8.9799805-20.0199585-20.0300293,0-11.039978,8.9799805-20.0199585,20.0199585-20.0199585,11.0500488,0,20.0300293,8.9799805,20.0300293,20.0199585,0,11.0500488-8.9799805,20.0300293-20.0300293,20.0300293ZM347.2150269,236.1500244c0,5.3399658-4.3400269,9.6799927-9.6799927,9.6799927H62.4650269c-5.3400269,0-9.6799927-4.3400269-9.6799927-9.6799927v-39.6400146c0-5.3300171,4.3399658-9.6799927,9.6799927-9.6799927h275.0700073c5.3399658,0,9.6799927,4.3499756,9.6799927,9.6799927v39.6400146ZM347.2150269,157.5400391c0,5.3399658-4.3400269,9.6799927-9.6799927,9.6799927H62.4650269c-5.3400269,0-9.6799927-4.3400269-9.6799927-9.6799927v-39.6400146c0-5.3400269,4.3399658-9.6799927,9.6799927-9.6799927h275.0700073c5.3399658,0,9.6799927,4.3399658,9.6799927,9.6799927v39.6400146ZM347.2150269,78.9299927c0,5.3400269-4.3400269,9.6799927-9.6799927,9.6799927H62.4650269c-5.3400269,0-9.6799927-4.3399658-9.6799927-9.6799927v-39.6399536c0-5.3400269,4.3399658-9.6800537,9.6799927-9.6800537h275.0700073c5.3399658,0,9.6799927,4.3400269,9.6799927,9.6800537v39.6399536Z"/>
  <path class="st0" d="M115.2650146,59.1099854c0,5.4100342-4.4000244,9.8099976-9.7999878,9.8099976h-20.5599976c-5.4100342,0-9.8099976-4.3999634-9.8099976-9.8099976,0-5.4099731,4.3999634-9.8099976,9.8099976-9.8099976h20.5599976c5.3999634,0,9.7999878,4.4000244,9.7999878,9.8099976Z"/>
  <path class="st0" d="M324.8950195,59.1099854c0,5.4100342-4.4000244,9.8099976-9.7999878,9.8099976h-99.1700439c-5.4099731,0-9.8099976-4.3999634-9.8099976-9.8099976,0-5.4099731,4.4000244-9.8099976,9.8099976-9.8099976h99.1700439c5.3999634,0,9.7999878,4.4000244,9.7999878,9.8099976Z"/>
  <path class="st0" d="M115.2650146,137.7200317c0,5.4099731-4.4000244,9.8099976-9.7999878,9.8099976h-20.5599976c-5.4100342,0-9.8099976-4.4000244-9.8099976-9.8099976,0-5.4000244,4.3999634-9.8000488,9.8099976-9.8000488h20.5599976c5.3999634,0,9.7999878,4.4000244,9.7999878,9.8000488Z"/>
  <path class="st0" d="M324.8950195,137.7200317c0,5.4099731-4.4000244,9.8099976-9.7999878,9.8099976h-99.1700439c-5.4099731,0-9.8099976-4.4000244-9.8099976-9.8099976,0-5.4000244,4.4000244-9.8000488,9.8099976-9.8000488h99.1700439c5.3999634,0,9.7999878,4.4000244,9.7999878,9.8000488Z"/>
  <path class="st0" d="M115.2650146,216.3400269c0,5.3999634-4.4000244,9.7999878-9.7999878,9.7999878h-20.5599976c-5.4100342,0-9.8099976-4.4000244-9.8099976-9.7999878,0-5.4100342,4.3999634-9.8099976,9.8099976-9.8099976h20.5599976c5.3999634,0,9.7999878,4.3999634,9.7999878,9.8099976Z"/>
  <path class="st0" d="M324.8950195,216.3400269c0,5.3999634-4.4000244,9.7999878-9.7999878,9.7999878h-99.1700439c-5.4099731,0-9.8099976-4.4000244-9.8099976-9.7999878,0-5.4100342,4.4000244-9.8099976,9.8099976-9.8099976h99.1700439c5.3999634,0,9.7999878,4.3999634,9.7999878,9.8099976Z"/>
</svg>