<?xml version="1.0" encoding="UTF-8"?>
<svg id="_레이어_1" data-name="레이어_1" xmlns="http://www.w3.org/2000/svg" version="1.1" viewBox="0 0 400 400">
  <!-- Generator: Adobe Illustrator 29.8.3, SVG Export Plug-In . SVG Version: 2.1.1 Build 3)  -->
  <defs>
    <style>
      .st0 {
        fill: #2563eb;
      }
    </style>
  </defs>
  <path class="st0" d="M283.0289528,178.8088661H120.7351417c-32.6964567,0-59.2967559-26.5925197-59.2967559-59.2785039,0-26.629622,18.1514331-50.0041102,43.2586614-57.0915591,8.786378-30.7731181,37.0158898-52.4388031,69.6237795-52.4388031,20.3353858,0,39.6393858,8.5912913,53.266126,23.3634173,6.9851181-3.149811,14.5725512-4.7868031,22.3604567-4.7868031,25.7795591,0,47.922189,18.3713543,53.2748031,42.978,21.1172283,8.1984252,35.3289291,28.5538583,35.3289291,51.7326614,0,30.6145354-24.9073543,55.5215906-55.522189,55.5215906ZM174.3208268,30.9448819c-24.8855118,0-46.1813701,17.7439055-50.6369449,42.1907717-.8024882,4.4032126-4.3140472,7.809748-8.7391024,8.4772913-18.5631496,2.8030236-32.5615118,19.104126-32.5615118,37.9174173,0,21.1369764,17.2047244,38.333622,38.351874,38.333622h162.293811c19.066126,0,34.5773071-15.5114803,34.5773071-34.5767087,0-15.9513228-10.8027717-29.754-26.2699685-33.5656693-4.3786772-1.0798583-7.5748661-4.8409606-7.9333228-9.3366299-1.3796693-17.3061575-16.0751969-30.8634803-33.4555591-30.8634803-6.8262362,0-13.3981417,2.0403307-19.0050866,5.9001732-4.7272598,3.2551339-11.1941417,2.0980787-14.5001417-2.5947717-9.6522992-13.7018425-25.3989606-21.8820157-42.1213543-21.8820157Z"/>
  <path class="st0" d="M355.810622,335.3966929H44.1600551c-16.2065512,0-29.3913543-13.1979685-29.3913543-29.4209764V117.625874c0-16.206252,13.1848031-29.3910551,29.3913543-29.3910551h32.3891654c5.7837795,0,10.4724409,4.6883622,10.4724409,10.4724409,0,5.784378-4.6886614,10.4724409-10.4724409,10.4724409h-32.3891654c-4.6572441,0-8.4464724,3.7892283-8.4464724,8.4461732v188.3498425c0,4.6737008,3.7892283,8.4760945,8.4464724,8.4760945h311.6505669c4.6737008,0,8.4763937-3.8023937,8.4763937-8.4760945V117.625874c0-4.6569449-3.8026929-8.4461732-8.4763937-8.4461732h-34.9935118c-5.7837795,0-10.4724409-4.688063-10.4724409-10.4724409,0-5.7840787,4.6886614-10.4724409,10.4724409-10.4724409h34.9935118c16.2230079,0,29.4212756,13.1848031,29.4212756,29.3910551v188.3498425c0,16.2230079-13.1982677,29.4209764-29.4212756,29.4209764Z"/>
  <path class="st0" d="M199.9947638,390c-5.7837795,0-10.4724409-4.6883622-10.4724409-10.4724409v-54.6107874c0-5.7840787,4.6886614-10.4724409,10.4724409-10.4724409,5.7834803,0,10.4724409,4.6883622,10.4724409,10.4724409v54.6107874c0,5.7840787-4.6889606,10.4724409-10.4724409,10.4724409Z"/>
  <path class="st0" d="M242.7124488,390h-85.4356693c-5.7837795,0-10.4724409-4.6883622-10.4724409-10.4724409s4.6886614-10.4724409,10.4724409-10.4724409h85.4356693c5.7837795,0,10.4724409,4.6883622,10.4724409,10.4724409s-4.6886614,10.4724409-10.4724409,10.4724409Z"/>
  <path class="st0" d="M374.748685,284.0987874H25.2405433c-5.7837795,0-10.4724409-4.6883622-10.4724409-10.4724409s4.6886614-10.4724409,10.4724409-10.4724409h349.5081417c5.7837795,0,10.4724409,4.6883622,10.4724409,10.4724409s-4.6886614,10.4724409-10.4724409,10.4724409Z"/>
</svg>