<?xml version="1.0" encoding="UTF-8"?>
<svg id="_레이어_1" data-name="레이어_1" xmlns="http://www.w3.org/2000/svg" version="1.1" viewBox="0 0 400 400">
  <!-- Generator: Adobe Illustrator 29.8.3, SVG Export Plug-In . SVG Version: 2.1.1 Build 3)  -->
  <defs>
    <style>
      .st0 {
        fill: #2563eb;
      }
    </style>
  </defs>
  <path class="st0" d="M184.0918585,239.6789412c-30.6501342,0-55.5861765-24.935743-55.5861765-55.5861765,0-30.6501342,24.9360423-55.5861765,55.5861765-55.5861765,30.6504335,0,55.5861765,24.9360423,55.5861765,55.5861765,0,30.6504335-24.935743,55.5861765-55.5861765,55.5861765ZM184.0918585,149.4559642c-19.0986483,0-34.6368005,15.5381522-34.6368005,34.6368005s15.5381522,34.6368005,34.6368005,34.6368005,34.6368005-15.5381522,34.6368005-34.6368005-15.5381522-34.6368005-34.6368005-34.6368005Z"/>
  <path class="st0" d="M206.5187641,306.5119398h-44.8520155c-5.7853198,0-10.474688-4.6890689-10.474688-10.474688v-11.1211259c-14.790858-4.8078818-28.2684894-12.7842071-39.6344238-23.4564178l-9.7528324,5.3549598c-5.0685519,2.786267-11.4386586.9310501-14.2231299-4.1389981l-21.5901276-39.3159932c-1.3371687-2.4352153-1.6520079-5.3022871-.8759832-7.9691426.7766233-2.6677534,2.5806638-4.9174171,5.0158792-6.2545858l9.7543287-5.3555583c-1.2261371-6.4925109-1.8450415-13.0852795-1.8450415-19.687625,0-6.6020462.6189044-13.1948148,1.8450415-19.6882236l-9.7543287-5.3555583c-2.4352153-1.3371687-4.2392559-3.5868325-5.0158792-6.2545858-.7760247-2.6668556-.4611855-5.5339273.8759832-7.9691426l21.5901276-39.3159932c1.3371687-2.4346168,3.5868325-4.2386573,6.2545858-5.0152806,2.6653592-.7760247,5.5330295-.4617841,7.9691426.8759832l9.7522338,5.3558576c11.3644379-10.670415,24.8444636-18.648536,39.6344238-23.4570163v-11.1205273c0-5.7853198,4.6893682-10.474688,10.474688-10.474688h44.8520155c5.7853198,0,10.474688,4.6893682,10.474688,10.474688v11.1214252c14.7899602,4.8081811,28.269088,12.786302,39.6329274,23.456717l9.7528324-5.3564562c2.4361132-1.3368695,5.3037835-1.6511101,7.9691426-.8759832,2.6677534.7766233,4.9174171,2.5806638,6.2545858,5.0158792l21.5886313,39.3159932c1.3371687,2.4352153,1.6520079,5.3016885.8759832,7.9694419-.7766233,2.6668556-2.5806638,4.9165193-5.0158792,6.253688l-9.7534309,5.3555583c1.2258378,6.4925109,1.8447422,13.0861774,1.8447422,19.6882236,0,6.6014477-.6189044,13.1942163-1.8447422,19.6867272l9.7534309,5.3564562c5.0706468,2.7847706,6.9243673,9.1521838,4.139896,14.2231299l-21.5886313,39.315694c-1.3371687,2.4355146-3.5868325,4.2392559-6.2545858,5.0161784-2.6668556.7757255-5.5330295.4617841-7.9685441-.8762825l-9.7534309-5.3555583c-11.3647372,10.670415-24.8429672,18.648536-39.6329274,23.4561185v11.1220237c0,5.7856191-4.6893682,10.474688-10.474688,10.474688ZM172.1414366,285.5625638h23.9026395v-8.5661999c0-4.8411015,3.3177826-9.0519261,8.0248081-10.183791,16.5595839-3.9833742,31.4022168-12.7674476,42.9231765-25.4011184,3.2585258-3.5736643,8.5419584-4.4535381,12.7812143-2.1242667l7.5082564,4.1231365,11.5056966-20.9529673-7.5037672-4.1207423c-4.2392559-2.3280742-6.3332956-7.2547689-5.0679533-11.9222899,1.9758254-7.2897843,2.9781034-14.8001356,2.9781034-22.3215601,0-7.5229209-1.002278-15.0332722-2.9781034-22.3230565-1.2653423-4.6672217.8286975-9.5948142,5.0679533-11.9219906l7.5037672-4.1201437-11.5056966-20.9523688-7.5073585,4.1231365c-4.2431465,2.3271764-9.5235863,1.4502954-12.7821121-2.1239675-11.5203611-12.6339701-26.3635926-21.4177442-42.9240743-25.4029141-4.7067262-1.1324634-8.0239103-5.3423902-8.0239103-10.183791v-8.5647035h-23.9026395v8.5647035c0,4.8414008-3.3180819,9.0522254-8.0248081,10.183791-16.5604817,3.984272-31.4043118,12.7683454-42.9252715,25.4029141-3.2588251,3.5736643-8.5416592,4.4526402-12.7821121,2.1230696l-7.50676-4.1222386-11.5056966,20.9523688,7.5037672,4.1201437c4.2392559,2.3271764,6.3341935,7.2547689,5.0679533,11.9219906-1.9758254,7.2897843-2.9784027,14.8001356-2.9784027,22.3230565,0,7.5220231,1.0025773,15.0326737,2.9784027,22.322458,1.2662401,4.6672217-.8286975,9.5948142-5.0679533,11.9219906l-7.5037672,4.1201437,11.5062951,20.9529673,7.50676-4.1222386c4.2386573-2.327775,9.5217907-1.4502954,12.7815136,2.1233689,11.5224561,12.6342694,26.3656875,21.4183428,42.9252715,25.4020162,4.7067262,1.1315656,8.0248081,5.3423902,8.0248081,10.183791v8.565302Z"/>
  <path class="st0" d="M184.0918585,358.1841743c-44.6021194,0-89.2042387-16.9776736-123.1592867-50.9327215C-6.977524,239.3422548-6.977524,128.8435739,60.9325719,60.933478s178.4078789-67.9100958,246.3179748,0h0c67.9100958,67.9100958,67.9100958,178.4087767,0,246.3179748-33.9550479,33.9550479-78.5562695,50.9327215-123.1586881,50.9327215ZM184.0918585,30.9405557c-39.2420719,0-78.4709756,14.9318174-108.3459829,44.8062261-59.7413356,59.7419341-59.7413356,156.9500316,0,216.6913672,59.7422334,59.740737,156.9494331,59.7422334,216.6913672,0,59.7413356-59.7413356,59.7413356-156.9494331,0-216.6913672-29.8669268-29.8672261-69.11259-44.8062261-108.3453843-44.8062261Z"/>
  <path class="st0" d="M352.0334292,389.9990938c-.43036,0-.859523-.0074819-1.2904816-.0218472-10.4716952-.3603293-20.4268387-5.1014723-27.3134972-13.0071683l-48.3349989-55.5475698c-3.797224-4.3640543-3.3384327-10.9810644,1.0259209-14.7782884,4.3640543-3.7963262,10.9801665-3.3381334,14.7782884,1.0259209l48.3314076,55.5436792c3.1286397,3.5919202,7.4744381,5.6626163,12.2341363,5.8263207,4.7411431.1774711,9.2389741-1.6038244,12.6139186-4.9787688,3.3638712-3.3638712,5.1263123-7.8338695,4.9626079-12.58848-.164303-4.7623917-2.235897-9.1102851-5.8329048-12.2443117l-55.5400879-48.3278163c-4.3634557-3.797224-4.8228456-10.4139348-1.0256216-14.7782884,3.797224-4.3625579,10.4133363-4.8237435,14.7779891-1.0256216l55.5439785,48.3314076c7.9107837,6.8914469,12.6528246,16.8495831,13.0137524,27.3242711.36003,10.4666075-3.6805061,20.7171372-11.0864098,28.1221431-7.1108168,7.1108168-16.8379113,11.1244179-26.8579979,11.1244179Z"/>
</svg>