<?xml version="1.0" encoding="UTF-8"?>
<svg id="_레이어_1" data-name="레이어_1" xmlns="http://www.w3.org/2000/svg" version="1.1" viewBox="0 0 400 400">
  <!-- Generator: Adobe Illustrator 29.8.3, SVG Export Plug-In . SVG Version: 2.1.1 Build 3)  -->
  <defs>
    <style>
      .st0 {
        fill: #2563eb;
      }
    </style>
  </defs>
  <g>
    <g>
      <path class="st0" d="M266.3500366,66.0899658c0-.0599976,0-.1300049.0100098-.1900024v.3800049c-.0100098-.0599976-.0100098-.1300049-.0100098-.1900024Z"/>
      <path class="st0" d="M269.3600464,65.8599854v.460022c-.0100098-.0800171-.0100098-.1500244-.0100098-.2300415,0-.0799561,0-.1499634.0100098-.2299805Z"/>
      <path class="st0" d="M266.3500366,66.0899658c0,.0599976,0,.1300049.0100098.1900024v-.3800049c-.0100098.0599976-.0100098.1300049-.0100098.1900024ZM263.3600464,66.6300049v-1.0800171c-.0100098.1799927-.0100098.3599854-.0100098.539978,0,.1800537,0,.3600464.0100098.5400391Z"/>
      <path class="st0" d="M370.6500244,55.6099854h-86.3300171v-5.0999756c0-22.3400269-18.1699829-40.5100098-40.5099487-40.5100098-22.3300171,0-40.5,18.1699829-40.5,40.5100098v5.0999756H29.3499756c-5.7800293,0-10.4799805,4.7000122-10.4799805,10.4799805,0,5.7700195,4.6999512,10.4800415,10.4799805,10.4800415h173.960083v5.1199951c0,22.3300171,18.1699829,40.5,40.5,40.5,22.3399658,0,40.5099487-18.1699829,40.5099487-40.5v-5.1199951h86.3300171c5.7800293,0,10.4799805-4.710022,10.4799805-10.4800415,0-5.7799683-4.6999512-10.4799805-10.4799805-10.4799805ZM266.3600464,65.8999634v.3800049c-.0100098-.0599976-.0100098-.1300049-.0100098-.1900024s0-.1300049.0100098-.1900024ZM269.3600464,65.8599854v.460022c-.0100098-.0800171-.0100098-.1500244-.0100098-.2300415,0-.0799561,0-.1499634.0100098-.2299805ZM263.3600464,81.6900024c0,10.7699585-8.7700195,19.539978-19.5499878,19.539978-10.7700195,0-19.5400391-8.7700195-19.5400391-19.539978v-31.1799927c0-10.7800293,8.7700195-19.5500488,19.5400391-19.5500488,10.7799683,0,19.5499878,8.7700195,19.5499878,19.5500488v31.1799927Z"/>
    </g>
    <g>
      <path class="st0" d="M88.2600098,199.5100098c.0100098.1499634.0200195.3099976.0200195.4599609,0,.1500244-.0100098.3099976-.0200195.460022v-.9199829Z"/>
      <path class="st0" d="M91.2800293,199.9699707c0,.1300049,0,.2600098-.0200195.3900146v-.7700195c.0200195.1300049.0200195.25.0200195.3800049Z"/>
      <path class="st0" d="M94.2600098,199.2999878v1.3400269c.0100098-.2200317.0200195-.4500122.0200195-.6700439,0-.2199707-.0100098-.4499512-.0200195-.6699829ZM91.2600098,200.3599854c.0200195-.1300049.0200195-.2600098.0200195-.3900146s0-.25-.0200195-.3800049v.7700195Z"/>
    </g>
    <path class="st0" d="M370.6500244,189.4899902h-216.3300781v-5.0800171c0-22.3399658-18.1699219-40.5100098-40.5098877-40.5100098s-40.5100098,18.1700439-40.5100098,40.5100098v5.0800171H29.3499756c-5.7800293,0-10.4799805,4.7000122-10.4799805,10.4799805,0,5.7800293,4.6999512,10.4800415,10.4799805,10.4800415h43.9500732v5.1399536c0,22.3300171,18.1700439,40.5100098,40.5100098,40.5100098s40.5098877-18.1799927,40.5098877-40.5100098v-5.1399536h216.3300781c5.7800293,0,10.4799805-4.7000122,10.4799805-10.4800415,0-5.7799683-4.6999512-10.4799805-10.4799805-10.4799805ZM113.8100586,235.1400146c-10.7800293,0-19.5500488-8.7700195-19.5500488-19.5500488v-31.1799927c0-10.7799683,8.7700195-19.5499878,19.5500488-19.5499878,10.7799072,0,19.5499268,8.7700195,19.5499268,19.5499878v31.1799927c0,10.7800293-8.7700195,19.5500488-19.5499268,19.5500488ZM88.2600098,199.5100098c.0100098.1499634.0200195.3099976.0200195.4599609,0,.1500244-.0100098.3099976-.0200195.460022v-.9199829ZM91.2600098,199.5899658c.0200195.1300049.0200195.25.0200195.3800049s0,.2600098-.0200195.3900146v-.7700195Z"/>
    <path class="st0" d="M370.6500244,323.4299927h-20.3599854v-5.1199951c0-22.3400269-18.1699829-40.5100098-40.5100098-40.5100098s-40.5100098,18.1699829-40.5100098,40.5100098v5.1199951H29.3499756c-5.7800293,0-10.4799805,4.7000122-10.4799805,10.4799805,0,5.7800293,4.6999512,10.4800415,10.4799805,10.4800415h239.9200439v5.0999756c0,22.3400269,18.1699829,40.5100098,40.5100098,40.5100098s40.5100098-18.1699829,40.5100098-40.5100098v-5.0999756h20.3599854c5.7800293,0,10.4799805-4.7000122,10.4799805-10.4800415,0-5.7799683-4.6999512-10.4799805-10.4799805-10.4799805ZM335.3300171,334.1400146c-.0100098-.0800171-.0100098-.1500244-.0100098-.2300415,0-.0799561,0-.1499634.0100098-.2299805v.460022ZM332.3300171,334.0999756c-.0100098-.0599976-.0100098-.1300049-.0100098-.1900024s0-.1300049.0100098-.1900024v.3800049ZM309.7800293,369.039978c-10.7800293,0-19.5499878-8.7699585-19.5499878-19.5499878v-31.1799927c0-10.7800293,8.7699585-19.5499878,19.5499878-19.5499878s19.5499878,8.7699585,19.5499878,19.5499878v31.1799927c0,10.7800293-8.7699585,19.5499878-19.5499878,19.5499878Z"/>
    <g>
      <path class="st0" d="M332.3200073,333.9099731c0-.0599976,0-.1300049.0100098-.1900024v.3800049c-.0100098-.0599976-.0100098-.1300049-.0100098-.1900024Z"/>
      <path class="st0" d="M335.3300171,333.6799927v.460022c-.0100098-.0800171-.0100098-.1500244-.0100098-.2300415,0-.0799561,0-.1499634.0100098-.2299805Z"/>
      <path class="st0" d="M332.3200073,333.9099731c0,.0599976,0,.1300049.0100098.1900024v-.3800049c-.0100098.0599976-.0100098.1300049-.0100098.1900024ZM329.3300171,334.4500122v-1.0800171c-.0100098.1799927-.0100098.3599854-.0100098.539978s0,.3600464.0100098.5400391Z"/>
    </g>
  </g>
  <g>
    <path class="st0" d="M269.3500366,66.0899658c0,.0800171,0,.1500244.0100098.2300415v-.460022c-.0100098.0800171-.0100098.1500244-.0100098.2299805Z"/>
    <path class="st0" d="M269.3500366,66.0899658c0,.0800171,0,.1500244.0100098.2300415v-.460022c-.0100098.0800171-.0100098.1500244-.0100098.2299805ZM266.3600464,66.2799683v-.3800049c-.0100098.0599976-.0100098.1300049-.0100098.1900024s0,.1300049.0100098.1900024ZM269.3500366,66.0899658c0,.0800171,0,.1500244.0100098.2300415v-.460022c-.0100098.0800171-.0100098.1500244-.0100098.2299805ZM266.3600464,66.2799683v-.3800049c-.0100098.0599976-.0100098.1300049-.0100098.1900024s0,.1300049.0100098.1900024ZM269.3500366,66.0899658c0,.0800171,0,.1500244.0100098.2300415v-.460022c-.0100098.0800171-.0100098.1500244-.0100098.2299805ZM269.3500366,66.0899658c0,.0800171,0,.1500244.0100098.2300415v-.460022c-.0100098.0800171-.0100098.1500244-.0100098.2299805ZM269.3500366,66.0899658c0,.0800171,0,.1500244.0100098.2300415v-.460022c-.0100098.0800171-.0100098.1500244-.0100098.2299805ZM269.3500366,66.0899658c0,.0800171,0,.1500244.0100098.2300415v-.460022c-.0100098.0800171-.0100098.1500244-.0100098.2299805ZM269.3500366,66.0899658c0,.0800171,0,.1500244.0100098.2300415v-.460022c-.0100098.0800171-.0100098.1500244-.0100098.2299805ZM269.3500366,66.0899658c0,.0800171,0,.1500244.0100098.2300415v-.460022c-.0100098.0800171-.0100098.1500244-.0100098.2299805ZM269.3500366,66.0899658c0,.0800171,0,.1500244.0100098.2300415v-.460022c-.0100098.0800171-.0100098.1500244-.0100098.2299805ZM266.3600464,66.2799683v-.3800049c-.0100098.0599976-.0100098.1300049-.0100098.1900024s0,.1300049.0100098.1900024ZM269.3500366,66.0899658c0,.0800171,0,.1500244.0100098.2300415v-.460022c-.0100098.0800171-.0100098.1500244-.0100098.2299805ZM266.3600464,66.2799683v-.3800049c-.0100098.0599976-.0100098.1300049-.0100098.1900024s0,.1300049.0100098.1900024ZM269.3500366,66.0899658c0,.0800171,0,.1500244.0100098.2300415v-.460022c-.0100098.0800171-.0100098.1500244-.0100098.2299805ZM266.3600464,66.2799683v-.3800049c-.0100098.0599976-.0100098.1300049-.0100098.1900024s0,.1300049.0100098.1900024Z"/>
  </g>
  <g>
    <path class="st0" d="M88.2600098,199.5100098v.9199829c.0100098-.1500244.0200195-.3099976.0200195-.460022,0-.1499634-.0100098-.3099976-.0200195-.4599609Z"/>
    <path class="st0" d="M91.2600098,199.5899658v.7700195c.0200195-.1300049.0200195-.2600098.0200195-.3900146s0-.25-.0200195-.3800049ZM88.2600098,200.4299927c.0100098-.1500244.0200195-.3099976.0200195-.460022,0-.1499634-.0100098-.3099976-.0200195-.4599609v.9199829ZM91.2600098,199.5899658v.7700195c.0200195-.1300049.0200195-.2600098.0200195-.3900146s0-.25-.0200195-.3800049ZM88.2600098,200.4299927c.0100098-.1500244.0200195-.3099976.0200195-.460022,0-.1499634-.0100098-.3099976-.0200195-.4599609v.9199829ZM91.2600098,199.5899658v.7700195c.0200195-.1300049.0200195-.2600098.0200195-.3900146s0-.25-.0200195-.3800049ZM88.2600098,200.4299927c.0100098-.1500244.0200195-.3099976.0200195-.460022,0-.1499634-.0100098-.3099976-.0200195-.4599609v.9199829Z"/>
  </g>
  <g>
    <path class="st0" d="M335.3200073,333.9099731c0,.0800171,0,.1500244.0100098.2300415v-.460022c-.0100098.0800171-.0100098.1500244-.0100098.2299805Z"/>
    <path class="st0" d="M335.3200073,333.9099731c0,.0800171,0,.1500244.0100098.2300415v-.460022c-.0100098.0800171-.0100098.1500244-.0100098.2299805ZM332.3300171,334.0999756v-.3800049c-.0100098.0599976-.0100098.1300049-.0100098.1900024s0,.1300049.0100098.1900024ZM335.3200073,333.9099731c0,.0800171,0,.1500244.0100098.2300415v-.460022c-.0100098.0800171-.0100098.1500244-.0100098.2299805ZM332.3300171,334.0999756v-.3800049c-.0100098.0599976-.0100098.1300049-.0100098.1900024s0,.1300049.0100098.1900024ZM335.3200073,333.9099731c0,.0800171,0,.1500244.0100098.2300415v-.460022c-.0100098.0800171-.0100098.1500244-.0100098.2299805ZM332.3300171,334.0999756v-.3800049c-.0100098.0599976-.0100098.1300049-.0100098.1900024s0,.1300049.0100098.1900024Z"/>
  </g>
</svg>