<?xml version="1.0" encoding="UTF-8"?>
<svg id="_레이어_1" data-name="레이어_1" xmlns="http://www.w3.org/2000/svg" version="1.1" viewBox="0 0 400 400">
  <!-- Generator: Adobe Illustrator 29.8.3, SVG Export Plug-In . SVG Version: 2.1.1 Build 3)  -->
  <defs>
    <style>
      .st0 {
        fill: #2563eb;
      }
    </style>
  </defs>
  <path class="st0" d="M354.5679963,110.9236581v-.0299683c-.5700073-10.9899063-1.1699524-22.3497467-1.0700073-32.4796143.039978-5.1999435-3.8099365-9.6298752-8.9598999-10.2898407-50.6392822-6.6098976-97.1986694-25.4796448-138.4181671-56.1092453-3.6599274-2.6899672-8.5799103-2.6899672-12.2598419.0199585-41.1894531,30.609642-87.7588577,49.4793892-138.3881989,56.0892868-5.1599045.6599655-9.0098305,5.0898972-8.9698524,10.2998505.0999756,10.109848-.4999924,21.4796982-1.0699921,32.4995728-1.8999367,36.6594849-4.2699623,82.2789459,13.7998047,130.1383057,21.0297508,55.719223,65.2991829,103.9286346,135.3582649,147.4080353,1.6299286,1,3.4999542,1.5299988,5.4098969,1.5299988s3.7799835-.5300293,5.4299164-1.5499573c70.0390472-43.4594421,114.3084869-91.6688538,135.3382416-147.3880768,18.0697632-47.8593597,15.6997375-93.4788055,13.7998047-130.1383057M200.0000337,367.5502908C57.4519227,276.6714761,62.3718408,181.5427225,65.9817765,111.9636209l.0200195-.4099655c.4399948-8.4599075.8599777-16.529808,1.0200043-24.3096771,48.239357-7.6399155,92.9287643-25.8696518,132.9782333-54.2292671,40.049469,28.3596115,84.7388916,46.5893517,132.9782104,54.2292671.1600342,7.7599106.5800171,15.8097916,1.0100098,24.2396698l.0300293.4899826c3.6099243,69.5690918,8.5298462,164.6978455-134.0182495,255.5766602Z"/>
  <path class="st0" d="M305.6686128,118.7635782c-.2199707-4.5499878-3.3399353-8.3499298-7.7599182-9.4699097-32.5595703-8.1898956-63.7091217-21.1697083-92.5987549-38.5795135-3.2699738-1.9799576-7.349884-1.9799576-10.6198578,0-28.8896332,17.4098053-60.0391846,30.3896179-92.5987549,38.5895233-4.4199829,1.1099701-7.5399399,4.9099121-7.7599106,9.4498901-1.8099747,35.5294952-2.309967,67.7190857,9.8098679,101.9486694,14.0098267,39.5594788,43.4094086,74.9689941,89.8688202,108.2685242,1.7599792,1.2499695,3.8299713,1.9200134,5.9899139,1.9200134s4.2299194-.6700439,5.9999237-1.9300232c46.4494019-33.2895508,75.8489685-68.6990356,89.8587952-108.2585144,12.1198425-34.219574,11.6198425-66.4191589,9.8098755-101.9386597ZM200.0000337,307.8510416c-88.7888107-66.3191376-87.9988403-129.2782593-85.4888611-180.5375977,29.8695984-8.1999054,58.5892029-20.2397232,85.4888611-35.8295441,26.8996735,15.5898209,55.6192627,27.6296387,85.4888611,35.8295441,2.5099792,51.2493286,3.309967,114.2184753-85.4888611,180.5375977Z"/>
  <path class="st0" d="M258.6292756,169.6028726l-55.7092896,55.7092896c-1.9399719,1.9399719-4.5198975,3.009964-7.2698669,3.009964-2.7599792,0-5.3399506-1.0699921-7.2799377-3.0199738l-26.6796417-26.669632c-4.009964-4.009964-4.009964-10.5399017,0-14.5597992,1.9399719-1.9399719,4.5299072-3.009964,7.2798767-3.009964s5.3399506,1.0699921,7.2799377,3.0199127l19.399765,19.3897552,48.4293518-48.4293518c1.9399719-1.9399719,4.5198975-3.009964,7.2798767-3.009964,2.7499695,0,5.3299561,1.0699921,7.2799377,3.009964,4.0099487,4.0199738,4.0099487,10.5398407-.0100098,14.5597992Z"/>
</svg>