<?xml version="1.0" encoding="UTF-8"?>
<svg id="_레이어_1" data-name="레이어_1" xmlns="http://www.w3.org/2000/svg" version="1.1" viewBox="0 0 400 400">
  <!-- Generator: Adobe Illustrator 29.8.3, SVG Export Plug-In . SVG Version: 2.1.1 Build 3)  -->
  <defs>
    <style>
      .st0 {
        fill: #2563eb;
      }
    </style>
  </defs>
  <path class="st0" d="M346.0470157,390H53.9529843c-5.7840787,0-10.4724409-4.6886614-10.4724409-10.4724409V20.4724409c0-5.7837795,4.6883622-10.4724409,10.4724409-10.4724409h231.6049134c2.7772913,0,5.4414803,1.1034961,7.4052126,3.0672283l60.4888189,60.4894173c1.9643307,1.9640315,3.0675276,4.6279213,3.0675276,7.4052126v298.5657008c0,5.7837795-4.6883622,10.4724409-10.4724409,10.4724409ZM64.4254252,369.0551181h271.1491496V85.2995433l-54.3543622-54.3546614H64.4254252v338.1102362Z"/>
  <g>
    <path class="st0" d="M126.2529213,148.5791181c-2.7775906,0-5.4414803-1.1034961-7.4052126-3.0675276l-18.459622-18.459622c-4.0902362-4.0896378-4.0902362-10.7204882,0-14.810126,4.0893386-4.0902362,10.7207874-4.0902362,14.810126,0l11.0547087,11.0547087,27.341748-27.3423465c4.0893386-4.089937,10.7207874-4.089937,14.810126,0,4.0902362,4.0896378,4.0902362,10.7204882,0,14.810126l-34.7469606,34.7472598c-1.9634331,1.9640315-4.627622,3.0675276-7.4049134,3.0675276Z"/>
    <path class="st0" d="M292.207,148.5791181h-101.5270236c-5.7840787,0-10.4724409-4.6886614-10.4724409-10.4724409s4.6883622-10.4724409,10.4724409-10.4724409h101.5270236c5.7840787,0,10.4724409,4.6886614,10.4724409,10.4724409s-4.6883622,10.4724409-10.4724409,10.4724409Z"/>
    <path class="st0" d="M126.2529213,239.2474173c-2.6803465,0-5.3603937-1.0221102-7.4052126-3.0672283l-18.459622-18.4593228c-4.0902362-4.0896378-4.0902362-10.7204882,0-14.810126,4.0893386-4.0902362,10.7207874-4.0902362,14.810126,0l11.0547087,11.0541102,27.341748-27.3420472c4.0893386-4.0902362,10.7207874-4.0902362,14.810126,0,4.0902362,4.0896378,4.0902362,10.7204882,0,14.810126l-34.7469606,34.7472598c-2.0445197,2.0451181-4.7248661,3.0672283-7.4049134,3.0672283Z"/>
    <path class="st0" d="M292.207,239.2474173h-101.5270236c-5.7840787,0-10.4724409-4.6886614-10.4724409-10.4724409,0-5.7834803,4.6883622-10.4724409,10.4724409-10.4724409h101.5270236c5.7840787,0,10.4724409,4.6889606,10.4724409,10.4724409,0,5.7837795-4.6883622,10.4724409-10.4724409,10.4724409Z"/>
    <path class="st0" d="M126.2529213,329.9160157c-2.6803465,0-5.3603937-1.0224094-7.4052126-3.0672283l-18.459622-18.4593228c-4.0902362-4.089937-4.0902362-10.7204882,0-14.8104252,4.0893386-4.089937,10.7207874-4.089937,14.810126,0l11.0547087,11.0544094,27.341748-27.3423465c4.0893386-4.089937,10.7207874-4.089937,14.810126,0,4.0902362,4.089937,4.0902362,10.7204882,0,14.810126l-34.7469606,34.7475591c-2.0445197,2.0448189-4.7248661,3.0672283-7.4049134,3.0672283Z"/>
    <path class="st0" d="M292.207,329.9160157h-101.5270236c-5.7840787,0-10.4724409-4.6886614-10.4724409-10.4724409s4.6883622-10.4724409,10.4724409-10.4724409h101.5270236c5.7840787,0,10.4724409,4.6886614,10.4724409,10.4724409s-4.6883622,10.4724409-10.4724409,10.4724409Z"/>
  </g>
</svg>