<?xml version="1.0" encoding="UTF-8"?>
<svg id="_레이어_1" data-name="레이어_1" xmlns="http://www.w3.org/2000/svg" version="1.1" viewBox="0 0 400 400">
  <!-- Generator: Adobe Illustrator 29.8.3, SVG Export Plug-In . SVG Version: 2.1.1 Build 3)  -->
  <defs>
    <style>
      .st0 {
        fill: #2563eb;
      }
    </style>
  </defs>
  <g>
    <path class="st0" d="M228.2052756,308.0088661c-25.4644882,0-46.1804724-20.7162835-46.1804724-46.1804724s20.7159843-46.1804724,46.1804724-46.1804724c25.4638898,0,46.1801732,20.7162835,46.1801732,46.1804724s-20.7162835,46.1804724-46.1801732,46.1804724ZM228.2052756,236.5928031c-13.9151811,0-25.2355906,11.3207087-25.2355906,25.2355906s11.3204094,25.2355906,25.2355906,25.2355906c13.9145827,0,25.2352913-11.3207087,25.2352913-25.2355906s-11.3207087-25.2355906-25.2352913-25.2355906Z"/>
    <path class="st0" d="M245.9572598,360.9099528h-35.5030709c-5.7840787,0-10.4724409-4.6886614-10.4724409-10.4724409v-7.2337638c-10.9224567-3.7748661-20.9287244-9.6968819-29.5158268-17.4689291l-6.3451024,3.4837323c-5.068063,2.7844724-11.4359055.930252-14.2197795-4.1387087l-17.0892283-31.1199055c-1.3368819-2.4349921-1.6519528-5.3011496-.8760945-7.9677323.7764567-2.6668819,2.5801102-4.9163622,5.0151024-6.2529449l6.3462992-3.4846299c-.8093701-4.7661575-1.2174961-9.5927559-1.2174961-14.4262362,0-4.8337795.408126-9.6609764,1.2174961-14.4265354l-6.3462992-3.4852283c-2.4349921-1.3368819-4.2386457-3.586063-5.0151024-6.2532441-.7758583-2.6665827-.4607874-5.5327402.8760945-7.9671339l17.0892283-31.1199055c2.7844724-5.0692598,9.1532126-6.9225827,14.2197795-4.1387087l6.3451024,3.4840315c8.5871024-7.7720472,18.5933701-13.6943622,29.5158268-17.4695276v-7.2334646c0-5.7834803,4.6883622-10.4724409,10.4724409-10.4724409h35.5030709c5.7840787,0,10.4724409,4.6889606,10.4724409,10.4724409v7.2337638c10.9230551,3.7757638,20.9287244,9.6977795,29.5152283,17.4695276l6.3457008-3.4843307c2.4346929-1.3365827,5.3026457-1.6510551,7.9668346-.8757953,2.6671811.7761575,4.9163622,2.5801102,6.2532441,5.0145039l17.0883307,31.1199055c1.3368819,2.4346929,1.6516535,5.3005512.8760945,7.9677323-.7767559,2.6665827-2.5801102,4.9157638-5.0151024,6.2526457l-6.3471969,3.4855276c.8093701,4.7661575,1.2177953,9.5927559,1.2177953,14.4262362,0,4.8328819-.4084252,9.6594803-1.2177953,14.4256378l6.3471969,3.4855276c2.4349921,1.3368819,4.2383465,3.586063,5.0151024,6.2526457.7755591,2.6671811.4607874,5.5327402-.8760945,7.9677323l-17.0883307,31.1199055c-2.7841732,5.0692598-9.1511181,6.9225827-14.2200787,4.1390079l-6.3457008-3.4846299c-8.5871024,7.7723465-18.5927717,13.6943622-29.5152283,17.4692283v7.234063c0,5.7837795-4.6883622,10.4724409-10.4724409,10.4724409ZM220.9266299,339.9650709h14.558189v-4.5985984c0-4.8403622,3.3170709-9.0502835,8.0230866-10.1822047,12.6815276-3.0504724,24.0495118-9.7779685,32.8738898-19.4554016,3.258126-3.5731969,8.5380315-4.451685,12.7787717-2.1235118l4.0315906,2.213874,7.0075591-12.7611181-4.028-2.2120787c-4.2383465-2.3269764-6.331937-7.2532126-5.0674646-11.9194331,1.5137165-5.5836063,2.2814961-11.3362677,2.2814961-17.0982047,0-5.7622362-.7677795-11.5151969-2.2814961-17.0988031-1.2644724-4.6668189.8291181-9.5924567,5.0674646-11.9194331l4.028-2.2120787-7.0075591-12.7608189-4.0315906,2.213874c-4.2383465,2.3281732-9.5206457,1.4499843-12.7787717-2.1232126-8.824378-9.6768346-20.1917638-16.4049291-32.8744882-19.4565984-4.7054173-1.1319213-8.0224882-5.3412441-8.0224882-10.1816063v-4.5985984h-14.558189v4.5985984c0,4.8403622-3.3170709,9.049685-8.0230866,10.1822047-12.682126,3.0504724-24.0501102,9.7779685-32.8753858,19.4557008-3.2578268,3.5725984-8.540126,4.4507874-12.7784724,2.1229134l-4.0309921-2.2132756-7.0069606,12.7611181,4.0274016,2.2117795c4.2383465,2.3272756,6.3325354,7.253811,5.0665669,11.9206299-1.5134173,5.5821102-2.2811969,11.3347717-2.2811969,17.0976063,0,5.7625354.7677795,11.5151969,2.2811969,17.0982047,1.2659685,4.6668189-.8282205,9.5930551-5.0665669,11.9206299l-4.0274016,2.2111811,7.0075591,12.7608189,4.0303937-2.2132756c4.2383465-2.327874,9.519748-1.4502835,12.7784724,2.1229134,8.8252756,9.6777323,20.1938583,16.4052283,32.8753858,19.4557008,4.7060157,1.1319213,8.0230866,5.3418425,8.0230866,10.1822047v4.5982992Z"/>
  </g>
  <path class="st0" d="M369.4037008,355.4965984h-36.218189c-5.7840787,0-10.4724409-4.6886614-10.4724409-10.4724409,0-5.7834803,4.6883622-10.4724409,10.4724409-10.4724409h35.8696063V60.0349291H30.9550551v274.5167874h92.2693858c5.784378,0,10.4724409,4.6889606,10.4724409,10.4724409,0,5.7837795-4.688063,10.4724409-10.4724409,10.4724409H30.5732598c-11.338063,0-20.5630866-9.2393858-20.5630866-20.596V59.6528346c0-11.3383622,9.2250236-20.5627874,20.5630866-20.5627874h338.8304409c11.3569134,0,20.5962992,9.2244252,20.5962992,20.5627874v275.2477638c0,11.3566142-9.2393858,20.596-20.5962992,20.596Z"/>
  <path class="st0" d="M379.5158898,135.7871811H20.4724409c-5.7840787,0-10.4724409-4.6886614-10.4724409-10.4724409,0-5.7834803,4.6883622-10.4724409,10.4724409-10.4724409h359.0434488c5.7840787,0,10.4724409,4.6889606,10.4724409,10.4724409,0,5.7837795-4.6883622,10.4724409-10.4724409,10.4724409Z"/>
  <path class="st0" d="M81.3361732,96.9568661h-9.2106614c-5.7840787,0-10.4724409-4.6886614-10.4724409-10.4724409s4.6883622-10.4724409,10.4724409-10.4724409h9.2106614c5.7840787,0,10.4724409,4.6886614,10.4724409,10.4724409s-4.6883622,10.4724409-10.4724409,10.4724409Z"/>
</svg>