<?xml version="1.0" encoding="UTF-8"?>
<svg id="_레이어_1" data-name="레이어_1" xmlns="http://www.w3.org/2000/svg" version="1.1" viewBox="0 0 400 400">
  <!-- Generator: Adobe Illustrator 29.8.3, SVG Export Plug-In . SVG Version: 2.1.1 Build 3)  -->
  <defs>
    <style>
      .st0 {
        fill: #2563eb;
      }
    </style>
  </defs>
  <path class="st0" d="M273.1279144,31.3677476c-3.8998413,1.5799446-6.4296875,5.3197632-6.4296875,9.5396004v42.2480583H20.2895813c-5.6697826,0-10.2895651,4.6197815-10.2895651,10.289505,0,5.6797333,4.6197824,10.2995148,10.2895651,10.2995148h256.6981659c5.679718,0,10.2994995-4.6197815,10.2994995-10.2995148v-27.1187439l78.076416,80.6462402-78.076416,80.6362915v-27.1187439c0-5.6397552-4.5897522-10.2595367-10.2295227-10.289505l-143.7733459-.9199371v-42.3081055c0-4.2197723-2.5299072-7.9595947-6.4297562-9.5395355-3.90979-1.5799408-8.3295746-.6499329-11.2594299,2.3798981L12.8999062,245.867885c-1.8699093,1.9299011-2.8998909,4.4797668-2.8998909,7.1596985,0,2.6898193,1.0299816,5.2297363,2.8998909,7.1596375l102.6952782,106.0651245c2.9298553,3.0298157,7.3496399,3.9597778,11.2594299,2.3798828,3.8998413-1.5799561,6.4297638-5.3197632,6.4297638-9.5396118v-42.2480469h246.4086304c5.6697083,0,10.2894897-4.6197815,10.2894897-10.2894897,0-5.679718-4.6197815-10.2994995-10.2894897-10.2994995H122.9848022c-5.6697235,0-10.289505,4.6197815-10.289505,10.2994995v27.1187439l-78.0764236-80.6462402,78.0764236-80.6362915v27.1187439c0,5.6397552,4.5898132,10.2595367,10.2295074,10.289505l143.7733917.9099884v42.3180542c0,4.2197876,2.5298462,7.9595947,6.4296875,9.5395508,3.90979,1.5799561,8.3296204.6499329,11.259491-2.3798828l102.695282-106.0551147c3.8897705-4.0198364,3.8897705-10.3095245,0-14.3193512l-102.695282-106.0651245c-2.9298706-3.029829-7.3497009-3.9597778-11.259491-2.3798943l.0000305-.0000191Z"/>
</svg>