<?xml version="1.0" encoding="UTF-8"?>
<svg id="_레이어_6" data-name="레이어_6" xmlns="http://www.w3.org/2000/svg" version="1.1" viewBox="0 0 400 400">
  <!-- Generator: Adobe Illustrator 29.8.3, SVG Export Plug-In . SVG Version: 2.1.1 Build 3)  -->
  <defs>
    <style>
      .st0 {
        fill: #2563eb;
      }
    </style>
  </defs>
  <g>
    <g>
      <path class="st0" d="M68.3795197,347.340063c-18.6986929,0-33.9106614-15.2119685-33.9106614-33.9103622,0-18.6980945,15.2119685-33.910063,33.9106614-33.910063,18.6977953,0,33.9097638,15.2119685,33.9097638,33.910063,0,18.6983937-15.2119685,33.9103622-33.9097638,33.9103622ZM68.3795197,300.4645197c-7.1493858,0-12.9657795,5.8160945-12.9657795,12.9651811s5.8163937,12.9654803,12.9657795,12.9654803c7.1484882,0,12.9648819-5.8163937,12.9648819-12.9654803s-5.8163937-12.9651811-12.9648819-12.9651811Z"/>
      <path class="st0" d="M89.9554409,313.035937c-2.6803465,0-5.3603937-1.0221102-7.4052126-3.0672283-4.089937-4.0896378-4.089937-10.7204882,0-14.810126l28.6101102-28.6101102v-23.0671969c0-5.7837795,4.6883622-10.4724409,10.4724409-10.4724409s10.4724409,4.6886614,10.4724409,10.4724409v27.4048819c0,2.7772913-1.1028976,5.4411811-3.0672283,7.4052126l-31.6773386,31.6773386c-2.0448189,2.0451181-4.7251654,3.0672283-7.4052126,3.0672283Z"/>
    </g>
    <path class="st0" d="M197.601063,343.1244567c-5.7840787,0-10.4724409-4.6886614-10.4724409-10.4724409v-89.1707402c0-5.7837795,4.6883622-10.4724409,10.4724409-10.4724409s10.4724409,4.6886614,10.4724409,10.4724409v89.1707402c0,5.7837795-4.6883622,10.4724409-10.4724409,10.4724409Z"/>
    <path class="st0" d="M197.601063,390c-18.6977953,0-33.9097638-15.2119685-33.9097638-33.910063,0-18.6983937,15.2119685-33.9103622,33.9097638-33.9103622,18.6986929,0,33.9106614,15.2119685,33.9106614,33.9103622,0,18.6980945-15.2119685,33.910063-33.9106614,33.910063ZM197.601063,343.1244567c-7.1484882,0-12.9648819,5.8163937-12.9648819,12.9654803s5.8163937,12.9651811,12.9648819,12.9651811c7.1493858,0,12.9657795-5.8160945,12.9657795-12.9651811s-5.8163937-12.9654803-12.9657795-12.9654803Z"/>
    <path class="st0" d="M331.6207795,347.340063c-18.6977953,0-33.9097638-15.2119685-33.9097638-33.9103622,0-18.6980945,15.2119685-33.910063,33.9097638-33.910063,18.6986929,0,33.9103622,15.2119685,33.9103622,33.910063,0,18.6983937-15.2116693,33.9103622-33.9103622,33.9103622ZM331.6207795,300.4645197c-7.1487874,0-12.9648819,5.8160945-12.9648819,12.9651811s5.8160945,12.9654803,12.9648819,12.9654803c7.1493858,0,12.9654803-5.8163937,12.9654803-12.9654803s-5.8160945-12.9651811-12.9654803-12.9651811Z"/>
    <path class="st0" d="M310.0445591,313.035937c-2.6800472,0-5.3603937-1.0221102-7.4049134-3.0672283l-31.6773386-31.6773386c-1.9643307-1.9640315-3.0675276-4.6279213-3.0675276-7.4052126v-27.4048819c0-5.7837795,4.6883622-10.4724409,10.4724409-10.4724409s10.4724409,4.6886614,10.4724409,10.4724409v23.0671969l28.6101102,28.6101102c4.089937,4.0896378,4.089937,10.7204882,0,14.810126-2.0445197,2.0451181-4.7248661,3.0672283-7.4052126,3.0672283Z"/>
  </g>
  <path class="st0" d="M281.4443228,253.9537165H95.3164331c-38.8895591,0-70.5288976-31.6390394-70.5288976-70.5288976,0-33.981874,23.958252-62.4642205,56.2513701-69.0549764-.0592441-1.4155748-.0891654-2.8293543-.0891654-4.2383465,0-55.2128031,44.9091181-100.1314961,100.1099528-100.1314961,38.579874,0,73.8717008,22.5737953,90.3481417,56.9697795,3.3119843-.3533701,6.6658583-.5314016,10.0364882-.5314016,51.703937,0,93.7681417,42.0549291,93.7681417,93.7471969,0,51.703937-42.0642047,93.7681417-93.7681417,93.7681417ZM181.0596929,30.9448819c-43.6518268,0-79.1650709,35.5228189-79.1650709,79.1866142,0,3.9289606.2923307,7.9057953.8671181,11.8200945.4302677,2.9254016-.3958583,5.8959843-2.2746142,8.1786772-1.8796535,2.2832913-4.6357008,3.6653543-7.5892283,3.805685-26.4477008,1.2554961-47.1654803,22.9938898-47.1654803,49.4888661,0,27.3405512,22.2428661,49.5840157,49.5840157,49.5840157h186.1278898c40.1546299,0,72.8232598-32.6683307,72.8232598-72.8232598,0-40.1435591-32.6686299-72.802315-72.8232598-72.802315-4.8981102,0-9.7354803.4802362-14.3777638,1.4275433-5.0426299,1.031685-10.0831654-1.7572756-11.8954961-6.574-11.5412283-30.6791654-41.324252-51.2919213-74.1113701-51.2919213Z"/>
</svg>