<?xml version="1.0" encoding="UTF-8"?>
<svg id="_레이어_1" data-name="레이어_1" xmlns="http://www.w3.org/2000/svg" version="1.1" viewBox="0 0 400 400">
  <!-- Generator: Adobe Illustrator 29.8.3, SVG Export Plug-In . SVG Version: 2.1.1 Build 3)  -->
  <defs>
    <style>
      .st0 {
        fill: #2563eb;
      }
    </style>
  </defs>
  <path class="st0" d="M370.1064581,358.5761875H29.1653715c-10.768063,0-19.5290079-8.7612441-19.5290079-19.5299055V61.6809907c0-10.7686614,8.7609449-19.5299055,19.5290079-19.5299055h340.9410866c10.7689606,0,19.5299055,8.7612441,19.5299055,19.5299055v277.3652913c0,10.7686614-8.7609449,19.5299055-19.5299055,19.5299055ZM30.5812455,337.6313057h338.1102362V63.0959671H30.5812455v274.5353386Z"/>
  <path class="st0" d="M379.1639227,138.862282H20.1088046c-5.7840787,0-10.4724409-4.6886614-10.4724409-10.4724409,0-5.7834803,4.6883622-10.4724409,10.4724409-10.4724409h359.0551181c5.7840787,0,10.4724409,4.6889606,10.4724409,10.4724409,0,5.7837795-4.6883622,10.4724409-10.4724409,10.4724409Z"/>
  <path class="st0" d="M80.9746314,100.0310694h-9.2115591c-5.7840787,0-10.4724409-4.6886614-10.4724409-10.4724409s4.6883622-10.4724409,10.4724409-10.4724409h9.2115591c5.7840787,0,10.4724409,4.6886614,10.4724409,10.4724409s-4.6883622,10.4724409-10.4724409,10.4724409Z"/>
  <g>
    <path class="st0" d="M182.3729936,286.4297466c-32.2946142,0-58.5675748-26.2732598-58.5675748-58.567874,0-32.294315,26.2729606-58.567874,58.5675748-58.567874,32.2949134,0,58.567874,26.2735591,58.567874,58.567874,0,32.2946142-26.2729606,58.567874-58.567874,58.567874ZM182.3729936,190.2388805c-20.7453071,0-37.6226929,16.877685-37.6226929,37.6229921s16.8773858,37.6229921,37.6226929,37.6229921c20.7456063,0,37.6229921-16.877685,37.6229921-37.6229921s-16.8773858-37.6229921-37.6229921-37.6229921Z"/>
    <path class="st0" d="M264.9939699,323.7017623c-2.6800472,0-5.3603937-1.0221102-7.4049134-3.0672283l-50.0181732-50.0184724c-4.089937-4.0896378-4.089937-10.7204882,0-14.8104252,4.0902362-4.0893386,10.721685-4.0893386,14.810126.0002992l50.0181732,50.0184724c4.089937,4.0896378,4.089937,10.720189,0,14.810126-2.0448189,2.0445197-4.7257638,3.0672283-7.4052126,3.0672283Z"/>
  </g>
</svg>